<?xml version="1.0" encoding="utf-8"?>
<!-- Generator: Adobe Illustrator 22.1.0, SVG Export Plug-In . SVG Version: 6.00 Build 0)  -->
<svg version="1.1" id="Layer_1" xmlns="http://www.w3.org/2000/svg" xmlns:xlink="http://www.w3.org/1999/xlink" x="0px" y="0px"
	 viewBox="0 0 10 12" style="enable-background:new 0 0 10 12;" xml:space="preserve">
<path d="M9.8,7.459C9.469,7.024,8.843,6.934,8.4,7.262L6.001,9.038V0.987C6.001,0.442,5.553,0,5,0C4.449,0,4,0.442,4,0.987v8.052
	L1.6,7.262C1.42,7.129,1.21,7.064,1.001,7.064c-0.305,0-0.604,0.137-0.801,0.394c-0.332,0.436-0.241,1.055,0.2,1.382L4.4,11.803
	c0.042,0.031,0.09,0.046,0.135,0.069c0.038,0.02,0.072,0.043,0.113,0.058c0.108,0.04,0.219,0.064,0.333,0.066
	C4.988,11.996,4.993,12,5,12c0.006,0,0.01-0.003,0.016-0.003c0.115-0.002,0.227-0.026,0.336-0.067
	c0.041-0.015,0.076-0.038,0.114-0.058c0.045-0.023,0.093-0.038,0.134-0.069L9.6,8.84C10.042,8.514,10.131,7.894,9.8,7.459z"/>
</svg>
