<?xml version="1.0" encoding="utf-8"?>
<!-- Generator: Adobe Illustrator 22.1.0, SVG Export Plug-In . SVG Version: 6.00 Build 0)  -->
<svg version="1.1" id="Layer_1" xmlns="http://www.w3.org/2000/svg" xmlns:xlink="http://www.w3.org/1999/xlink" x="0px" y="0px"
	 viewBox="0 0 16 10" style="enable-background:new 0 0 16 10;" xml:space="preserve">
<path d="M15.929,5.354c0.043-0.113,0.07-0.23,0.07-0.349C15.999,5.003,16,5.002,16,5c0-0.003-0.002-0.006-0.002-0.009
	c-0.001-0.117-0.027-0.232-0.069-0.343c-0.016-0.041-0.038-0.075-0.059-0.113C15.846,4.49,15.831,4.442,15.8,4.4l-3.001-4
	c-0.331-0.441-0.956-0.533-1.399-0.2c-0.442,0.33-0.531,0.958-0.2,1.4L13,4H1C0.448,4,0,4.448,0,5c0,0.553,0.448,1.001,1,1.001h12
	l-1.8,2.4c-0.331,0.442-0.242,1.069,0.2,1.399c0.18,0.135,0.39,0.2,0.598,0.2c0.305,0,0.604-0.138,0.801-0.4L15.8,5.601
	c0.031-0.042,0.047-0.091,0.071-0.136C15.891,5.427,15.913,5.394,15.929,5.354z"/>
</svg>
