<?xml version="1.0" encoding="utf-8"?>
<!-- Generator: Adobe Illustrator 22.1.0, SVG Export Plug-In . SVG Version: 6.00 Build 0)  -->
<svg version="1.1" id="Layer_1" xmlns="http://www.w3.org/2000/svg" xmlns:xlink="http://www.w3.org/1999/xlink" x="0px" y="0px"
	 viewBox="0 0 12 16" style="enable-background:new 0 0 12 16;" xml:space="preserve">
<path d="M10,2L8,0H0.85C0.38,0,0,0.38,0,0.85v14.299C0,15.619,0.38,16,0.85,16H11.15c0.47,0,0.85-0.381,0.85-0.851V4L10,2z
	 M6.624,11.618c-0.19,0.521-0.438,0.878-0.744,1.072c-0.307,0.194-0.613,0.291-0.919,0.291c-0.289,0-0.506-0.051-0.649-0.152
	c-0.145-0.101-0.235-0.236-0.27-0.408c-0.037-0.171-0.032-0.369,0.013-0.593c0.045-0.225,0.112-0.455,0.202-0.692l1.448-3.993
	c0.189-0.544,0.127-0.817-0.189-0.817c-0.208,0-0.393,0.11-0.555,0.33C4.798,6.874,4.627,7.212,4.446,7.667l-0.19,0.487H4
	l0.352-0.966c0.1-0.273,0.217-0.5,0.352-0.681C4.839,6.326,4.98,6.188,5.129,6.09c0.149-0.097,0.302-0.165,0.46-0.205
	c0.157-0.039,0.304-0.06,0.44-0.06c0.288,0,0.5,0.058,0.635,0.172C6.8,6.111,6.884,6.259,6.915,6.439
	c0.031,0.18,0.023,0.38-0.027,0.599c-0.049,0.22-0.11,0.43-0.182,0.632l-1.447,3.994c-0.098,0.254-0.133,0.454-0.1,0.599
	c0.031,0.145,0.136,0.218,0.317,0.218c0.181,0,0.352-0.096,0.514-0.29c0.162-0.192,0.343-0.543,0.541-1.051l0.189-0.487h0.257
	L6.624,11.618z M7.787,3.377C7.742,3.612,7.623,3.815,7.429,3.986C7.235,4.157,7.02,4.243,6.786,4.243S6.372,4.157,6.245,3.986
	C6.119,3.815,6.078,3.612,6.124,3.377C6.169,3.143,6.286,2.94,6.476,2.769c0.189-0.171,0.401-0.257,0.636-0.257
	c0.234,0,0.417,0.085,0.548,0.257C7.79,2.94,7.832,3.143,7.787,3.377z"/>
</svg>
