<?xml version="1.0" encoding="utf-8"?>
<!-- Generator: Adobe Illustrator 22.1.0, SVG Export Plug-In . SVG Version: 6.00 Build 0)  -->
<svg version="1.1" id="Layer_1" xmlns="http://www.w3.org/2000/svg" xmlns:xlink="http://www.w3.org/1999/xlink" x="0px" y="0px"
	 viewBox="0 0 12 16" style="enable-background:new 0 0 12 16;" xml:space="preserve">
<g>
	<path d="M7.111,2.512c-0.235,0-0.447,0.085-0.636,0.257C6.286,2.94,6.169,3.143,6.124,3.377C6.078,3.612,6.119,3.815,6.245,3.986
		c0.127,0.171,0.307,0.257,0.541,0.257s0.449-0.086,0.643-0.257c0.194-0.171,0.313-0.374,0.358-0.609
		C7.832,3.143,7.79,2.94,7.659,2.769C7.528,2.598,7.345,2.512,7.111,2.512z"/>
	<path d="M6.529,11.14c-0.198,0.508-0.379,0.859-0.541,1.051c-0.162,0.193-0.333,0.29-0.514,0.29c-0.181,0-0.286-0.073-0.317-0.218
		c-0.032-0.145,0.002-0.345,0.1-0.599L6.705,7.67c0.072-0.202,0.133-0.412,0.182-0.632c0.05-0.22,0.059-0.419,0.027-0.599
		C6.884,6.259,6.8,6.111,6.665,5.997C6.529,5.883,6.317,5.825,6.029,5.825c-0.136,0-0.282,0.021-0.44,0.06
		c-0.158,0.04-0.312,0.108-0.46,0.205C4.98,6.188,4.839,6.326,4.704,6.507C4.568,6.688,4.451,6.915,4.351,7.188L4,8.154h0.257
		l0.19-0.487c0.181-0.456,0.352-0.794,0.515-1.012c0.162-0.22,0.347-0.33,0.555-0.33c0.315,0,0.378,0.273,0.189,0.817l-1.448,3.993
		c-0.09,0.237-0.157,0.467-0.202,0.692c-0.046,0.224-0.05,0.422-0.013,0.593c0.036,0.172,0.125,0.307,0.27,0.408
		c0.143,0.102,0.36,0.152,0.649,0.152c0.306,0,0.612-0.097,0.919-0.291c0.307-0.195,0.555-0.551,0.744-1.072l0.351-0.966H6.719
		L6.529,11.14z"/>
	<path d="M10,2L8,0H0.85C0.38,0,0,0.38,0,0.85v14.299C0,15.619,0.38,16,0.85,16H11.15c0.47,0,0.85-0.381,0.85-0.851V4L10,2z M11,15
		H1V1h6.586l1.707,1.707L11,4.414V15z"/>
</g>
</svg>
