<?xml version="1.0" encoding="utf-8"?>
<!-- Generator: Adobe Illustrator 22.1.0, SVG Export Plug-In . SVG Version: 6.00 Build 0)  -->
<svg version="1.1" id="Layer_1" xmlns="http://www.w3.org/2000/svg" xmlns:xlink="http://www.w3.org/1999/xlink" x="0px" y="0px"
	 viewBox="0 0 16 16" style="enable-background:new 0 0 16 16;" xml:space="preserve">
<path d="M15.5,0h-15C0.224,0,0,0.224,0,0.5V7c0,6.731,7.788,8.96,7.867,8.982C7.91,15.994,7.955,16,8,16
	c0.046,0,0.092-0.006,0.136-0.019C8.215,15.959,16,13.685,16,7V0.5C16,0.224,15.776,0,15.5,0z M8,13c-0.552,0-1-0.448-1-1
	c0-0.552,0.448-1,1-1s1,0.448,1,1C9,12.552,8.552,13,8,13z M9,9H7V3h2V9z"/>
</svg>
