<?xml version="1.0" encoding="utf-8"?>
<!-- Generator: Adobe Illustrator 22.1.0, SVG Export Plug-In . SVG Version: 6.00 Build 0)  -->
<svg version="1.1" id="Layer_1" xmlns="http://www.w3.org/2000/svg" xmlns:xlink="http://www.w3.org/1999/xlink" x="0px" y="0px"
	 viewBox="0 0 16 16" style="enable-background:new 0 0 16 16;" xml:space="preserve">
<path d="M15,5h-3V4c0-2.209-1.791-4-4-4S4,1.791,4,4v1H1C0.448,5,0,5.448,0,6v9c0,0.552,0.448,1,1,1h14c0.552,0,1-0.448,1-1V6
	C16,5.448,15.552,5,15,5z M5,4c0-1.654,1.346-3,3-3s3,1.346,3,3v1H5V4z M15,15H1V6h14V15z M9,8H7v5h2V8z"/>
</svg>
