<?xml version="1.0" encoding="utf-8"?>
<!-- Generator: Adobe Illustrator 22.1.0, SVG Export Plug-In . SVG Version: 6.00 Build 0)  -->
<svg version="1.1" id="Layer_1" xmlns="http://www.w3.org/2000/svg" xmlns:xlink="http://www.w3.org/1999/xlink" x="0px" y="0px"
	 viewBox="0 0 16 16" style="enable-background:new 0 0 16 16;" xml:space="preserve">
<path d="M8,1c3.86,0,7,3.14,7,7c0,3.86-3.14,7-7,7s-7-3.14-7-7C1,4.14,4.14,1,8,1 M8,0C3.582,0,0,3.582,0,8c0,4.418,3.582,8,8,8
	s8-3.582,8-8C16,3.582,12.418,0,8,0L8,0z"/>
<path d="M12,6.383C12,5.068,10.931,4,9.617,4C9.597,4,9.58,4.009,9.56,4.011C9.413,3.993,9.261,4.032,9.147,4.146l-5,5.001
	C4.053,9.24,4,9.366,4,9.498v2c0,0.277,0.224,0.5,0.501,0.5h1.999c0.133,0,0.259-0.052,0.353-0.146l5-4.999
	c0.113-0.113,0.153-0.266,0.135-0.414C11.991,6.42,12,6.402,12,6.383z M10.992,6.3L10.25,7.043L8.957,5.749l0.743-0.741
	C10.396,5.049,10.951,5.604,10.992,6.3z M6.293,11H5V9.705L8.25,6.456L9.543,7.75L6.293,11z"/>
</svg>
