<svg xmlns="http://www.w3.org/2000/svg" width="24.625" height="20.03" viewBox="0 0 24.625 20.03">
  <metadata><?xpacket begin="﻿" id="W5M0MpCehiHzreSzNTczkc9d"?>
<x:xmpmeta xmlns:x="adobe:ns:meta/" x:xmptk="Adobe XMP Core 5.6-c138 79.159824, 2016/09/14-01:09:01        ">
   <rdf:RDF xmlns:rdf="http://www.w3.org/1999/02/22-rdf-syntax-ns#">
      <rdf:Description rdf:about=""/>
   </rdf:RDF>
</x:xmpmeta>
                                                                                                    
                                                                                                    
                                                                                                    
                                                                                                    
                                                                                                    
                                                                                                    
                                                                                                    
                                                                                                    
                                                                                                    
                                                                                                    
                                                                                                    
                                                                                                    
                                                                                                    
                                                                                                    
                                                                                                    
                                                                                                    
                                                                                                    
                                                                                                    
                                                                                                    
                                                                                                    
                           
<?xpacket end="w"?></metadata>
<defs>
    <style>
      .cls-1 {
        fill: #1da1f3;
        fill-rule: evenodd;
      }
    </style>
  </defs>
  <path id="Shape_20_copy_17" data-name="Shape 20 copy 17" class="cls-1" d="M592,1044.21c0.008,0.22.014,0.43,0.014,0.65a14.37,14.37,0,0,1-22.122,12.11,11.94,11.94,0,0,0,1.2.07,10.169,10.169,0,0,0,6.276-2.16,5.083,5.083,0,0,1-4.72-3.51,4.96,4.96,0,0,0,.95.09,4.884,4.884,0,0,0,1.332-.18,5.053,5.053,0,0,1-4.052-4.95v-0.07a5.061,5.061,0,0,0,2.288.64,5.067,5.067,0,0,1-2.248-4.21,5,5,0,0,1,.684-2.54,14.336,14.336,0,0,0,10.415,5.28,5.166,5.166,0,0,1-.131-1.15,5.053,5.053,0,0,1,8.742-3.46,10.209,10.209,0,0,0,3.209-1.23,5.094,5.094,0,0,1-2.222,2.8,10.116,10.116,0,0,0,2.9-.8A10.135,10.135,0,0,1,592,1044.21Z" transform="translate(-569.906 -1039.22)"/>
</svg>
