<svg xmlns="http://www.w3.org/2000/svg" width="20" height="20" viewBox="0 0 20 20">
  <metadata><?xpacket begin="﻿" id="W5M0MpCehiHzreSzNTczkc9d"?>
<x:xmpmeta xmlns:x="adobe:ns:meta/" x:xmptk="Adobe XMP Core 5.6-c138 79.159824, 2016/09/14-01:09:01        ">
   <rdf:RDF xmlns:rdf="http://www.w3.org/1999/02/22-rdf-syntax-ns#">
      <rdf:Description rdf:about=""/>
   </rdf:RDF>
</x:xmpmeta>
                                                                                                    
                                                                                                    
                                                                                                    
                                                                                                    
                                                                                                    
                                                                                                    
                                                                                                    
                                                                                                    
                                                                                                    
                                                                                                    
                                                                                                    
                                                                                                    
                                                                                                    
                                                                                                    
                                                                                                    
                                                                                                    
                                                                                                    
                                                                                                    
                                                                                                    
                                                                                                    
                           
<?xpacket end="w"?></metadata>
<defs>
    <style>
      .cls-1 {
        fill: #007bb6;
        fill-rule: evenodd;
      }
    </style>
  </defs>
  <path id="Shape_1154_copy" data-name="Shape 1154 copy" class="cls-1" d="M633.519,1039H616.475a1.462,1.462,0,0,0-1.475,1.44v17.12a1.462,1.462,0,0,0,1.475,1.44h17.044a1.465,1.465,0,0,0,1.481-1.44v-17.12A1.465,1.465,0,0,0,633.519,1039Zm-15.556,7.5h2.969v9.54h-2.969v-9.54Zm1.487-4.75a1.72,1.72,0,1,1-1.723,1.72,1.72,1.72,0,0,1,1.723-1.72m3.343,4.75h2.844v1.3h0.041a3.113,3.113,0,0,1,2.8-1.54c3.005,0,3.56,1.98,3.56,4.55v5.23h-2.966v-4.64c0-1.11-.02-2.53-1.542-2.53-1.543,0-1.779,1.21-1.779,2.45v4.72h-2.963v-9.54Z" transform="translate(-615 -1039)"/>
</svg>
