<svg xmlns="http://www.w3.org/2000/svg" width="19.438" height="20" viewBox="0 0 19.438 20">
  <metadata><?xpacket begin="﻿" id="W5M0MpCehiHzreSzNTczkc9d"?>
<x:xmpmeta xmlns:x="adobe:ns:meta/" x:xmptk="Adobe XMP Core 5.6-c138 79.159824, 2016/09/14-01:09:01        ">
   <rdf:RDF xmlns:rdf="http://www.w3.org/1999/02/22-rdf-syntax-ns#">
      <rdf:Description rdf:about=""/>
   </rdf:RDF>
</x:xmpmeta>
                                                                                                    
                                                                                                    
                                                                                                    
                                                                                                    
                                                                                                    
                                                                                                    
                                                                                                    
                                                                                                    
                                                                                                    
                                                                                                    
                                                                                                    
                                                                                                    
                                                                                                    
                                                                                                    
                                                                                                    
                                                                                                    
                                                                                                    
                                                                                                    
                                                                                                    
                                                                                                    
                           
<?xpacket end="w"?></metadata>
<defs>
    <style>
      .cls-1 {
        fill-rule: evenodd;
      }
    </style>
  </defs>
  <path id="Shape_5_copy_11" data-name="Shape 5 copy 11" class="cls-1" d="M544.941,1059.03h-8.134a5.678,5.678,0,0,1-5.658-5.66v-8.67a5.678,5.678,0,0,1,5.658-5.66h8.134a5.678,5.678,0,0,1,5.659,5.66v8.67A5.678,5.678,0,0,1,544.941,1059.03Zm0-1.5a4.172,4.172,0,0,0,4.163-4.16v-8.67a4.172,4.172,0,0,0-4.163-4.16h-8.134a4.172,4.172,0,0,0-4.162,4.16v8.67a4.172,4.172,0,0,0,4.162,4.16h8.134Zm1.319-8.57a5.356,5.356,0,1,1-5.356-5.35A5.358,5.358,0,0,1,546.26,1048.96Zm-5.381-3.5a3.505,3.505,0,1,0,3.507,3.5A3.506,3.506,0,0,0,540.879,1045.46Zm6.735-1.94a1.268,1.268,0,1,1-1.267-1.27A1.269,1.269,0,0,1,547.614,1043.52Z" transform="translate(-531.156 -1039.03)"/>
</svg>
