<?xml version="1.0" encoding="utf-8"?>
<!-- Generator: Adobe Illustrator 22.1.0, SVG Export Plug-In . SVG Version: 6.00 Build 0)  -->
<svg version="1.1" id="Layer_1" xmlns="http://www.w3.org/2000/svg" xmlns:xlink="http://www.w3.org/1999/xlink" x="0px" y="0px"
	 viewBox="0 0 16 16" style="enable-background:new 0 0 16 16;" xml:space="preserve">
<path d="M8,0.468l1.893,5.207l0.109,0.299l0.317,0.028L15.5,6.468l-3.976,2.793L11.212,9.48l0.127,0.358l2.017,5.662l-5.081-3.332
	l-0.274-0.18l-0.274,0.18l-5.084,3.33l2.017-5.66L4.787,9.48L4.476,9.261L0.5,6.466l5.184-0.465l0.317-0.028L6.11,5.674l1.862-5.17
	C7.974,0.504,7.985,0.5,8,0.5L8,0.468 M8,0C7.801,0,7.602,0.099,7.53,0.297L5.64,5.503L0.456,5.968
	c-0.209,0.019-0.385,0.166-0.439,0.37c-0.054,0.203,0.024,0.419,0.196,0.539l3.976,2.793l-2.017,5.66
	c-0.072,0.203-0.007,0.429,0.161,0.562C2.424,15.964,2.533,16,2.643,16c0.095,0,0.191-0.027,0.274-0.082l5.085-3.332l5.082,3.332
	C13.167,15.973,13.262,16,13.357,16c0.11,0,0.219-0.036,0.31-0.108c0.169-0.133,0.234-0.359,0.161-0.562l-2.017-5.66l3.976-2.793
	c0.172-0.12,0.25-0.336,0.196-0.539c-0.054-0.204-0.229-0.351-0.439-0.37l-5.182-0.465L8.47,0.297C8.398,0.099,8.199,0,8,0L8,0z"/>
</svg>
