<svg xmlns="http://www.w3.org/2000/svg" width="15.969" height="16" viewBox="0 0 15.969 16">
  <metadata><?xpacket begin="﻿" id="W5M0MpCehiHzreSzNTczkc9d"?>
<x:xmpmeta xmlns:x="adobe:ns:meta/" x:xmptk="Adobe XMP Core 5.6-c138 79.159824, 2016/09/14-01:09:01        ">
   <rdf:RDF xmlns:rdf="http://www.w3.org/1999/02/22-rdf-syntax-ns#">
      <rdf:Description rdf:about=""/>
   </rdf:RDF>
</x:xmpmeta>
                                                                                                    
                                                                                                    
                                                                                                    
                                                                                                    
                                                                                                    
                                                                                                    
                                                                                                    
                                                                                                    
                                                                                                    
                                                                                                    
                                                                                                    
                                                                                                    
                                                                                                    
                                                                                                    
                                                                                                    
                                                                                                    
                                                                                                    
                                                                                                    
                                                                                                    
                                                                                                    
                           
<?xpacket end="w"?></metadata>
<defs>
    <style>
      .cls-1 {
        fill: #faa61a;
        fill-rule: evenodd;
      }
    </style>
  </defs>
  <path id="Shape_802_copy_8" data-name="Shape 802 copy 8" class="cls-1" d="M800.144,2674.5a0.508,0.508,0,0,1-.31-0.11,0.5,0.5,0,0,1-.162-0.56l2.016-5.66-3.975-2.79a0.5,0.5,0,0,1-.195-0.54,0.492,0.492,0,0,1,.438-0.37l5.184-.47,1.891-5.2a0.517,0.517,0,0,1,.938,0l1.893,5.2,5.182,0.47a0.494,0.494,0,0,1,.439.37,0.505,0.505,0,0,1-.2.54l-3.975,2.79,2.015,5.66a0.5,0.5,0,0,1-.161.56,0.487,0.487,0,0,1-.584.03l-5.08-3.33-5.086,3.33A0.531,0.531,0,0,1,800.144,2674.5Z" transform="translate(-797.531 -2658.5)"/>
</svg>
