<?xml version="1.0" encoding="utf-8"?>
<!-- Generator: Adobe Illustrator 22.1.0, SVG Export Plug-In . SVG Version: 6.00 Build 0)  -->
<svg version="1.1" id="Layer_1" xmlns="http://www.w3.org/2000/svg" xmlns:xlink="http://www.w3.org/1999/xlink" x="0px" y="0px"
	 viewBox="0 0 16 16" style="enable-background:new 0 0 16 16;" xml:space="preserve">
<g>
	<path d="M8,16c-4.411,0-8-3.589-8-8s3.589-8,8-8c0.276,0,0.5,0.224,0.5,0.5S8.276,1,8,1C4.14,1,1,4.14,1,8c0,3.859,3.14,7,7,7
		c3.859,0,7-3.141,7-7c0-0.276,0.224-0.5,0.5-0.5S16,7.724,16,8C16,12.411,12.411,16,8,16z"/>
</g>
<g>
	<path d="M7,11.954c-0.132,0-0.259-0.053-0.354-0.146L4.465,9.626c-0.195-0.195-0.195-0.512,0-0.707s0.512-0.195,0.707,0L6.954,10.7
		l8.152-10.462c0.169-0.219,0.483-0.257,0.702-0.087c0.218,0.17,0.257,0.484,0.087,0.702l-8.5,10.909
		c-0.088,0.112-0.221,0.183-0.364,0.191C7.021,11.954,7.01,11.954,7,11.954z"/>
</g>
</svg>
