<?xml version="1.0" encoding="utf-8"?><svg xmlns="http://www.w3.org/2000/svg" xmlns:xlink="http://www.w3.org/1999/xlink"><symbol viewBox="0 0 486.392 486.392" id="001-twitter" xmlns="http://www.w3.org/2000/svg"><path d="M243.196 0C108.891 0 0 108.891 0 243.196s108.891 243.196 243.196 243.196 243.196-108.891 243.196-243.196C486.392 108.861 377.501 0 243.196 0zm120.99 188.598l.182 7.752c0 79.16-60.221 170.359-170.359 170.359-33.804 0-65.268-9.91-91.776-26.904 4.682.547 9.454.851 14.288.851 28.059 0 53.868-9.576 74.357-25.627-26.204-.486-48.305-17.814-55.935-41.586 3.678.699 7.387 1.034 11.278 1.034 5.472 0 10.761-.699 15.777-2.067-27.39-5.533-48.031-29.7-48.031-58.701v-.76c8.086 4.499 17.297 7.174 27.116 7.509-16.051-10.731-26.63-29.062-26.63-49.825 0-10.974 2.949-21.249 8.086-30.095 29.518 36.236 73.658 60.069 123.422 62.562-1.034-4.378-1.55-8.968-1.55-13.649 0-33.044 26.812-59.857 59.887-59.857 17.206 0 32.771 7.265 43.714 18.908a121.25 121.25 0 0 0 38.03-14.531c-4.469 13.984-13.953 25.718-26.326 33.135a120.032 120.032 0 0 0 34.382-9.424c-8.025 11.977-18.209 22.526-29.912 30.916z"/></symbol><symbol viewBox="0 0 508.52 508.52" id="002-skype" xmlns="http://www.w3.org/2000/svg"><path d="M254.26 0C113.845 0 0 113.845 0 254.26s113.845 254.26 254.26 254.26 254.26-113.845 254.26-254.26C508.52 113.813 394.675 0 254.26 0zm68.936 404.591c-16.209 0-31.306-4.64-44.178-12.586-8.263 1.494-16.749 2.352-25.49 2.352-77.39 0-140.097-62.389-140.097-139.366 0-7.469.604-14.811 1.748-21.962-8.549-13.094-13.476-28.731-13.476-45.513 0-46.18 37.408-83.588 83.588-83.62 16.845 0 32.482 4.99 45.64 13.571a138.57 138.57 0 0 1 22.566-1.843c77.359 0 140.097 62.421 140.097 139.366 0 6.42-.477 12.713-1.303 18.911 9.185 13.444 14.525 29.653 14.525 47.07 0 46.212-37.408 83.62-83.62 83.62z"/><path d="M235.953 228.166c-40.491-9.853-18.338-44.495 14.461-43.987 31.846.509 48.055 34.134 62.453 32.386 14.461-1.748 26.761-23.392 4.036-42.779-19.61-16.781-44.495-26.03-82.698-22.566-29.939 2.701-58.384 21.993-61.88 59.56-3.464 37.599 41.095 56.7 76.373 61.944 24.727 3.623 58.416 15.605 38.139 38.743-18.561 21.262-53.776 8.105-63.025 2.32-9.249-5.848-19.673-26.634-37.027-25.521-17.385 1.176-25.934 23.996-4.608 44.019 19.101 17.894 39.919 27.778 84.446 25.426 44.559-2.32 84.478-41.635 68.841-78.693-15.637-36.994-59.02-41.031-99.511-50.852z"/></symbol><symbol viewBox="0 0 1000 1000" id="003-telegram" xmlns="http://www.w3.org/2000/svg"><path d="M500 10C229.4 10 10 229.4 10 500s219.4 490 490 490 490-219.4 490-490S770.6 10 500 10zm240.8 335.9l-80.4 378.8c-5.6 27-21.8 33.3-44.4 20.9L493.5 655l-58.8 57.2c-6.9 6.7-12.3 12.3-24.5 12.3-15.9 0-13.2-5.9-18.6-21.1l-41.7-137-121.2-37.7c-26.2-8-26.4-26 5.9-38.9l472-182.2c21.6-9.7 42.4 5.2 34.2 38.3z"/></symbol><symbol viewBox="0 0 216 216" id="004-gmail" xmlns="http://www.w3.org/2000/svg"><path d="M108 0C48.353 0 0 48.353 0 108s48.353 108 108 108 108-48.353 108-108S167.647 0 108 0zm48.657 60L107.96 98.498 57.679 60h98.978zm5.01 96h-109V76.259l50.244 38.11c1.347 1.03 3.34 1.545 4.947 1.545 1.645 0 3.073-.54 4.435-1.616l49.374-39.276V156z"/></symbol><symbol viewBox="0 0 24 24" id="005-vk" xmlns="http://www.w3.org/2000/svg"><path d="M12 0C5.373 0 0 5.373 0 12s5.373 12 12 12 12-5.373 12-12S18.627 0 12 0zm6.344 16.163h-1.867c-1.055 0-1.232-.601-2.102-1.469-.785-.785-1.22-.183-1.202.935.006.297-.141.534-.495.534-1.105 0-2.694.156-4.304-1.58C6.727 12.804 5 9.235 5 8.884c0-.208.172-.301.459-.301h1.898c.503 0 .545.249.686.568.584 1.331 1.981 4.002 2.354 2.511.214-.856.301-2.839-.615-3.01-.52-.096.396-.652 1.722-.652.33 0 .688.035 1.054.12.673.156.676.458.666.898-.034 1.666-.235 2.786.204 3.069.419.271 1.521-1.502 2.104-2.871.159-.378.191-.632.643-.632h2.322c1.216 0-.159 1.748-1.21 3.112-.847 1.099-.802 1.12.183 2.034.701.651 1.53 1.54 1.53 2.043 0 .238-.186.39-.656.39z"/></symbol><symbol viewBox="0 0 49.652 49.652" id="006-instagram" xmlns="http://www.w3.org/2000/svg"><path d="M24.825 29.796a4.978 4.978 0 0 0 4.972-4.97 4.954 4.954 0 0 0-.94-2.897 4.964 4.964 0 0 0-4.029-2.073c-1.659 0-3.126.82-4.031 2.072a4.947 4.947 0 0 0-.94 2.897 4.973 4.973 0 0 0 4.968 4.971zm10.853-11.05V13.96l-.623.002-4.164.013.016 4.787z"/><path d="M24.826 0C11.137 0 0 11.137 0 24.826c0 13.688 11.137 24.826 24.826 24.826 13.688 0 24.826-11.138 24.826-24.826C49.652 11.137 38.516 0 24.826 0zm14.119 21.929v11.56a5.463 5.463 0 0 1-5.457 5.458H16.164a5.462 5.462 0 0 1-5.457-5.458V16.165a5.462 5.462 0 0 1 5.457-5.457h17.323a5.463 5.463 0 0 1 5.458 5.457v5.764z"/><path d="M32.549 24.826c0 4.257-3.464 7.723-7.723 7.723s-7.722-3.466-7.722-7.723a7.67 7.67 0 0 1 .568-2.897h-4.215v11.56a2.706 2.706 0 0 0 2.706 2.704h17.323a2.707 2.707 0 0 0 2.706-2.704v-11.56h-4.217c.367.894.574 1.873.574 2.897z"/></symbol><symbol viewBox="0 0 49.652 49.652" id="007-facebook" xmlns="http://www.w3.org/2000/svg"><path d="M24.826 0C11.137 0 0 11.137 0 24.826c0 13.688 11.137 24.826 24.826 24.826 13.688 0 24.826-11.138 24.826-24.826C49.652 11.137 38.516 0 24.826 0zM31 25.7h-4.039v14.396h-5.985V25.7h-2.845v-5.088h2.845v-3.291c0-2.357 1.12-6.04 6.04-6.04l4.435.017v4.939h-3.219c-.524 0-1.269.262-1.269 1.386v2.99h4.56L31 25.7z"/></symbol><symbol viewBox="0 0 486.392 486.392" id="008-linkedin" xmlns="http://www.w3.org/2000/svg"><path d="M243.196 0C108.891 0 0 108.891 0 243.196s108.891 243.196 243.196 243.196 243.196-108.891 243.196-243.196C486.392 108.861 377.501 0 243.196 0zm-60.799 360.994h-60.799V148.197h60.799v212.797zm-28.515-225.838c-15.747 0-28.484-12.768-28.484-28.515s12.768-28.515 28.484-28.515c15.747.03 28.515 12.798 28.515 28.515 0 15.747-12.768 28.515-28.515 28.515zm241.311 225.838h-60.799V229.425c0-15.413-4.408-26.204-23.347-26.204-31.403 0-37.452 26.204-37.452 26.204v131.569h-60.799V148.197h60.799v20.337c8.694-6.657 30.399-20.307 60.799-20.307 19.699 0 60.799 11.795 60.799 83.051v129.716z"/></symbol><symbol viewBox="0 0 438.549 438.549" id="009-github" xmlns="http://www.w3.org/2000/svg"><path d="M409.132 114.573c-19.608-33.596-46.205-60.194-79.798-79.8-33.598-19.607-70.277-29.408-110.063-29.408-39.781 0-76.472 9.804-110.063 29.408-33.596 19.605-60.192 46.204-79.8 79.8C9.803 148.168 0 184.854 0 224.63c0 47.78 13.94 90.745 41.827 128.906 27.884 38.164 63.906 64.572 108.063 79.227 5.14.954 8.945.283 11.419-1.996 2.475-2.282 3.711-5.14 3.711-8.562 0-.571-.049-5.708-.144-15.417a2549.81 2549.81 0 0 1-.144-25.406l-6.567 1.136c-4.187.767-9.469 1.092-15.846 1-6.374-.089-12.991-.757-19.842-1.999-6.854-1.231-13.229-4.086-19.13-8.559-5.898-4.473-10.085-10.328-12.56-17.556l-2.855-6.57c-1.903-4.374-4.899-9.233-8.992-14.559-4.093-5.331-8.232-8.945-12.419-10.848l-1.999-1.431c-1.332-.951-2.568-2.098-3.711-3.429-1.142-1.331-1.997-2.663-2.568-3.997-.572-1.335-.098-2.43 1.427-3.289 1.525-.859 4.281-1.276 8.28-1.276l5.708.853c3.807.763 8.516 3.042 14.133 6.851 5.614 3.806 10.229 8.754 13.846 14.842 4.38 7.806 9.657 13.754 15.846 17.847 6.184 4.093 12.419 6.136 18.699 6.136 6.28 0 11.704-.476 16.274-1.423 4.565-.952 8.848-2.383 12.847-4.285 1.713-12.758 6.377-22.559 13.988-29.41-10.848-1.14-20.601-2.857-29.264-5.14-8.658-2.286-17.605-5.996-26.835-11.14-9.235-5.137-16.896-11.516-22.985-19.126-6.09-7.614-11.088-17.61-14.987-29.979-3.901-12.374-5.852-26.648-5.852-42.826 0-23.035 7.52-42.637 22.557-58.817-7.044-17.318-6.379-36.732 1.997-58.24 5.52-1.715 13.706-.428 24.554 3.853 10.85 4.283 18.794 7.952 23.84 10.994 5.046 3.041 9.089 5.618 12.135 7.708 17.705-4.947 35.976-7.421 54.818-7.421s37.117 2.474 54.823 7.421l10.849-6.849c7.419-4.57 16.18-8.758 26.262-12.565 10.088-3.805 17.802-4.853 23.134-3.138 8.562 21.509 9.325 40.922 2.279 58.24 15.036 16.18 22.559 35.787 22.559 58.817 0 16.178-1.958 30.497-5.853 42.966-3.9 12.471-8.941 22.457-15.125 29.979-6.191 7.521-13.901 13.85-23.131 18.986-9.232 5.14-18.182 8.85-26.84 11.136-8.662 2.286-18.415 4.004-29.263 5.146 9.894 8.562 14.842 22.077 14.842 40.539v60.237c0 3.422 1.19 6.279 3.572 8.562 2.379 2.279 6.136 2.95 11.276 1.995 44.163-14.653 80.185-41.062 108.068-79.226 27.88-38.161 41.825-81.126 41.825-128.906-.01-39.771-9.818-76.454-29.414-110.049z"/></symbol><symbol viewBox="0 0 485.213 485.212" id="010-phone" xmlns="http://www.w3.org/2000/svg"><path d="M242.607 0C108.629 0 .001 108.628.001 242.606c0 133.976 108.628 242.606 242.606 242.606s242.604-108.631 242.604-242.606C485.212 108.628 376.585 0 242.607 0zm128.112 353.989l-19.425 19.429c-3.468 3.463-13.623 5.624-13.949 5.624-61.452.536-120.621-23.602-164.095-67.08-43.593-43.618-67.759-102.998-67.11-164.657 0-.028 2.224-9.892 5.689-13.324l19.424-19.427c7.108-7.141 20.762-10.368 30.327-7.168l4.086 1.363c9.537 3.197 19.55 13.742 22.185 23.457l9.771 35.862c2.635 9.743-.919 23.604-8.025 30.712l-12.97 12.972c12.734 47.142 49.723 84.138 96.873 96.903l12.965-12.975c7.141-7.141 20.997-10.692 30.719-8.061l35.857 9.806c9.717 2.67 20.26 12.62 23.456 22.154l1.363 4.145c3.168 9.538-.034 23.189-7.141 30.265z"/></symbol><symbol viewBox="0 0 299.997 299.997" id="011-location" xmlns="http://www.w3.org/2000/svg"><circle cx="150.437" cy="110.572" r="24.149"/><path d="M149.996 0C67.157 0 .001 67.158.001 149.997c0 82.837 67.156 150 149.995 150s150-67.163 150-150C299.996 67.158 232.835 0 149.996 0zm-.311 68.678c.106 0 .21-.005.314-.01.104.005.207.01.314.01 25.274.399 45.834 21.288 45.834 46.568 0 30.908-33.024 62.205-46.148 73.419-.877-.75-1.849-1.595-2.889-2.521-.018-.016-.034-.029-.049-.044-14.524-12.906-43.209-42.045-43.209-70.854-.001-25.28 20.561-46.168 45.833-46.568zm.965 163.572c-27.663 0-55.669-7.936-55.669-23.098 0-10.641 13.79-17.717 31.569-20.995a219.685 219.685 0 0 0 9.55 9.049c-19.366 2.163-30.744 8.294-30.744 11.943 0 4.484 17.195 12.724 45.294 12.724 28.099 0 45.297-8.24 45.297-12.724 0-3.724-11.858-10.009-31.927-12.052a220.98 220.98 0 0 0 9.627-9.142c18.313 3.188 32.674 10.335 32.674 21.197 0 15.162-28.006 23.098-55.671 23.098z"/></symbol><symbol viewBox="0 0 299.997 299.997" id="012-email" xmlns="http://www.w3.org/2000/svg"><path d="M149.996 0C67.157 0 .001 67.158.001 149.997c0 82.837 67.156 150 149.995 150s150-67.163 150-150C299.996 67.158 232.835 0 149.996 0zm.003 52.686l88.763 55.35H61.236l88.763-55.35zm89.869 143.737h-.009c0 8.878-7.195 16.072-16.072 16.072H76.211c-8.878 0-16.072-7.195-16.072-16.072v-84.865c0-.939.096-1.852.252-2.749l84.808 52.883c.104.065.215.109.322.169.112.062.226.122.34.179a8.903 8.903 0 0 0 1.847.721c.065.018.13.026.195.041a9.148 9.148 0 0 0 2.093.265h.015c.7 0 1.401-.099 2.093-.265.065-.016.13-.023.195-.041a8.99 8.99 0 0 0 1.847-.721 9.19 9.19 0 0 0 .34-.179c.106-.06.218-.104.322-.169l84.808-52.883c.156.897.252 1.808.252 2.749v84.865z"/></symbol><symbol viewBox="0 0 457.03 457.03" id="link-symbol" xmlns="http://www.w3.org/2000/svg"><path d="M421.512 207.074l-85.795 85.767c-47.352 47.38-124.169 47.38-171.529 0-7.46-7.439-13.296-15.821-18.421-24.465l39.864-39.861c1.895-1.911 4.235-3.006 6.471-4.296 2.756 9.416 7.567 18.33 14.972 25.736 23.648 23.667 62.128 23.634 85.762 0l85.768-85.765c23.666-23.664 23.666-62.135 0-85.781-23.635-23.646-62.105-23.646-85.768 0l-30.499 30.532c-24.75-9.637-51.415-12.228-77.373-8.424l64.991-64.989c47.38-47.371 124.177-47.371 171.557 0 47.357 47.369 47.357 124.178 0 171.546zm-226.804 141.03l-30.521 30.532c-23.646 23.634-62.128 23.634-85.778 0-23.648-23.667-23.648-62.138 0-85.795l85.778-85.767c23.665-23.662 62.121-23.662 85.767 0 7.388 7.39 12.204 16.302 14.986 25.706 2.249-1.307 4.56-2.369 6.454-4.266l39.861-39.845c-5.092-8.678-10.958-17.03-18.421-24.477-47.348-47.371-124.172-47.371-171.543 0L35.526 249.96c-47.366 47.385-47.366 124.172 0 171.553 47.371 47.356 124.177 47.356 171.547 0l65.008-65.003c-25.972 3.826-52.644 1.213-77.373-8.406z"/></symbol></svg>