<?xml version="1.0" encoding="iso-8859-1"?>
<!-- Generator: Adobe Illustrator 19.1.0, SVG Export Plug-In . SVG Version: 6.00 Build 0)  -->
<svg version="1.1" id="Capa_1" xmlns="http://www.w3.org/2000/svg" xmlns:xlink="http://www.w3.org/1999/xlink" x="0px" y="0px"
	 viewBox="0 0 221.751 221.751" style="enable-background:new 0 0 221.751 221.751;" xml:space="preserve">
<g>
	<g id="group-53svg">
		<path id="path-1_117_" style="fill:#0CB04A;" d="M59.333,206.885h10.244c1.976,0,3.577,0.88,3.577,1.968
			c0,1.086-1.601,1.967-3.577,1.967H69.1c-1.975,0-3.576,0.881-3.576,1.968s1.601,1.969,3.576,1.969h14.92
			c1.975,0,3.577,0.881,3.577,1.967c0,1.088-1.602,1.969-3.577,1.969H64.657H35.57c-1.975,0-3.576-0.881-3.576-1.969
			c0-1.086,1.601-1.967,3.576-1.967h6.112c1.975,0,3.576-0.882,3.576-1.969s-1.601-1.968-3.576-1.968H12.595
			c-1.976,0-3.576-0.881-3.576-1.967c0-1.088,1.6-1.968,3.576-1.968h6.874H59.333z"/>
		<path id="path-2_117_" style="fill:#0CB04A;" d="M94.606,174.65h6.118c1.18,0,2.136,0.61,2.136,1.363
			c0,0.754-0.956,1.364-2.136,1.364h-0.285c-1.179,0-2.135,0.61-2.135,1.364c0,0.752,0.956,1.363,2.135,1.363h8.912
			c1.179,0,2.136,0.611,2.136,1.364c0,0.752-0.957,1.363-2.136,1.363H97.786H80.414c-1.179,0-2.135-0.611-2.135-1.363
			c0-0.753,0.956-1.364,2.135-1.364h3.65c1.181,0,2.137-0.611,2.137-1.363c0-0.754-0.956-1.364-2.137-1.364H66.693
			c-1.18,0-2.136-0.61-2.136-1.364c0-0.753,0.956-1.363,2.136-1.363h4.105H94.606z"/>
		<path id="path-3_117_" style="fill:#0CB04A;" d="M174.957,201.622h14.499c2.794,0,5.061,1.181,5.061,2.635
			c0,1.456-2.267,2.636-5.061,2.636h-0.676c-2.795,0-5.061,1.18-5.061,2.636c0,1.455,2.266,2.635,5.061,2.635h21.116
			c2.795,0,5.062,1.18,5.062,2.636c0,1.456-2.267,2.636-5.062,2.636h-27.403h-41.167c-2.795,0-5.061-1.18-5.061-2.636
			c0-1.456,2.266-2.636,5.061-2.636h8.65c2.796,0,5.061-1.18,5.061-2.635c0-1.456-2.265-2.636-5.061-2.636h-41.165
			c-2.796,0-5.062-1.18-5.062-2.636c0-1.454,2.266-2.635,5.062-2.635h9.728H174.957z"/>
		<path id="path-4_116_" style="fill:#0CB04A;" d="M15.703,220.1c1.644,0,2.977-0.733,2.977-1.639c0-0.904-1.333-1.638-2.977-1.638
			H6.579c-1.645,0-2.977,0.734-2.977,1.638c0,0.906,1.332,1.639,2.977,1.639H15.703z"/>
		<path id="path-5_116_" style="fill:#2476FF;" d="M155.331,84.231c19.069-18.891,19.069-49.52,0-68.41
			c-19.069-18.892-49.986-18.892-69.055,0c-19.069,18.89-19.069,49.519,0,68.41l8.571-8.491c-14.336-14.203-14.336-37.227,0-51.429
			c14.335-14.201,37.577-14.201,51.913,0c14.335,14.202,14.335,37.226,0,51.429L155.331,84.231z"/>
		<path id="path-6_115_" style="fill:#2476FF;" d="M61.539,105.672l27.452,27.195l-37.065,2.622v15.162l59.249,4.192l39.481,39.114
			l71.095-70.432l-89.117-88.283L61.539,105.672z"/>
		<path id="path-7_115_" style="opacity:0.25;fill:#020403;enable-background:new    ;" d="M100.883,144.647l-48.957-3.464v9.468
			l59.249,4.192L100.883,144.647z"/>
		<path id="path-8_112_" style="opacity:0.25;fill:#020403;enable-background:new    ;" d="M119.769,47.987l60.782,60.214
			c8.544,8.463,8.544,22.186,0,30.649l-42.76,42.361l12.865,12.746l71.095-70.432l-89.117-88.283L119.769,47.987z"/>
		<path id="path-9_106_" style="fill:#FF3A2F;" d="M54.978,141.927c-4.437-13.531-19.106-20.938-32.766-16.541l16.067,49.001
			C51.938,169.991,59.414,155.459,54.978,141.927z"/>
		<path id="path-10_98_" style="opacity:0.25;fill:#020403;enable-background:new    ;" d="M54.977,141.926
			c-0.614-1.873-1.442-3.615-2.418-5.239c-0.501,10.389-7.341,19.876-17.919,23.279l-11.426-34.849
			c-0.334,0.093-0.669,0.16-1.002,0.268l16.067,49C51.938,169.991,59.414,155.459,54.977,141.926z"/>
		<path id="path-11_86_" style="fill:#0CB04A;" d="M30.065,183.123c1.327-2.586,8.458-6.351,8.458-6.351s1.134,7.926-0.192,10.511
			c-1.326,2.586-4.251,3.75-6.534,2.601C29.515,188.735,28.74,185.709,30.065,183.123z"/>
		<path id="path-12_74_" style="fill:#0CB04A;" d="M15.356,175.718c1.326-2.584,8.457-6.351,8.457-6.351s1.135,7.927-0.191,10.512
			c-1.327,2.586-4.251,3.75-6.534,2.601C14.805,181.332,14.03,178.304,15.356,175.718z"/>
		<path id="path-13_62_" style="fill:#0CB04A;" d="M0.647,168.315c1.326-2.585,8.457-6.351,8.457-6.351s1.134,7.926-0.191,10.512
			c-1.327,2.584-4.251,3.75-6.534,2.6C0.097,173.928-0.679,170.9,0.647,168.315z"/>
		<path id="path-14_50_" style="fill:#0CB04A;" d="M13,147.021c1.033-1.957,6.944-4.531,6.944-4.531s1.243,6.277,0.211,8.235
			c-1.032,1.957-3.471,2.714-5.447,1.692C12.733,151.395,11.968,148.978,13,147.021z"/>
		<path id="path-15_42_" style="fill:#0CB04A;" d="M5.519,194.107c0-2.208,4.037-7.201,4.037-7.201s4.037,4.993,4.037,7.201
			c0,2.209-1.808,3.999-4.037,3.999S5.519,196.316,5.519,194.107z"/>
	</g>
</g>
<g>
</g>
<g>
</g>
<g>
</g>
<g>
</g>
<g>
</g>
<g>
</g>
<g>
</g>
<g>
</g>
<g>
</g>
<g>
</g>
<g>
</g>
<g>
</g>
<g>
</g>
<g>
</g>
<g>
</g>
</svg>
