<?xml version="1.0" encoding="iso-8859-1"?>
<!-- Generator: Adobe Illustrator 19.0.0, SVG Export Plug-In . SVG Version: 6.00 Build 0)  -->
<svg version="1.1" id="Layer_1" xmlns="http://www.w3.org/2000/svg" xmlns:xlink="http://www.w3.org/1999/xlink" x="0px" y="0px"
	 viewBox="0 0 512.004 512.004" style="enable-background:new 0 0 512.004 512.004;" xml:space="preserve">
<path style="fill:#FF6F52;" d="M331.828,206.243l0.092,0.01V175.12h-47.049v26.245l0.016,0.001
	c-25.636,3.608-48.076,17.184-63.259,36.68l173.236,44.62C389.31,247.246,364.682,218.17,331.828,206.243z"/>
<path style="fill:#E25749;" d="M225.911,297.773c0-49.548,37.018-90.421,84.899-96.546c-4.086-0.522-8.242-0.822-12.469-0.822
	c-53.775,0-97.369,43.593-97.369,97.369c0,53.775,43.593,97.369,97.369,97.369c4.228,0,8.384-0.299,12.469-0.822
	C262.929,388.193,225.911,347.319,225.911,297.773z"/>
<path style="fill:#8DE0A8;" d="M105.887,304.551v-96.305l320.493,82.531c31.609,8.126,53.687,36.628,53.687,69.252v17.314
	l-110.092,75.138H231.246"/>
<g>
	<circle style="fill:#415E72;" cx="147.409" cy="396.459" r="100.831"/>
	<circle style="fill:#415E72;" cx="434.395" cy="428.605" r="68.679"/>
</g>
<g>
	<circle style="fill:#CFDCE5;" cx="147.409" cy="396.459" r="43.294"/>
	<circle style="fill:#CFDCE5;" cx="434.395" cy="428.605" r="23.796"/>
</g>
<polygon style="fill:#7BC690;" points="61.081,297.874 105.887,297.874 105.887,208.246 31.953,208.246 "/>
<path style="fill:#CFDCE5;" d="M105.887,208.262v-0.014L66.317,65.769l-25.903,7.2c-13.115,3.644-26.694-4.034-30.339-17.164
	C6.43,42.69,14.109,29.111,27.224,25.467l36.03-10.008c20.644-5.737,42.02,6.348,47.741,26.978l49.997,180.002"/>
<path d="M147.291,344.465c-28.863,0-52.344,23.481-52.344,52.344s23.481,52.344,52.344,52.344s52.344-23.481,52.344-52.344
	S176.153,344.465,147.291,344.465z M147.291,431.052c-18.881,0-34.243-15.361-34.243-34.243c0-18.882,15.361-34.243,34.243-34.243
	s34.243,15.361,34.243,34.243C181.534,415.691,166.173,431.052,147.291,431.052z"/>
<path d="M488.996,373.816v-13.436c0-36.78-24.871-68.861-60.48-78.016l-190.187-48.976c13.137-12.232,29.557-20.107,47.334-22.668
	c0.058-0.006,0.115-0.018,0.173-0.025c4.145-0.589,8.364-0.891,12.632-0.891c31.329,0,60.611,16.836,76.418,43.937
	c1.682,2.884,4.712,4.493,7.825,4.493c1.548,0,3.118-0.398,4.55-1.234c4.318-2.518,5.776-8.059,3.258-12.377
	c-11.581-19.855-29.174-35.123-49.671-44.047v-25.104c0-4.998-4.051-9.05-9.05-9.05h-47.049c-4.999,0-9.05,4.052-9.05,9.05v18.666
	c-22.213,4.806-42.302,16.604-57.512,34.064l-49.994-12.874l-28.559-102.819c-1.337-4.815-6.324-7.636-11.141-6.298
	c-4.816,1.337-7.636,6.327-6.299,11.143l25.765,92.764l-34.872-8.98L74.916,63.696c-0.642-2.313-2.178-4.276-4.267-5.457
	c-2.091-1.181-4.562-1.483-6.877-0.841l-25.902,7.2c-4.013,1.114-8.22,0.601-11.842-1.449c-3.626-2.05-6.237-5.395-7.354-9.418
	c-2.302-8.281,2.567-16.894,10.849-19.196l36.032-10.008c7.655-2.125,15.678-1.146,22.592,2.762
	c6.912,3.906,11.887,10.268,14.007,17.919l12.131,43.671c1.337,4.816,6.329,7.636,11.141,6.298
	c4.816-1.338,7.636-6.327,6.299-11.143l-12.13-43.669c-3.414-12.308-11.42-22.549-22.543-28.836
	C85.929,5.245,73.024,3.664,60.711,7.086L24.678,17.095C6.777,22.071-3.74,40.679,1.233,58.574
	c2.409,8.679,8.05,15.898,15.882,20.329s16.924,5.545,25.601,3.134l17.181-4.776l33.961,122.285H31.831
	c-2.896,0-5.618,1.386-7.321,3.731s-2.182,5.361-1.285,8.116l29.128,89.628c1.212,3.729,4.687,6.253,8.607,6.253h22.71
	c-27.977,19.937-46.255,52.642-46.255,89.535c0,60.585,49.291,109.876,109.877,109.876c36.251,0,68.453-17.65,88.477-44.804h128.115
	c12.419,26.443,39.293,44.804,70.39,44.804c42.86,0,77.729-34.868,77.729-77.73C512,407.421,503.192,387.907,488.996,373.816z
	 M293.798,184.52h28.948v10.014c-7.88-1.86-16.021-2.831-24.282-2.831c-1.561,0-3.117,0.045-4.666,0.111L293.798,184.52
	L293.798,184.52z M44.289,217.646h52.426v71.528H67.533L44.289,217.646z M246.606,443.781c6.767-14.25,10.561-30.176,10.561-46.972
	c0-12.737-2.162-25.221-6.426-37.107c-1.687-4.705-6.876-7.148-11.575-5.463c-4.705,1.687-7.151,6.87-5.463,11.575
	c3.559,9.92,5.363,20.348,5.363,30.996c0,50.606-41.17,91.776-91.776,91.776s-91.777-41.171-91.777-91.776
	s41.171-91.776,91.777-91.776c27.944,0,54.027,12.505,71.561,34.31c3.131,3.895,8.826,4.513,12.725,1.382
	c3.895-3.133,4.513-8.829,1.382-12.723c-20.987-26.098-52.211-41.067-85.666-41.067c-11.301,0-22.208,1.717-32.476,4.899v-71.561
	l309.19,79.621c27.608,7.098,46.889,31.971,46.889,60.486c0,0,0.019,0.024,0.055,0.068c-10.933-5.877-23.422-9.22-36.678-9.22
	c-42.86,0-77.729,34.868-77.729,77.729c0,5.07,0.503,10.023,1.435,14.824L246.606,443.781L246.606,443.781z M434.271,488.585
	c-32.879,0-59.628-26.75-59.628-59.63s26.75-59.628,59.628-59.628s59.628,26.749,59.628,59.628S467.15,488.585,434.271,488.585z"/>
<path d="M434.271,396.11c-18.111,0-32.846,14.735-32.846,32.846s14.735,32.846,32.846,32.846c18.112,0,32.847-14.735,32.847-32.846
	S452.384,396.11,434.271,396.11z M434.271,443.702c-8.131,0-14.746-6.615-14.746-14.746s6.614-14.746,14.746-14.746
	s14.747,6.615,14.747,14.746S442.403,443.702,434.271,443.702z"/>
<path d="M323.355,343.123h44.563c4.999,0,9.05-4.052,9.05-9.05c0-4.998-4.051-9.05-9.05-9.05h-44.563c-4.999,0-9.05,4.052-9.05,9.05
	C314.305,339.071,318.357,343.123,323.355,343.123z"/>
<path d="M282.775,343.123h12.223c4.999,0,9.05-4.052,9.05-9.05c0-4.998-4.051-9.05-9.05-9.05h-12.223c-4.999,0-9.05,4.052-9.05,9.05
	C273.725,339.071,277.777,343.123,282.775,343.123z"/>
<path d="M338.79,357.079h-56.014c-4.999,0-9.05,4.052-9.05,9.05c0,4.998,4.051,9.05,9.05,9.05h56.014c4.999,0,9.05-4.052,9.05-9.05
	C347.84,361.131,343.789,357.079,338.79,357.079z"/>
<g>
</g>
<g>
</g>
<g>
</g>
<g>
</g>
<g>
</g>
<g>
</g>
<g>
</g>
<g>
</g>
<g>
</g>
<g>
</g>
<g>
</g>
<g>
</g>
<g>
</g>
<g>
</g>
<g>
</g>
</svg>
