<?xml version="1.0" encoding="iso-8859-1"?>
<!-- Generator: Adobe Illustrator 19.0.0, SVG Export Plug-In . SVG Version: 6.00 Build 0)  -->
<svg version="1.1" id="Layer_1" xmlns="http://www.w3.org/2000/svg" xmlns:xlink="http://www.w3.org/1999/xlink" x="0px" y="0px"
	 viewBox="0 0 512 512" style="enable-background:new 0 0 512 512;" xml:space="preserve">
<path style="fill:#9DDA74;" d="M240.571,144.673l2.159,94.251l-42.126,55.023c-20.966,15.791-47.036,25.164-75.313,25.164
	C56.095,319.112,0,263.016,0,193.82S56.095,68.528,125.292,68.528C177.044,68.528,221.462,99.905,240.571,144.673z"/>
<rect x="272.672" y="244.333" style="fill:#C79175;" width="14.476" height="240.619"/>
<path style="fill:#9DDA74;" d="M496.498,415.596c0.651,15.502-2.582,30.195-8.831,43.163c-5.622,11.69-17.625,18.952-30.593,18.952
	H354.981c-13.041,0-25.056-7.359-30.678-19.109c-5.658-11.822-8.831-25.068-8.831-39.05c0-22.028,7.865-42.222,20.942-57.917h29.266
	c5.887,0,10.17-5.598,8.65-11.279l-3.788-14.151h0.012c11.424-4.874,24.067-7.467,37.337-7.202
	C455.386,329.969,494.472,368.138,496.498,415.596z"/>
<path style="fill:#90C666;" d="M364.194,458.76c-6.249-12.968-9.482-27.662-8.831-43.163c1.764-41.289,31.581-75.533,70.578-84.377
	c-6.992-1.572-14.28-2.364-21.778-2.215c-47.494,0.965-86.58,39.134-88.607,86.592c-0.651,15.502,2.582,30.195,8.831,43.163
	c5.622,11.69,17.625,18.952,30.593,18.952h39.807C381.819,477.711,369.816,470.448,364.194,458.76z"/>
<path style="fill:#32CE92;" d="M240.571,144.673L271.26,30.07c2.364-8.855,14.935-8.855,17.311,0l81.972,306.136l3.788,14.151
	c1.52,5.682-2.763,11.279-8.65,11.279h-29.266H194.15c-5.887,0-10.182-5.598-8.65-11.279l15.104-56.409L240.571,144.673z"/>
<path style="fill:#24B278;" d="M279.91,24.713c-1.797,0-3.607,2.22-4.174,6.647l-14.79,114.603l-19.265,149.274l-7.286,56.409
	c-0.736,5.682,1.327,11.279,4.174,11.279H194.15c-5.887,0-10.182-5.598-8.65-11.279l15.104-56.409l39.966-149.274L271.26,31.36
	C272.443,26.934,276.182,24.713,279.91,24.713z"/>
<path style="fill:#90C666;" d="M54.283,193.82c0-59.87,41.996-109.923,98.134-122.331c-8.736-1.929-17.809-2.96-27.126-2.96
	C56.095,68.528,0,124.623,0,193.82s56.095,125.292,125.292,125.292c9.313,0,18.379-1.036,27.11-2.964
	C96.272,303.734,54.283,253.685,54.283,193.82z"/>
<polygon style="fill:#C79175;" points="157.03,281.192 134.338,297.03 134.338,250.761 163.935,230.103 157.03,220.211 
	134.338,236.049 134.338,207.889 116.243,207.889 116.243,264.481 77.167,238.163 70.428,248.168 116.243,279.026 116.243,358.372 
	94.661,343.837 87.921,353.842 116.243,372.917 116.243,486.757 134.338,486.757 134.338,311.742 163.935,291.084 "/>
<g>
	<circle style="fill:#FD6568;" cx="416.095" cy="441.524" r="9.048"/>
	<circle style="fill:#FD6568;" cx="362.931" cy="425.238" r="9.048"/>
	<circle style="fill:#FD6568;" cx="388.952" cy="381.809" r="9.048"/>
	<circle style="fill:#FD6568;" cx="440.234" cy="367.333" r="9.048"/>
	<circle style="fill:#FD6568;" cx="457.714" cy="407.143" r="9.048"/>
</g>
<rect x="18.023" y="474.095" style="fill:#808080;" width="493.977" height="14.476"/>
<g>
</g>
<g>
</g>
<g>
</g>
<g>
</g>
<g>
</g>
<g>
</g>
<g>
</g>
<g>
</g>
<g>
</g>
<g>
</g>
<g>
</g>
<g>
</g>
<g>
</g>
<g>
</g>
<g>
</g>
</svg>
