<?xml version="1.0" encoding="iso-8859-1"?>
<!-- Generator: Adobe Illustrator 19.0.0, SVG Export Plug-In . SVG Version: 6.00 Build 0)  -->
<svg version="1.1" id="Capa_1" xmlns="http://www.w3.org/2000/svg" xmlns:xlink="http://www.w3.org/1999/xlink" x="0px" y="0px"
	 viewBox="0 0 512 512" style="enable-background:new 0 0 512 512;" xml:space="preserve">
<path style="fill:#00BA63;" d="M221.471,283.848l-23.697,1.131l-34.785,1.651c-8.296,0-15.011-6.715-15.011-15.011V16.007
	c0-7.245,4.883-13.61,11.888-15.471c1.231-0.32,2.472-0.5,3.693-0.53c5.794-0.15,11.348,2.852,14.32,8.046l2.612,4.553
	c19.954,34.855,32.753,72.712,38.027,112.54l0.03,0.27l16.142,141.821C235.631,275.472,229.706,282.907,221.471,283.848z"/>
<path style="fill:#00A554;" d="M306.821,19.239l-12.219,253.11c-0.39,8.026-7.025,14.28-14.981,14.28c-0.25,0-0.49,0-0.741-0.01
	h-40.959c-8.286-0.3-14.761-7.255-14.46-15.541l0.861-23.977c3.002-82.989,19.374-162.106,48.685-235.168
	c0.871-2.172,2.172-4.123,3.853-5.774l1.071-1.041c4.103-4.013,10.097-5.624,15.651-4.233c0.05,0.01,0.09,0.02,0.14,0.04
	C301.888,3.098,307.242,10.593,306.821,19.239z"/>
<path style="fill:#008B46;" d="M306.821,19.239l-12.219,253.11c-0.39,8.026-7.025,14.28-14.981,14.28c-0.25,0-0.49,0-0.741-0.01
	h-29.191L293.722,0.926C301.888,3.098,307.242,10.593,306.821,19.239z"/>
<path style="fill:#008040;" d="M364.022,183.967v87.652c0,8.296-6.715,15.011-15.011,15.011l-27.119-0.701l-31.102-0.811
	c-8.136-1.581-13.46-9.457-11.878-17.593l34.515-178.127c1.571-8.116,8.436-14.15,16.682-14.67c0.18-0.01,0.37-0.02,0.56-0.03
	c8.016-0.26,15.321,4.803,17.843,12.479C358.808,118.46,364.022,151.033,364.022,183.967z"/>
<path style="fill:#FFCD00;" d="M382.946,312.248l-7.085,55.179l-3.853,30.021l-3.202,24.958l-3.673,28.59
	c-0.05,0.48-0.1,0.951-0.16,1.431c-1.871,16.132-9.467,30.962-21.495,41.95C331.029,505.746,314.887,512,298.025,512h-84.05
	c-16.862,0-33.004-6.254-45.452-17.623c-12.379-11.308-20.064-26.699-21.655-43.381l-17.813-138.749L382.946,312.248
	L382.946,312.248z"/>
<path style="fill:#FFA81F;" d="M382.946,312.248l-7.085,55.179l-3.853,30.021l-3.202,24.958l-3.673,28.59
	c-0.05,0.48-0.1,0.951-0.16,1.431c-1.871,16.132-9.467,30.962-21.495,41.95C331.029,505.746,314.887,512,298.025,512h-42.03V312.248
	L382.946,312.248L382.946,312.248z"/>
<path style="fill:#B28964;" d="M408.674,285.519v27.85c0,15.931-12.969,28.901-28.911,28.901H132.237
	c-15.941,0-28.911-12.969-28.911-28.901v-27.85c0-15.941,12.969-28.911,28.911-28.911h247.526
	C395.705,256.608,408.674,269.578,408.674,285.519z"/>
<path style="fill:#9F7953;" d="M408.674,285.519v27.85c0,15.931-12.969,28.901-28.911,28.901H255.995v-85.661h123.768
	C395.705,256.608,408.674,269.578,408.674,285.519z"/>
<g>
	<path style="fill:#FF4F19;" d="M368.806,422.406l-1.931,15.011l-1.741,13.58c-0.05,0.48-0.1,0.951-0.16,1.431h-83.67
		c-8.286,0-15.011-6.715-15.011-15.011c0-8.286,6.725-15.011,15.011-15.011H368.806z"/>
	<path style="fill:#FF4F19;" d="M375.861,367.427l-1.921,15.011l-1.931,15.011H219.779c-8.296,0-15.011-6.725-15.011-15.011
		c0-8.296,6.715-15.011,15.011-15.011H375.861z"/>
</g>
<g>
</g>
<g>
</g>
<g>
</g>
<g>
</g>
<g>
</g>
<g>
</g>
<g>
</g>
<g>
</g>
<g>
</g>
<g>
</g>
<g>
</g>
<g>
</g>
<g>
</g>
<g>
</g>
<g>
</g>
</svg>
