<?xml version="1.0" encoding="iso-8859-1"?>
<!-- Generator: Adobe Illustrator 19.0.0, SVG Export Plug-In . SVG Version: 6.00 Build 0)  -->
<svg version="1.1" id="Layer_1" xmlns="http://www.w3.org/2000/svg" xmlns:xlink="http://www.w3.org/1999/xlink" x="0px" y="0px"
	 viewBox="0 0 512 512" style="enable-background:new 0 0 512 512;" xml:space="preserve">
<path style="fill:#FDC656;" d="M316.214,358.247c0,24.715-17.559,45.404-40.855,50.257v-21.213c0-0.012,0-0.012,0-0.012v-43.717
	c0-5.783-4.689-10.473-10.473-10.473s-10.473,4.689-10.473,10.473v18.432l-4.108-4.108c-4.096-4.096-10.729-4.096-14.813,0
	c-4.096,4.084-4.096,10.717,0,14.813l18.92,18.921v16.884c-23.296-4.852-40.855-25.541-40.855-50.257
	c0-28.299,23.016-51.327,51.327-51.327c0.803,0,2.607,0.07,2.711,0.07C294.64,308.41,316.214,330.856,316.214,358.247z"/>
<path style="fill:#F85A55;" d="M488.476,355.106c0.768,2.862-0.419,4.98-1.199,5.993c-0.768,1.001-2.513,2.7-5.469,2.7h-75.507
	v-28.264v-0.012v-35.421l25.728-25.728c4.538-4.55,4.538-11.915,0-16.454c-4.55-4.55-11.915-4.55-16.454,0l-9.274,9.274v-32.395
	c0-6.423-5.213-11.636-11.636-11.636c-6.435,0-11.636,5.213-11.636,11.636v60.473c0,0.012,0,0.012,0,0.012v12.148l-18.99-18.979
	c-4.55-4.55-11.915-4.55-16.454,0c-4.55,4.538-4.55,11.904,0,16.454l35.444,35.444v23.447h-43.764
	c0.128-1.839,0.221-3.677,0.221-5.55c0-18.455-6.749-35.362-17.896-48.395l70.713-264.398c1.233-4.631,5.085-5.12,6.679-5.12
	s5.434,0.489,6.679,5.108L488.476,355.106z"/>
<path style="fill:#80D0B5;" d="M273.823,227.945c0,19.432-4.526,38.586-13.126,55.831c-34.978,1.943-63.592,28.09-69.34,61.94
	c-10.065,3.654-20.491,5.981-31.173,6.958v-39.482v-0.012v-44.706l32.453-32.453c4.55-4.538,4.55-11.904,0-16.454
	c-4.55-4.538-11.915-4.538-16.454,0l-16,16v-37.341c0-6.423-5.201-11.636-11.636-11.636c-6.423,0-11.636,5.213-11.636,11.636v65.43
	c0,0,0,0,0,0.012v21.422l-27.95-27.95c-4.538-4.538-11.904-4.538-16.454,0c-4.538,4.55-4.538,11.915,0,16.465l44.404,44.404v34.664
	c-63.638-5.9-113.639-59.577-113.639-124.728c0-69.084,56.203-125.275,125.287-125.275
	C217.632,102.67,273.823,158.861,273.823,227.945z"/>
<path d="M510.957,349.09c2.444,9.134,0.547,18.676-5.213,26.17c-5.76,7.505-14.487,11.811-23.936,11.811h-75.507v84.595h12.835
	c6.423,0,11.636,5.213,11.636,11.636c0,6.435-5.213,11.636-11.636,11.636H98.454c-6.423,0-11.636-5.201-11.636-11.636
	c0-6.423,5.213-11.636,11.636-11.636h38.458v-95.638C60.415,370.07,0,305.931,0,227.945C0,146.038,66.641,79.397,148.559,79.397
	c81.907,0,148.536,66.641,148.536,148.548c0,20.177-4.131,40.122-12.009,58.507c5.923,1.664,11.555,4.049,16.779,7.052
	l67.955-254.065c3.584-13.393,15.302-22.376,29.16-22.376c13.859,0,25.576,8.983,29.16,22.365L510.957,349.09z M487.278,361.098
	c0.78-1.012,1.967-3.13,1.199-5.993L405.661,45.443c-1.245-4.62-5.085-5.108-6.679-5.108c-1.594,0-5.446,0.489-6.679,5.12
	L321.59,309.852c11.147,13.033,17.896,29.94,17.896,48.395c0,1.873-0.093,3.712-0.221,5.55h43.764v-23.447l-35.444-35.444
	c-4.55-4.55-4.55-11.915,0-16.454c4.538-4.55,11.904-4.55,16.454,0l18.99,18.979v-12.148c0,0,0,0,0-0.012v-60.473
	c0-6.423,5.201-11.636,11.636-11.636c6.423,0,11.636,5.213,11.636,11.636v32.395l9.274-9.274c4.538-4.55,11.904-4.55,16.454,0
	c4.538,4.538,4.538,11.904,0,16.454l-25.728,25.728v35.421v0.012v28.264h75.507C484.764,363.798,486.51,362.099,487.278,361.098z
	 M383.029,471.665V387.07h-49.337c-9.995,23.773-31.976,41.309-58.332,45.032v39.563L383.029,471.665L383.029,471.665z
	 M275.359,408.504c23.296-4.852,40.855-25.541,40.855-50.257c0-27.392-21.574-49.838-48.616-51.257c-0.105,0-1.908-0.07-2.711-0.07
	c-28.311,0-51.327,23.028-51.327,51.327c0,24.715,17.559,45.404,40.855,50.257V391.62l-18.92-18.921
	c-4.096-4.096-4.096-10.729,0-14.813c4.084-4.096,10.717-4.096,14.813,0l4.108,4.108v-18.432c0-5.783,4.689-10.473,10.473-10.473
	s10.473,4.689,10.473,10.473v43.717c0,0,0,0,0,0.012V408.504z M260.698,283.776c8.599-17.245,13.126-36.398,13.126-55.831
	c0-69.084-56.191-125.275-125.264-125.275c-69.084,0-125.287,56.191-125.287,125.275c0,65.151,50.001,118.829,113.639,124.728
	v-34.664l-44.404-44.404c-4.538-4.55-4.538-11.915,0-16.465c4.55-4.538,11.915-4.538,16.454,0l27.95,27.95v-21.422
	c0-0.012,0-0.012,0-0.012v-65.43c0-6.423,5.213-11.636,11.636-11.636c6.435,0,11.636,5.213,11.636,11.636v37.341l16-16
	c4.538-4.538,11.904-4.538,16.454,0c4.55,4.55,4.55,11.915,0,16.454l-32.453,32.453v44.706v0.012v39.482
	c10.682-0.977,21.108-3.305,31.173-6.958C197.106,311.865,225.719,285.719,260.698,283.776z M254.414,471.665v-39.563
	c-32.267-4.55-57.948-29.812-63.15-61.858c-10.112,3.037-20.491,4.98-31.08,5.795v95.626H254.414z"/>
<path d="M482.821,471.665c6.435,0,11.636,5.213,11.636,11.636c0,6.435-5.201,11.636-11.636,11.636h-18.536
	c-6.423,0-11.636-5.201-11.636-11.636c0-6.423,5.213-11.636,11.636-11.636H482.821z"/>
<path d="M299.493,109.617c3.98,5.05,3.107,12.369-1.943,16.337c-2.141,1.676-4.678,2.49-7.191,2.49
	c-3.444,0-6.854-1.524-9.158-4.445c-2.292-2.909-4.713-5.795-7.191-8.541c-4.294-4.782-3.91-12.137,0.873-16.442
	c4.771-4.294,12.137-3.91,16.43,0.873C294.128,103.019,296.886,106.3,299.493,109.617z"/>
<path d="M256.846,69.704c5.306,3.63,6.656,10.868,3.025,16.174c-2.257,3.293-5.9,5.062-9.612,5.062c-2.269,0-4.55-0.663-6.563-2.036
	c-28.206-19.328-61.067-29.533-95.021-29.533c-0.047,0-0.081,0-0.116,0c-6.435,0-11.636-5.213-11.636-11.636
	c-0.012-6.423,5.201-11.636,11.625-11.636c0.035,0,0.081,0,0.128,0C187.355,36.099,224.753,47.712,256.846,69.704z"/>
<g>
</g>
<g>
</g>
<g>
</g>
<g>
</g>
<g>
</g>
<g>
</g>
<g>
</g>
<g>
</g>
<g>
</g>
<g>
</g>
<g>
</g>
<g>
</g>
<g>
</g>
<g>
</g>
<g>
</g>
</svg>
