<?xml version="1.0" encoding="iso-8859-1"?>
<!-- Generator: Adobe Illustrator 19.0.0, SVG Export Plug-In . SVG Version: 6.00 Build 0)  -->
<svg version="1.1" id="Capa_1" xmlns="http://www.w3.org/2000/svg" xmlns:xlink="http://www.w3.org/1999/xlink" x="0px" y="0px"
	 viewBox="0 0 512 512" style="enable-background:new 0 0 512 512;" xml:space="preserve">
<ellipse style="fill:#D4D2D3;" cx="256" cy="457.75" rx="179.89" ry="46.748"/>
<path style="fill:#DA5B65;" d="M256.001,467.957c37.134-37.134,71.435-77.577,99.199-122.255
	c51.195-82.384,88.802-205.059,14.719-287.426C341.034,26.16,299.198,7.5,256,7.5s-85.033,18.66-113.919,50.776
	c-74.083,82.367-36.476,205.042,14.719,287.426c27.764,44.678,62.065,85.12,99.199,122.255H256.001z"/>
<path style="fill:#C0344A;" d="M176.801,335.702c-51.195-82.384-88.802-205.06-14.719-287.426
	c10.38-11.541,22.438-21.332,35.623-29.156c-21.059,8.683-40.19,21.997-55.623,39.156c-74.083,82.367-36.476,205.042,14.719,287.426
	c27.764,44.678,62.065,85.12,99.199,122.255h0.001c5.006-5.006,9.955-10.077,14.848-15.205
	C235.699,417.048,203.275,378.305,176.801,335.702z"/>
<circle style="fill:#EFEDEE;" cx="256" cy="157.79" r="118.75"/>
<path style="fill:#D4D2D3;" d="M281,263.539c-65.584,0-118.75-53.166-118.75-118.75c0-40.795,20.575-76.782,51.91-98.16
	c-44.938,16.923-76.91,60.304-76.91,111.16c0,65.584,53.166,118.75,118.75,118.75c24.788,0,47.799-7.599,66.84-20.59
	C309.826,260.85,295.728,263.539,281,263.539z"/>
<path d="M205.386,163.345v-10.518c0-4.143-3.358-7.5-7.5-7.5s-7.5,3.357-7.5,7.5v10.518c0,4.142,3.358,7.5,7.5,7.5
	S205.386,167.486,205.386,163.345z"/>
<path d="M321.615,163.345v-10.518c0-4.143-3.358-7.5-7.5-7.5s-7.5,3.357-7.5,7.5v10.518c0,4.142,3.358,7.5,7.5,7.5
	S321.615,167.486,321.615,163.345z"/>
<path d="M256,176.458c7.754,0,15.04-3.248,19.99-8.91c2.726-3.118,2.408-7.856-0.71-10.583c-3.118-2.727-7.857-2.409-10.583,0.71
	c-2.101,2.403-5.271,3.782-8.697,3.782c-3.426,0-6.596-1.378-8.696-3.782c-2.726-3.119-7.465-3.437-10.583-0.711
	c-3.119,2.726-3.438,7.464-0.711,10.583C240.959,173.211,248.245,176.458,256,176.458z"/>
<path d="M171.928,241.975c-2.738,3.109-2.437,7.848,0.672,10.585c23.049,20.299,52.668,31.478,83.401,31.478
	c69.614,0,126.25-56.635,126.25-126.25S325.615,31.539,256,31.539s-126.25,56.635-126.25,126.25c0,25.349,7.487,49.802,21.65,70.714
	c2.323,3.43,6.986,4.327,10.416,2.004c3.43-2.322,4.327-6.985,2.004-10.415c-12.476-18.42-19.07-39.965-19.07-62.303
	c0-61.343,49.907-111.25,111.25-111.25s111.25,49.906,111.25,111.25S317.344,269.038,256,269.038
	c-27.08,0-53.179-9.85-73.488-27.735C179.405,238.566,174.666,238.867,171.928,241.975z"/>
<path d="M68.613,457.751c0,16.698,19.615,30.261,58.301,40.315C161.489,507.052,207.333,512,256,512s94.511-4.948,129.085-13.934
	c38.686-10.053,58.301-23.617,58.301-40.315c0-28.771-60.734-44.946-122.193-51.111c15.07-18.922,28.482-37.84,40.376-56.979
	c28.409-45.715,47.785-95.68,54.559-140.692c8.665-57.576-2.199-106.584-32.291-145.663c-2.527-3.281-7.236-3.894-10.518-1.366
	c-3.282,2.528-3.894,7.236-1.367,10.519c27.504,35.718,37.376,80.896,29.342,134.278c-6.478,43.039-25.11,90.986-52.466,135.007
	c-13.789,22.189-29.673,44.096-47.932,66.093c-0.074,0.082-0.155,0.155-0.225,0.24c-10.081,12.135-20.993,24.419-32.592,36.697
	c-1.172,1.241-12.476,12.028-12.08,12.532c-3.516-4.481-8.157-8.38-12.075-12.527c-11.601-12.279-22.515-24.565-32.597-36.702
	c-0.071-0.085-0.152-0.159-0.226-0.241c-18.259-21.997-34.143-43.904-47.932-66.092c-28.658-46.116-47.576-96.088-53.269-140.71
	c-7.101-55.649,5.603-101.993,37.756-137.742C175.261,32.601,214.75,15,256,15c35.438,0,69.696,12.982,96.466,36.558
	c3.109,2.738,7.848,2.437,10.585-0.672c2.738-3.108,2.437-7.848-0.671-10.585C332.87,14.312,295.09,0,255.999,0
	c-45.495,0-89.052,19.414-119.494,53.261c-18.413,20.472-31.149,44.45-37.853,71.27c-5.99,23.96-7.211,50.338-3.63,78.401
	c5.96,46.713,25.638,98.823,55.408,146.729c11.895,19.14,25.306,38.058,40.376,56.979
	C129.347,412.806,68.613,428.981,68.613,457.751z M202.266,420.652c9.021,10.738,18.606,21.498,28.771,32.316
	c6.449,6.863,13.001,13.633,19.661,20.292c1.464,1.464,3.384,2.197,5.303,2.197s3.839-0.732,5.303-2.197
	c6.642-6.642,13.181-13.388,19.609-20.237c10.183-10.837,19.785-21.615,28.822-32.371c80.914,6.639,118.652,25.935,118.652,37.099
	c0,3.379-3.85,7.682-10.563,11.806c-8.308,5.104-20.934,9.942-36.512,13.991C347.935,492.223,303.432,497,256,497
	s-91.936-4.777-125.313-13.451c-37.16-9.657-47.074-20.76-47.074-25.797C83.613,446.587,121.351,427.291,202.266,420.652z"/>
<g>
</g>
<g>
</g>
<g>
</g>
<g>
</g>
<g>
</g>
<g>
</g>
<g>
</g>
<g>
</g>
<g>
</g>
<g>
</g>
<g>
</g>
<g>
</g>
<g>
</g>
<g>
</g>
<g>
</g>
</svg>
