<?xml version="1.0" encoding="iso-8859-1"?>
<!-- Generator: Adobe Illustrator 19.0.0, SVG Export Plug-In . SVG Version: 6.00 Build 0)  -->
<svg version="1.1" id="Capa_1" xmlns="http://www.w3.org/2000/svg" xmlns:xlink="http://www.w3.org/1999/xlink" x="0px" y="0px"
	 viewBox="0 0 512 512" style="enable-background:new 0 0 512 512;" xml:space="preserve">
<g>
	<g>
		<path d="M377.297,445.388c10.661-170.739,75.394-305.624,75.394-305.624c-128.167,72.004-151.536,248.798-155.675,320.939
			c5.975-256.505,82.92-440.835,82.92-440.835C228.994,148.246,216.951,399.642,216.733,472.127
			c-2.328-62.767-20.637-256.195-156.217-332.363c0,0,69.358,144.518,76.312,323.729C132.973,415.271,110.993,319.837,0,286.203
			c0,0,57.626,68.643,57.626,205.929h396.748c0-137.286,57.626-205.929,57.626-205.929
			C413.612,316.017,385.175,394.383,377.297,445.388z"/>
	</g>
</g>
<g>
</g>
<g>
</g>
<g>
</g>
<g>
</g>
<g>
</g>
<g>
</g>
<g>
</g>
<g>
</g>
<g>
</g>
<g>
</g>
<g>
</g>
<g>
</g>
<g>
</g>
<g>
</g>
<g>
</g>
</svg>
