<?xml version="1.0" encoding="iso-8859-1"?>
<!-- Generator: Adobe Illustrator 19.0.0, SVG Export Plug-In . SVG Version: 6.00 Build 0)  -->
<svg version="1.1" id="Layer_1" xmlns="http://www.w3.org/2000/svg" xmlns:xlink="http://www.w3.org/1999/xlink" x="0px" y="0px"
	 viewBox="0 0 512 512" style="enable-background:new 0 0 512 512;" xml:space="preserve">
<path style="fill:#FF9013;" d="M402.964,235.48v-16.519c0-30.519-24.741-55.26-55.26-55.26H236.257
	c-25.451,0-46.868,17.211-53.286,40.625L402.964,235.48z"/>
<circle style="fill:#8AC837;" cx="131.458" cy="374.802" r="80.086"/>
<path style="fill:#FF9013;" d="M131.454,410.456c-19.663,0-35.66-15.996-35.66-35.66s15.996-35.66,35.66-35.66
	s35.66,15.996,35.66,35.66S151.116,410.456,131.454,410.456z"/>
<path d="M131.454,421.563c-25.787,0-46.767-20.98-46.767-46.767s20.98-46.767,46.767-46.767s46.767,20.98,46.767,46.767
	S157.241,421.563,131.454,421.563z M131.454,350.245c-13.538,0-24.552,11.014-24.552,24.552c0,13.538,11.014,24.552,24.552,24.552
	s24.552-11.014,24.552-24.552C156.006,361.259,144.99,350.245,131.454,350.245z"/>
<circle style="fill:#8AC837;" cx="437.172" cy="393.551" r="63.713"/>
<path style="fill:#A8DE6C;" d="M374.773,406.477c-0.86-4.174-1.314-8.497-1.314-12.926c0-35.19,28.528-63.717,63.717-63.717
	c15.588,0,29.863,5.606,40.936,14.901v-36.136c0-35.839-26.376-66.212-61.859-71.237l-324.825-46v114.077
	c11.778-6.812,25.441-10.731,40.026-10.731c44.233,0,80.09,35.857,80.09,80.09c0,11.255-2.331,21.963-6.522,31.681h169.751V406.477z
	"/>
<path style="fill:#FF9013;" d="M437.175,417.929c-13.441,0-24.377-10.935-24.377-24.377s10.935-24.377,24.377-24.377
	c13.441,0,24.377,10.935,24.377,24.377C461.553,406.993,450.617,417.929,437.175,417.929z"/>
<path d="M437.175,429.036c-19.566,0-35.484-15.918-35.484-35.484c0-19.567,15.918-35.485,35.484-35.485s35.484,15.918,35.484,35.485
	C472.659,413.118,456.741,429.036,437.175,429.036z M437.175,380.282c-7.317,0-13.269,5.953-13.269,13.27
	c0,7.318,5.953,13.269,13.269,13.269s13.269-5.953,13.269-13.269S444.492,380.282,437.175,380.282z"/>
<path d="M435.231,304.283c-0.721,0-1.455-0.067-2.165-0.211c-0.712-0.144-1.412-0.355-2.077-0.633
	c-0.678-0.278-1.322-0.622-1.922-1.022c-0.611-0.411-1.177-0.878-1.688-1.388c-2.066-2.066-3.256-4.921-3.256-7.853
	c0-0.722,0.078-1.455,0.222-2.166c0.133-0.711,0.355-1.411,0.633-2.077c0.278-0.678,0.622-1.322,1.011-1.922
	c0.411-0.611,0.878-1.177,1.388-1.688c0.511-0.511,1.077-0.977,1.688-1.377c0.6-0.4,1.244-0.744,1.922-1.022
	c0.666-0.278,1.365-0.489,2.077-0.633c1.433-0.289,2.898-0.289,4.331,0c0.712,0.144,1.412,0.355,2.088,0.633
	c0.668,0.278,1.312,0.622,1.912,1.022c0.611,0.4,1.177,0.866,1.688,1.377c0.511,0.511,0.977,1.077,1.377,1.688
	c0.4,0.6,0.744,1.244,1.022,1.922c0.278,0.666,0.5,1.366,0.633,2.077c0.144,0.711,0.221,1.444,0.221,2.166
	c0,2.932-1.187,5.787-3.255,7.853c-0.511,0.511-1.077,0.977-1.688,1.388c-0.6,0.4-1.244,0.744-1.912,1.022
	c-0.676,0.278-1.376,0.489-2.088,0.633C436.687,304.216,435.953,304.283,435.231,304.283z"/>
<path d="M489.218,339.865v-31.266c0-20.009-7.225-39.349-20.344-54.456c-13.119-15.107-31.254-24.973-51.066-27.779l-3.738-0.53
	v-6.873c0-36.595-29.773-66.368-66.368-66.368H236.257c-26.46,0-50.158,15.819-60.658,39.47l-75.128-10.64L54.916,51.066
	c-1.557-4.457-5.764-7.443-10.486-7.443H11.108C4.974,43.623,0,48.596,0,54.73s4.974,11.108,11.108,11.108h25.437l43.786,125.299
	c-0.001,0.076-0.012,0.15-0.012,0.225v107.962c-24.16,16.421-40.063,44.123-40.063,75.473c0,50.286,40.91,91.198,91.198,91.198
	c34.83,0,65.149-19.634,80.505-48.409h154.374c10.036,29.501,37.99,50.792,70.842,50.792c41.259,0,74.825-33.566,74.825-74.824
	C512,372.505,503.253,353.474,489.218,339.865z M236.257,174.809h111.446c24.346,0,44.153,19.807,44.153,44.153v3.728
	l-192.914-27.32C206.884,182.843,220.872,174.809,236.257,174.809z M131.454,443.778c-38.037,0-68.982-30.945-68.982-68.982
	c0-26.074,14.544-48.812,35.943-60.537c0.089-0.049,0.178-0.1,0.267-0.149c0.874-0.474,1.762-0.926,2.658-1.363
	c0.231-0.112,0.464-0.22,0.696-0.33c0.659-0.312,1.324-0.612,1.994-0.903c0.3-0.13,0.599-0.264,0.901-0.39
	c0.792-0.331,1.593-0.645,2.4-0.947c0.428-0.16,0.859-0.31,1.29-0.461c0.459-0.161,0.921-0.318,1.384-0.469
	c0.474-0.156,0.947-0.313,1.425-0.458c0.744-0.225,1.493-0.439,2.247-0.64c0.512-0.137,1.026-0.262,1.542-0.387
	c0.43-0.104,0.861-0.203,1.294-0.3c0.538-0.119,1.074-0.238,1.614-0.344c0.763-0.15,1.53-0.288,2.3-0.412
	c0.431-0.07,0.864-0.131,1.297-0.193c0.656-0.093,1.316-0.178,1.978-0.252c0.309-0.034,0.616-0.076,0.925-0.107
	c0.956-0.094,1.919-0.165,2.887-0.22c0.279-0.016,0.558-0.029,0.836-0.041c1.03-0.046,2.063-0.079,3.103-0.079
	c38.037,0,68.982,30.945,68.982,68.982c0,9.436-1.908,18.433-5.353,26.632c-0.03,0.072-0.057,0.146-0.088,0.219
	C184.502,426.383,159.971,443.778,131.454,443.778z M362.372,395.369H220.319c0.504-2.179,0.919-4.378,1.26-6.591
	c0.01-0.066,0.021-0.131,0.031-0.197c0.215-1.422,0.398-2.851,0.546-4.286c0.014-0.141,0.028-0.283,0.042-0.424
	c0.139-1.411,0.25-2.827,0.324-4.25c0.008-0.141,0.011-0.283,0.018-0.424c0.069-1.462,0.112-2.928,0.112-4.401
	c0-28.381-13.035-53.771-33.428-70.51h212.325c6.134,0,11.108-4.973,11.108-11.108c0-6.135-4.974-11.108-11.108-11.108H102.535
	v-77.918l312.158,44.208c29.822,4.223,52.31,30.12,52.31,60.239v16.339c-0.054-0.023-0.11-0.043-0.163-0.067
	c-1.11-0.481-2.233-0.935-3.369-1.364c-0.004-0.001-0.008-0.003-0.011-0.004c-8.183-3.08-17.037-4.777-26.284-4.777
	c-41.259,0-74.824,33.566-74.824,74.825C362.351,394.158,362.359,394.764,362.372,395.369z M437.175,446.161
	c-27.44,0-50.027-21.12-52.392-47.957c-0.057-0.651-0.116-1.303-0.149-1.956c-0.046-0.893-0.069-1.792-0.069-2.696
	c0-29.01,23.6-52.61,52.609-52.61c0.838,0,1.668,0.024,2.497,0.063c0.349,0.017,0.696,0.046,1.044,0.069
	c0.462,0.031,0.923,0.062,1.382,0.106c0.451,0.042,0.902,0.096,1.352,0.149c0.334,0.04,0.669,0.081,1.001,0.128
	c0.52,0.072,1.037,0.152,1.553,0.241c0.239,0.04,0.477,0.084,0.714,0.128c0.581,0.108,1.161,0.22,1.738,0.348
	c0.133,0.029,0.266,0.062,0.399,0.092c3.421,0.781,6.753,1.906,9.948,3.347c0.257,0.117,0.515,0.228,0.77,0.349
	c0.384,0.181,0.764,0.373,1.144,0.563c0.381,0.191,0.761,0.382,1.136,0.583c0.284,0.151,0.565,0.308,0.848,0.464
	c0.481,0.268,0.96,0.541,1.431,0.824c0.187,0.111,0.372,0.223,0.556,0.338c0.581,0.358,1.156,0.725,1.723,1.105
	c0.083,0.056,0.168,0.111,0.251,0.167c13.944,9.471,23.125,25.457,23.125,43.548C489.785,422.561,466.185,446.161,437.175,446.161z"
	/>
<g>
</g>
<g>
</g>
<g>
</g>
<g>
</g>
<g>
</g>
<g>
</g>
<g>
</g>
<g>
</g>
<g>
</g>
<g>
</g>
<g>
</g>
<g>
</g>
<g>
</g>
<g>
</g>
<g>
</g>
</svg>
