<?xml version="1.0" encoding="iso-8859-1"?>
<!-- Generator: Adobe Illustrator 16.0.0, SVG Export Plug-In . SVG Version: 6.00 Build 0)  -->
<!DOCTYPE svg PUBLIC "-//W3C//DTD SVG 1.1//EN" "http://www.w3.org/Graphics/SVG/1.1/DTD/svg11.dtd">
<svg version="1.1" id="Capa_1" xmlns="http://www.w3.org/2000/svg" xmlns:xlink="http://www.w3.org/1999/xlink" x="0px" y="0px"
	 width="42.009px" height="42.008px" viewBox="0 0 42.009 42.008" style="enable-background:new 0 0 42.009 42.008;"
	 xml:space="preserve">
<g>
	<g>
		<path d="M24.971,20.312c0-2.173-1.764-3.93-3.938-3.93H10.54c-2.173,0-3.925,1.757-3.925,3.93v0.66h18.355V20.312z"/>
		<path d="M41.453,3.626c-0.502-0.646-1.26-1.011-2.079-1.011h-2.698c-1.713,0-3.252,1.13-3.744,2.772l-5.228,16.888H20.45h-4.246
			H6.281c-1.885,0-3.385,1.531-3.385,3.416v1.636c0,0.003-0.016,0.005-0.02,0.008C1.143,28.528,0,30.526,0,32.784
			c0,3.645,2.963,6.609,6.607,6.609c3.644,0,6.608-2.969,6.608-6.613c0-0.137-0.005-0.264-0.014-0.409h3.002h4.246h3.002
			c-0.008,0.146-0.014,0.272-0.014,0.409c0,3.645,2.966,6.611,6.611,6.611c3.645,0,6.608-2.963,6.608-6.608
			c0-2.259-1.146-4.255-2.878-5.447c-0.004-0.002-0.018-0.004-0.018-0.007v-1.635c0-1.814-1.397-3.275-3.185-3.383l3.91-12.498
			h4.394c1.207,0,2.256-0.818,2.553-1.986l0.492-1.936C42.129,5.098,41.955,4.272,41.453,3.626z M6.605,35.721
			c-1.619,0-2.937-1.318-2.937-2.938s1.317-2.938,2.937-2.938c1.62,0,2.937,1.317,2.937,2.938
			C9.542,34.403,8.224,35.721,6.605,35.721z M32.986,32.784c0,1.619-1.316,2.938-2.938,2.938c-1.619,0-2.937-1.318-2.937-2.938
			s1.317-2.938,2.937-2.938S32.986,31.165,32.986,32.784z M38.787,7.06h-3.477l0.26-0.894c0.145-0.484,0.6-0.845,1.105-0.845h2.543
			L38.787,7.06z"/>
	</g>
</g>
<g>
</g>
<g>
</g>
<g>
</g>
<g>
</g>
<g>
</g>
<g>
</g>
<g>
</g>
<g>
</g>
<g>
</g>
<g>
</g>
<g>
</g>
<g>
</g>
<g>
</g>
<g>
</g>
<g>
</g>
</svg>
