<?xml version="1.0" encoding="iso-8859-1"?>
<!-- Generator: Adobe Illustrator 19.0.0, SVG Export Plug-In . SVG Version: 6.00 Build 0)  -->
<svg version="1.1" id="Capa_1" xmlns="http://www.w3.org/2000/svg" xmlns:xlink="http://www.w3.org/1999/xlink" x="0px" y="0px"
	 viewBox="0 0 511.999 511.999" style="enable-background:new 0 0 511.999 511.999;" xml:space="preserve">
<g>
	<g>
		<path d="M394.622,138.838v-0.43c0-21.459-16.173-39.212-36.97-41.712c5.9-7.403,9.101-16.516,9.101-26.121
			c0-11.222-4.37-21.772-12.297-29.699l-0.312-0.312c-7.935-7.935-18.486-12.306-29.707-12.306c-9.743,0-18.98,3.294-26.439,9.356
			C295.794,16.508,277.895,0,256.215,0h-0.43c-21.542,0-39.35,16.299-41.74,37.213c-16.474-12.945-40.464-11.825-55.639,3.349
			l-0.305,0.306c-15.215,15.215-16.296,39.293-3.245,55.77c-21.041,2.267-37.479,20.135-37.479,41.769v0.432
			c0,21.692,16.524,39.596,37.645,41.786c-13.225,16.481-12.198,40.7,3.09,55.99l0.295,0.294
			c7.935,7.935,18.485,12.305,29.707,12.305c9.534,0,18.584-3.155,25.956-8.97c1.882,15.766,12.534,28.872,26.92,34.303v48.524
			H135.56c-8.289,0-15.01,6.72-15.01,15.01s6.72,15.01,15.01,15.01h10.658l15.13,119.515c2.843,22.458,22.057,39.394,44.695,39.394
			h99.914c22.638,0,41.852-16.936,44.695-39.394l15.13-119.515h10.658c8.289,0,15.01-6.72,15.01-15.01s-6.72-15.01-15.01-15.01
			h-105.43v-48.525c14.509-5.479,25.22-18.761,26.966-34.706c7.463,6.073,16.709,9.374,26.461,9.374
			c11.222,0,21.772-4.37,29.716-12.314l0.294-0.295c7.936-7.935,12.306-18.486,12.306-29.707c0-9.696-3.263-18.891-9.268-26.33
			C378.363,178.146,394.622,160.355,394.622,138.838z M255.999,219.749c-44.518,0-80.737-36.218-80.737-80.738
			c0-44.518,36.218-80.735,80.737-80.735s80.737,36.217,80.737,80.735C336.736,183.531,300.517,219.749,255.999,219.749z"/>
	</g>
</g>
<g>
	<g>
		<path d="M256.001,88.297c-27.966,0-50.718,22.752-50.718,50.716c0,27.966,22.752,50.719,50.717,50.719
			c27.966,0,50.718-22.752,50.718-50.719C306.718,111.048,283.966,88.297,256.001,88.297z"/>
	</g>
</g>
<g>
</g>
<g>
</g>
<g>
</g>
<g>
</g>
<g>
</g>
<g>
</g>
<g>
</g>
<g>
</g>
<g>
</g>
<g>
</g>
<g>
</g>
<g>
</g>
<g>
</g>
<g>
</g>
<g>
</g>
</svg>
