<?xml version="1.0" encoding="iso-8859-1"?>
<!-- Generator: Adobe Illustrator 19.0.0, SVG Export Plug-In . SVG Version: 6.00 Build 0)  -->
<svg version="1.1" id="Capa_1" xmlns="http://www.w3.org/2000/svg" xmlns:xlink="http://www.w3.org/1999/xlink" x="0px" y="0px"
	 viewBox="0 0 512.001 512.001" style="enable-background:new 0 0 512.001 512.001;" xml:space="preserve">
<path style="fill:#5EC08B;" d="M238.692,327.534l18.353-136.851c7.503-55.944-6.307-112.664-38.686-158.898l0,0
	C200.28,5.971,164.666-0.239,138.917,17.933l0,0c-31.177,22.002-32.298,67.848-2.234,91.348l0,0
	c27.331,21.364,45.344,52.467,50.271,86.805l18.13,126.348L238.692,327.534z"/>
<path style="opacity:0.15;enable-background:new    ;" d="M238.692,327.534l18.353-136.851
	c7.503-55.944-6.307-112.664-38.686-158.898l0,0C200.28,5.971,164.666-0.239,138.917,17.933l0,0
	c-31.177,22.002-32.298,67.848-2.234,91.348l0,0c27.331,21.364,45.344,52.467,50.271,86.805l18.13,126.348L238.692,327.534z"/>
<path style="fill:#5EC08B;" d="M223.988,346.508l-0.594-184.323c-0.137-42.423,9.993-84.249,29.525-121.908l0,0
	c16.665-32.13,57.567-42.627,87.644-22.493l0,0c33.184,22.213,36.244,69.868,6.174,96.144l0,0
	c-35.01,30.591-59.43,71.486-69.754,116.817l-24.413,107.18L223.988,346.508z"/>
<path style="opacity:0.1;enable-background:new    ;" d="M223.988,346.508l-0.594-184.323
	c-0.137-42.423,9.993-84.249,29.525-121.908l0,0c16.665-32.13,57.567-42.627,87.644-22.493l0,0
	c33.184,22.213,36.244,69.868,6.174,96.144l0,0c-35.01,30.591-59.43,71.486-69.754,116.817l-24.413,107.18L223.988,346.508z"/>
<g>
	<path style="fill:#5EC08B;" d="M289.844,388.274L228.1,214.599c-14.211-39.972-37.881-75.912-68.993-104.754l0,0
		C132.563,85.239,90.52,89.185,69.019,118.3l0,0c-23.722,32.123-10.496,78.006,26.687,92.572l0,0
		c43.289,16.958,80.094,47.192,105.135,86.365l59.204,92.62L289.844,388.274z"/>
	<path style="fill:#5EC08B;" d="M208.934,332.505l56.224-126.11c22.984-51.554,64.514-92.579,116.345-114.931l0,0
		c28.939-12.48,62.511,0.931,74.885,29.914l0,0c14.985,35.094-8.13,74.702-46.055,78.92l0,0
		c-34.477,3.834-66.136,20.851-88.357,47.489l-81.761,98.019L208.934,332.505z"/>
</g>
<path style="opacity:0.1;enable-background:new    ;" d="M304.921,216.258c-1.42,0-2.856-0.403-4.129-1.245
	c-3.456-2.284-4.404-6.936-2.12-10.393c12.876-19.476,29.232-36.666,47.3-49.714c19.971-14.422,41.243-23.467,63.229-26.884
	c4.096-0.631,7.927,2.167,8.563,6.259c0.636,4.094-2.166,7.927-6.259,8.564c-37.69,5.858-75.193,32.045-100.32,70.049
	C309.742,215.076,307.355,216.258,304.921,216.258z"/>
<path style="fill:#9B7E73;" d="M420.343,328.961H67.875c-9.335,0-16.902-7.567-16.902-16.902v-42.478
	c0-9.335,7.567-16.902,16.902-16.902h352.468c9.335,0,16.902,7.567,16.902,16.902v42.478
	C437.244,321.395,429.677,328.961,420.343,328.961z"/>
<path style="opacity:0.1;enable-background:new    ;" d="M96.708,312.06v-42.478c0-9.335,7.567-16.902,16.902-16.902H67.875
	c-9.335,0-16.902,7.567-16.902,16.902v42.478c0,9.335,7.567,16.902,16.902,16.902h45.735
	C104.275,328.961,96.708,321.395,96.708,312.06z"/>
<path style="fill:#9B7E73;" d="M397.628,328.961H90.59l20.448,155.798c1.482,11.295,11.109,19.741,22.501,19.741h221.14
	c11.392,0,21.019-8.446,22.501-19.741L397.628,328.961z"/>
<path style="opacity:0.1;enable-background:new    ;" d="M397.628,328.961H90.59l20.448,155.798
	c1.482,11.295,11.109,19.741,22.501,19.741h221.14c11.392,0,21.019-8.446,22.501-19.741L397.628,328.961z"/>
<path style="opacity:0.1;enable-background:new    ;" d="M397.628,328.961H90.59l20.448,155.798
	c1.483,11.295,11.109,19.741,22.501,19.741h47.239c-11.392,0-21.019-8.446-22.501-19.741l-16.962-129.236h252.826L397.628,328.961z"
	/>
<path style="opacity:0.1;enable-background:new    ;" d="M186.936,228.483c-2.669,0-5.252-1.427-6.608-3.94
	c-20.801-38.567-52.828-66.012-75.864-78.836c-3.619-2.015-4.92-6.581-2.905-10.2c2.014-3.619,6.581-4.922,10.201-2.905
	c24.886,13.854,59.437,43.411,81.77,84.82c1.966,3.646,0.605,8.195-3.041,10.162C189.357,228.194,188.137,228.483,186.936,228.483z"
	/>
<path style="opacity:0.1;enable-background:new    ;" d="M269.17,170.709c-0.256,0-0.514-0.014-0.774-0.04
	c-4.121-0.423-7.118-4.105-6.696-8.227c2.162-21.07,21.172-84.766,37.248-106.014c2.499-3.303,7.203-3.954,10.506-1.456
	c3.303,2.499,3.956,7.203,1.456,10.507c-13.933,18.416-32.304,79.157-34.288,98.494C276.226,167.834,272.968,170.709,269.17,170.709
	z"/>
<path style="opacity:0.1;enable-background:new    ;" d="M207.476,137.395c-3.38,0-6.449-2.302-7.282-5.732
	c-4.227-17.407-25.943-59.795-38.405-71.994c-2.96-2.897-3.01-7.646-0.113-10.606c2.898-2.959,7.646-3.009,10.606-0.112
	c15.738,15.407,37.986,60.632,42.488,79.174c0.978,4.025-1.493,8.08-5.519,9.058C208.657,137.326,208.062,137.395,207.476,137.395z"
	/>
<path d="M463.286,118.433c-6.774-15.865-19.327-28.126-35.346-34.525c-16.021-6.4-33.567-6.163-49.407,0.67
	c-2.129,0.918-4.235,1.877-6.329,2.855c2.854-9.766,3.549-20.176,1.859-30.414c-3.093-18.73-13.509-34.878-29.327-45.467
	c-16.107-10.783-36.114-14.204-54.889-9.385c-18.775,4.818-34.661,17.45-43.585,34.656c-2.498,4.816-4.848,9.707-7.047,14.663
	c-4.425-8.307-9.346-16.339-14.715-24.004c-9.895-14.13-24.704-23.543-41.699-26.507c-16.993-2.962-34.114,0.883-48.209,10.83
	c-14.741,10.402-24.21,25.942-26.664,43.759c-0.565,4.104,2.303,7.888,6.406,8.453c4.107,0.567,7.889-2.303,8.453-6.406
	c1.881-13.655,9.145-25.569,20.454-33.55c10.813-7.632,23.948-10.58,36.983-8.309c13.038,2.273,24.398,9.496,31.99,20.337
	c7.493,10.698,14.042,22.166,19.52,34.115c-10.519,29.45-15.941,60.704-15.84,92.006l0.025,7.7
	c-13.732-24.333-31.2-46.549-51.714-65.565c-14.215-13.178-33.436-19.697-52.735-17.886C92.171,88.269,74.5,98.25,62.985,113.842
	c-12.705,17.203-16.594,38.854-10.67,59.403c5.924,20.549,20.742,36.807,40.654,44.607c17.651,6.914,34.146,16.078,49.258,27.325
	H67.875c-13.455,0-24.401,10.947-24.401,24.401v42.478c0,13.455,10.947,24.4,24.401,24.4H84.01l13.842,105.462
	c0.496,3.776,3.719,6.525,7.427,6.525c0.325,0,0.654-0.021,0.985-0.064c4.107-0.539,6.999-4.306,6.46-8.412L99.138,336.461h244.107
	c4.142,0,7.5-3.358,7.5-7.5c0-4.143-3.358-7.5-7.5-7.5H67.875c-5.184,0-9.402-4.218-9.402-9.401v-42.478
	c0-5.185,4.218-9.402,9.402-9.402h173.739c0.009,0,0.017,0.002,0.025,0.002c0.015,0,0.031-0.002,0.046-0.002h2.794
	c0.013,0,0.025,0.002,0.038,0.002c0.009,0,0.018-0.002,0.027-0.002h175.798c5.184,0,9.402,4.218,9.402,9.402v42.478
	c0,5.184-4.218,9.401-9.402,9.401h-39.14c-4.142,0-7.5,3.357-7.5,7.5c0,4.142,3.358,7.5,7.5,7.5h7.878l-19.336,147.324
	c-0.989,7.534-7.466,13.217-15.065,13.217h-221.14c-7.6,0-14.076-5.683-15.066-13.217l-0.787-5.998
	c-0.539-4.108-4.308-6.991-8.412-6.461c-4.107,0.539-7,4.306-6.46,8.412l0.787,5.998c1.965,14.974,14.835,26.265,29.937,26.265
	h221.14c15.102,0,27.972-11.292,29.937-26.265l19.592-149.275h16.136c13.455,0,24.401-10.946,24.401-24.4v-42.478
	c0-13.455-10.947-24.401-24.401-24.401h-85.913c20.451-20.971,47.344-34.16,76.732-37.428c20.458-2.275,38.142-13.777,48.518-31.555
	C470.054,158.418,471.369,137.365,463.286,118.433z M166.007,245.18c-20.008-17.666-42.718-31.559-67.566-41.292
	c-15.533-6.085-27.091-18.768-31.711-34.796c-4.621-16.029-1.587-32.918,8.323-46.338c8.982-12.162,22.766-19.948,37.82-21.361
	c15.054-1.411,30.047,3.672,41.137,13.951c30.1,27.903,53.277,63.094,67.024,101.767l9.98,28.069H166.007z M243.704,236.098
	l-8.537-24.012c-1.302-3.663-2.688-7.294-4.147-10.895l-0.126-39.03c-0.132-41.044,9.786-81.997,28.683-118.431
	c6.961-13.422,19.353-23.275,33.998-27.033c14.645-3.762,30.25-1.092,42.816,7.32c12.338,8.26,20.461,20.849,22.872,35.446
	c2.319,14.041-1.085,28.477-9.32,39.855c-40.251,24.395-72.219,60.47-91.637,104.024L243.704,236.098z M446.724,168.637
	c-7.959,13.639-21.525,22.462-37.22,24.207c-36.581,4.068-69.71,21.874-93.287,50.139l-1.833,2.197h-58.308l15.931-35.731
	c18.301-41.048,48.523-74.989,86.576-97.816c0.214-0.113,0.423-0.237,0.627-0.372c8.086-4.813,16.514-9.138,25.262-12.911
	c12.152-5.24,25.612-5.422,37.902-0.514c12.29,4.909,21.918,14.315,27.115,26.486C455.692,138.847,454.684,154.997,446.724,168.637z
	 M244.109,425.118c9.836,0,19.189-4.26,25.661-11.688c2.721-3.123,2.396-7.86-0.727-10.582c-3.123-2.721-7.86-2.395-10.582,0.727
	c-3.624,4.158-8.855,6.543-14.354,6.543c-5.499,0-10.73-2.385-14.353-6.542c-2.722-3.124-7.458-3.448-10.582-0.728
	c-3.123,2.721-3.448,7.458-0.728,10.581C224.919,420.859,234.273,425.118,244.109,425.118z M327.496,407.946v-12.598
	c0-4.143-3.358-7.5-7.5-7.5s-7.5,3.357-7.5,7.5v12.598c0,4.143,3.358,7.5,7.5,7.5S327.496,412.088,327.496,407.946z
	 M175.721,407.946v-12.598c0-4.143-3.358-7.5-7.5-7.5s-7.5,3.357-7.5,7.5v12.598c0,4.143,3.358,7.5,7.5,7.5
	S175.721,412.088,175.721,407.946z"/>
<g>
</g>
<g>
</g>
<g>
</g>
<g>
</g>
<g>
</g>
<g>
</g>
<g>
</g>
<g>
</g>
<g>
</g>
<g>
</g>
<g>
</g>
<g>
</g>
<g>
</g>
<g>
</g>
<g>
</g>
</svg>
