<?xml version="1.0" encoding="iso-8859-1"?>
<!-- Generator: Adobe Illustrator 19.0.0, SVG Export Plug-In . SVG Version: 6.00 Build 0)  -->
<svg version="1.1" id="Capa_1" xmlns="http://www.w3.org/2000/svg" xmlns:xlink="http://www.w3.org/1999/xlink" x="0px" y="0px"
	 viewBox="0 0 511.998 511.998" style="enable-background:new 0 0 511.998 511.998;" xml:space="preserve">
<g>
	<g>
		<path d="M337.808,196.925c13.631-19.587,22.196-41.583,25.458-65.375s0.932-47.281-6.925-69.814
			c-7.489-21.476-20.001-41.318-36.185-57.381c-4.036-4.006-9.991-5.383-15.377-3.561c-5.386,1.823-9.278,6.536-10.05,12.17
			l-27.39,199.81c-3.627-0.931-7.427-1.428-11.34-1.428c-3.913,0-7.713,0.496-11.34,1.428L217.268,12.963
			c-0.772-5.634-4.664-10.347-10.05-12.17c-5.385-1.824-11.34-0.445-15.377,3.561c-16.184,16.063-28.696,35.905-36.185,57.381
			c-7.857,22.533-10.187,46.022-6.925,69.814c3.261,23.792,11.826,45.788,25.457,65.375c10.911,15.678,24.932,29.28,40.934,39.823
			c-3.027,6.097-4.738,12.958-4.738,20.213c0,5.105,0.855,10.011,2.41,14.598l-26.454,27.016c-2.746,2.803-4.283,6.57-4.283,10.494
			v40.524h-12.336c-3.978,0-7.793,1.58-10.606,4.394c-2.813,2.813-4.394,6.628-4.394,10.606v105.07
			c0,23.344,18.992,42.336,42.335,42.336c23.343,0,42.334-18.991,42.335-42.336v-105.07c0-8.284-6.716-15-15-15h-12.335v-27.145
			l4.059-11.403l15.34-15.666c7.092,4.547,15.512,7.196,24.545,7.197c9.031-0.001,17.449-2.651,24.541-7.198l15.341,15.668
			l4.058,11.401v27.147h-12.335c-8.284,0-15,6.716-15,15v105.07c0,23.342,18.991,42.333,42.335,42.335
			c23.344,0,42.335-18.991,42.335-42.335V364.594c0-3.979-1.581-7.794-4.394-10.606c-2.813-2.813-6.628-4.394-10.607-4.394h-12.336
			v-40.525c0-3.924-1.537-7.69-4.282-10.494l-26.454-27.018c1.554-4.586,2.41-9.492,2.41-14.596c0-7.256-1.711-14.117-4.738-20.213
			C312.877,226.205,326.898,212.603,337.808,196.925z"/>
	</g>
</g>
<g>
</g>
<g>
</g>
<g>
</g>
<g>
</g>
<g>
</g>
<g>
</g>
<g>
</g>
<g>
</g>
<g>
</g>
<g>
</g>
<g>
</g>
<g>
</g>
<g>
</g>
<g>
</g>
<g>
</g>
</svg>
