<?xml version="1.0" encoding="iso-8859-1"?>
<!-- Generator: Adobe Illustrator 19.0.0, SVG Export Plug-In . SVG Version: 6.00 Build 0)  -->
<svg version="1.1" id="Capa_1" xmlns="http://www.w3.org/2000/svg" xmlns:xlink="http://www.w3.org/1999/xlink" x="0px" y="0px"
	 viewBox="0 0 512.001 512.001" style="enable-background:new 0 0 512.001 512.001;" xml:space="preserve">
<path style="fill:#C27C59;" d="M108.145,490.725l48.2,12.915c13.247,3.549,26.862-4.312,30.412-17.558L230.3,323.578
	c3.55-13.247-4.312-26.862-17.558-30.412l-48.2-12.915c-13.247-3.55-26.862,4.312-30.412,17.558L90.587,460.313
	C87.037,473.56,94.899,487.176,108.145,490.725z"/>
<path style="fill:#FFB655;" d="M125.378,339.506l96.169,25.768l11.172-41.695c3.55-13.247-4.312-26.862-17.558-30.412l-48.2-12.915
	c-13.247-3.55-26.862,4.312-30.412,17.558L125.378,339.506z"/>
<path style="fill:#596675;" d="M312.207,17.891l-43.852,163.656c-3.129,11.677-11.885,21.016-23.335,24.892l-17.8,6.025
	c-27.127,9.182-47.873,31.311-55.284,58.974l-2.699,10.072l38.806,10.398l1.429-5.332c3.948-14.733,15.505-26.21,30.264-30.055
	l48.728-12.697c33.426-8.71,59.597-34.701,68.538-68.066l21.942-81.89c10.024-37.408-12.176-75.858-49.584-85.88l0,0
	C321.89,5.985,314.209,10.42,312.207,17.891z"/>
<path style="fill:#C27C59;" d="M403.856,490.725l-48.2,12.915c-13.247,3.549-26.862-4.312-30.412-17.558l-43.543-162.503
	c-3.55-13.247,4.312-26.862,17.558-30.412l48.2-12.915c13.247-3.55,26.862,4.312,30.412,17.558l43.543,162.503
	C424.963,473.56,417.102,487.176,403.856,490.725z"/>
<path style="fill:#FFB655;" d="M389.043,339.506l-96.17,25.768l-11.172-41.695c-3.55-13.247,4.312-26.862,17.558-30.412l48.2-12.915
	c13.247-3.55,26.862,4.312,30.412,17.558L389.043,339.506z"/>
<path style="opacity:0.1;enable-background:new    ;" d="M422.163,464.595c-73.97,41.372-106.979-127.546-119.548-172.327
	l-3.355,0.899c-13.247,3.549-21.107,17.165-17.558,30.412l43.543,162.503c3.55,13.247,17.165,21.107,30.412,17.558l48.2-12.915
	C415.674,487.558,423.198,476.378,422.163,464.595z"/>
<path style="opacity:0.1;enable-background:new    ;" d="M291.003,194.076l-17.801-6.025c-2.197-0.743-4.17-1.921-5.839-3.424
	c-3.746,10.223-11.921,18.285-22.342,21.812l-17.8,6.025c-18.326,6.203-33.732,18.32-44.09,34.055
	c10.693,7.239,22.659,12.744,35.509,16.092l5.743,1.496c4.479-3.489,9.675-6.107,15.354-7.586l48.728-12.697
	c16.588-4.322,31.385-12.904,43.18-24.527C320.4,208.052,306.575,199.346,291.003,194.076z"/>
<path style="fill:#8090A0;" d="M199.793,17.891l43.852,163.656c3.129,11.677,11.885,21.016,23.335,24.892l17.8,6.025
	c27.127,9.182,47.873,31.311,55.284,58.974l2.699,10.072l-38.806,10.398l-1.429-5.332c-3.948-14.733-15.505-26.21-30.264-30.055
	l-48.728-12.697c-33.426-8.71-59.597-34.701-68.538-68.066l-21.942-81.89c-10.024-37.408,12.176-75.858,49.584-85.88l0,0
	C190.111,5.985,197.791,10.42,199.793,17.891z"/>
<circle style="fill:#FFFFFF;" cx="256.003" cy="227.664" r="7.329"/>
<path style="opacity:0.1;enable-background:new    ;" d="M340.064,271.439c-1.486-5.543-3.515-10.86-6.015-15.899
	c-53.376-7.537-97.851-26.436-120.234-53.145C193.606,178.28,157.299,66.206,157.735,20.35
	c-21.577,16.793-32.201,45.449-24.679,73.519l21.942,81.891c8.94,33.364,35.112,59.356,68.537,68.066l48.728,12.697
	c14.76,3.846,26.316,15.323,30.264,30.055l1.429,5.332l38.806-10.398L340.064,271.439z"/>
<path style="opacity:0.1;enable-background:new    ;" d="M164.937,280.357l-0.395-0.106c-13.247-3.55-26.862,4.312-30.412,17.558
	L90.587,460.313c-3.549,13.247,4.312,26.862,17.558,30.412l48.2,12.915c12.414,3.326,25.151-3.368,29.625-15.125
	C114.309,478.207,149.329,331.455,164.937,280.357z"/>
<path d="M428.657,458.372l-4.17-15.563c-1.071-4.001-5.183-6.378-9.186-5.303c-4.001,1.071-6.375,5.185-5.303,9.186l4.17,15.563
	c2.474,9.232-3.024,18.753-12.256,21.227l-48.199,12.915c-4.47,1.2-9.142,0.584-13.152-1.731c-4.009-2.314-6.877-6.052-8.075-10.524
	l-43.543-162.503c-2.474-9.231,3.024-18.753,12.256-21.227l48.2-12.915c4.473-1.2,9.144-0.583,13.151,1.731
	c4.009,2.315,6.877,6.052,8.075,10.524l29.778,111.134c1.071,4.001,5.184,6.377,9.185,5.303c4.001-1.072,6.375-5.185,5.303-9.186
	L385.113,295.87c-2.234-8.343-7.584-15.315-15.063-19.632c-6.712-3.876-14.416-5.189-21.956-3.802l-0.787-2.938
	c-3.71-13.847-10.464-26.385-19.538-36.872c17.783-13.809,30.605-33.013,36.476-54.925l21.944-81.891
	c11.078-41.343-13.545-83.99-54.886-95.066c-11.462-3.071-23.271,3.752-26.339,15.207l-43.851,163.655
	c-1.009,3.766-2.749,7.221-5.114,10.232c-2.335-2.989-4.097-6.448-5.111-10.232L207.037,15.95
	c-1.486-5.549-5.045-10.187-10.021-13.059c-4.974-2.872-10.77-3.638-16.319-2.148c-41.342,11.077-65.964,53.724-54.886,95.066
	l2.636,9.837c1.072,4.001,5.182,6.377,9.186,5.303c4.001-1.071,6.375-5.185,5.303-9.186l-2.636-9.837
	c-8.936-33.353,10.928-67.759,44.281-76.696c3.465-0.929,7.04,1.137,7.969,4.602L236.4,183.488
	c3.786,14.13,14.319,25.364,28.175,30.056l17.8,6.024c10.829,3.665,20.523,9.565,28.575,17.152c0.165,0.172,0.332,0.339,0.51,0.493
	c10.132,9.724,17.602,22.146,21.359,36.165l0.758,2.828l-24.383,6.533c-5.1-16.387-18.347-29.128-35.04-33.477l-16.338-4.257
	c-0.012-0.003-0.024-0.007-0.036-0.01l-32.354-8.431c-30.749-8.013-54.96-32.057-63.184-62.749l-9.329-34.816
	c-1.071-4.001-5.184-6.379-9.186-5.303c-4.001,1.071-6.375,5.185-5.303,9.186l9.329,34.816
	c5.928,22.122,18.964,41.283,36.509,54.929c-9.205,10.628-15.914,23.216-19.57,36.869l-0.787,2.938
	c-7.538-1.385-15.244-0.074-21.956,3.802c-7.479,4.318-12.829,11.29-15.063,19.631L83.343,458.372
	c-4.615,17.22,5.641,34.983,22.86,39.598l48.199,12.915c2.786,0.747,5.612,1.116,8.422,1.116c5.602,0,11.132-1.47,16.113-4.346
	c7.48-4.318,12.829-11.29,15.063-19.631l43.543-162.503c4.38-16.342-4.637-33.163-20.284-38.782
	c3.668-11.244,12.849-19.959,24.37-22.96l14.372-3.745l14.374,3.745c11.521,3.001,20.701,11.716,24.369,22.959
	c-15.647,5.619-24.663,22.44-20.284,38.782L318,488.021c2.234,8.343,7.584,15.314,15.063,19.632
	c4.983,2.876,10.512,4.346,16.113,4.346c2.809,0,5.636-0.369,8.422-1.116l48.199-12.915
	C423.017,493.355,433.273,475.592,428.657,458.372z M287.184,205.36l-17.8-6.024c-0.461-0.156-0.912-0.331-1.362-0.509
	c3.497-4.525,6.069-9.706,7.579-15.339l43.851-163.655c0.929-3.467,4.51-5.528,7.969-4.602
	c33.353,8.937,53.217,43.343,44.281,76.696l-21.942,81.89c-5.196,19.392-16.768,36.297-32.814,48.181
	C308.265,214.777,298.219,209.094,287.184,205.36z M223.055,321.637l-43.543,162.504c-1.198,4.472-4.066,8.209-8.075,10.523
	c-4.011,2.315-8.681,2.928-13.152,1.731l-48.199-12.915c-9.231-2.474-14.729-11.996-12.256-21.227l43.543-162.504
	c1.198-4.472,4.066-8.209,8.075-10.523c4.009-2.315,8.681-2.927,13.151-1.731l48.2,12.915
	C220.031,302.884,225.529,312.406,223.055,321.637z M202.806,282.741l-24.383-6.533l0.758-2.827
	c3.233-12.066,9.305-23.145,17.676-32.351c7.702,4.358,16.015,7.768,24.787,10.053l6.685,1.742
	C216.199,258.829,206.891,269.614,202.806,282.741z"/>
<g>
</g>
<g>
</g>
<g>
</g>
<g>
</g>
<g>
</g>
<g>
</g>
<g>
</g>
<g>
</g>
<g>
</g>
<g>
</g>
<g>
</g>
<g>
</g>
<g>
</g>
<g>
</g>
<g>
</g>
</svg>
