<?xml version="1.0" encoding="iso-8859-1"?>
<!-- Generator: Adobe Illustrator 19.0.0, SVG Export Plug-In . SVG Version: 6.00 Build 0)  -->
<svg version="1.1" id="Capa_1" xmlns="http://www.w3.org/2000/svg" xmlns:xlink="http://www.w3.org/1999/xlink" x="0px" y="0px"
	 viewBox="0 0 511.999 511.999" style="enable-background:new 0 0 511.999 511.999;" xml:space="preserve">
<g>
	<path style="fill:#F985AC;" d="M91.986,293.583c-42.048-15.304-71.642-45.441-81.196-82.68
		c-8.589-33.481-0.137-67.951,23.188-94.573c20.371-23.25,53.593-30.803,84.914-19.403c0.371,0.135,0.739,0.272,1.11,0.412
		c16.035,6.076,29.771,16.481,39.722,30.092c10.921,14.939,16.644,33.074,16.55,52.447l-34.563-0.166
		c0.132-27.368-17.454-43.799-33.955-50.051c-0.225-0.085-0.449-0.169-0.674-0.25c-17.811-6.483-36.238-2.712-47.109,9.696
		c-15.692,17.91-21.415,40.947-15.705,63.208c6.675,26.021,28.376,47.45,59.538,58.792L91.986,293.583z"/>
	<path style="fill:#F985AC;" d="M335.749,285.895c14.924-11.316,72.062-61.55,120.334-54.529l0.61-48.2
		c-32.614-1.98-117.048,16.38-131.792,21.391L335.749,285.895z"/>
</g>
<path style="fill:#B5E489;" d="M493.208,249.486l-37.931-6.859c-3.714-0.672-6.615-3.586-7.271-7.303l-9.328-52.9
	c-0.655-3.717,1.075-7.448,4.335-9.349l33.297-19.419c5.763-3.361,13.111,0.046,14.269,6.616l13.774,78.116
	C505.513,244.959,499.773,250.673,493.208,249.486z"/>
<path style="opacity:0.1;enable-background:new    ;" d="M479.151,152.57c-0.966,0.207-1.924,0.552-2.841,1.086l-33.297,19.419
	c-3.26,1.901-4.99,5.632-4.335,9.349l9.328,52.9c0.655,3.717,3.557,6.631,7.271,7.303l23.504,4.25
	C451.43,216.657,468.265,168.574,479.151,152.57z"/>
<path style="fill:#FFA6BB;" d="M295.307,419.186L64.23,335.081c-10.714-3.9-15.225-16.594-9.374-26.38l90.684-151.664
	c6.693-11.194,20.39-16.061,32.646-11.6l151.725,55.224c12.256,4.461,19.62,16.993,17.552,29.871l-28.019,174.472
	C317.636,416.261,306.021,423.086,295.307,419.186z"/>
<path style="fill:#F985AC;" d="M333.094,320.004l-234.058-85.19l-7.54,12.61l239.268,87.086L333.094,320.004z M328.498,348.628
	L84.159,259.696l-7.54,12.61l249.549,90.828L328.498,348.628z"/>
<path style="fill:#B5E489;" d="M319.444,405.003l3.292-20.5L65.511,290.881l-10.655,17.82c-5.851,9.786-1.341,22.48,9.374,26.38
	l231.077,84.105C306.021,423.086,317.636,416.261,319.444,405.003z"/>
<path style="fill:#FFFFFF;" d="M223.373,257.333c12.948,4.713,27.264-1.963,31.977-14.911c4.568-12.551-1.832-29.874-6.211-39.361
	c-1.855-4.019-6.614-5.751-10.618-3.865c-9.453,4.452-25.49,13.609-30.059,26.16C203.749,238.304,210.425,252.621,223.373,257.333z"
	/>
<path style="opacity:0.1;enable-background:new    ;" d="M203.333,154.591l-25.147-9.153c-12.256-4.461-25.953,0.406-32.646,11.6
	L54.856,308.702c-5.851,9.786-1.341,22.48,9.374,26.38l128.895,46.914C134.299,326.381,180.035,196.433,203.333,154.591z"/>
<path d="M511.74,237.086l-13.774-78.114c-0.969-5.499-4.572-10.185-9.638-12.534c-5.067-2.348-10.972-2.072-15.796,0.741
	l-33.297,19.419c-3.841,2.239-6.523,5.908-7.625,10.05c-31.309,3.064-74.534,11.8-97.562,17.586
	c-0.517-0.217-1.04-0.425-1.572-0.618l-106.772-38.862c-3.892-1.412-8.197,0.59-9.613,4.482c-1.416,3.893,0.59,8.196,4.483,9.613
	l106.772,38.862c0.81,0.295,1.579,0.654,2.327,1.042c0.042,0.023,0.084,0.044,0.126,0.066c7.365,3.89,11.61,12.113,10.258,20.525
	l-23.288,145.008L76.607,286.939l75.37-126.051c4.839-8.093,14.78-11.627,23.644-8.401l7.42,2.7
	c3.892,1.418,8.196-0.591,9.612-4.483c1.417-3.893-0.591-8.196-4.483-9.612l-7.419-2.7c-2.212-0.805-4.462-1.362-6.72-1.7
	c-2.366-4.82-5.128-9.41-8.254-13.686c-10.812-14.787-25.722-26.088-43.116-32.677c-0.4-0.152-0.797-0.3-1.206-0.449
	c-34.212-12.452-70.763-4.009-93.12,21.509C3.355,139.898-5.688,176.849,3.526,212.765c7.644,29.796,27.429,55.623,56.05,73.43
	l-0.442,0.738c-0.008,0.012-0.015,0.025-0.022,0.037l-10.692,17.882c-3.941,6.591-4.727,14.52-2.156,21.756
	c2.571,7.237,8.185,12.895,15.402,15.521l177.8,64.713c0.847,0.308,1.712,0.454,2.564,0.454c3.063,0,5.94-1.892,7.048-4.936
	c1.416-3.893-0.59-8.196-4.483-9.613L66.795,328.034c-2.998-1.091-5.33-3.441-6.397-6.447c-1.068-3.005-0.741-6.299,0.896-9.036
	l7.475-12.502l245.58,89.383l-2.31,14.383c-0.506,3.149-2.373,5.882-5.122,7.498c-2.751,1.616-6.045,1.919-9.044,0.826
	l-16.589-6.038c-3.893-1.414-8.197,0.591-9.613,4.482c-1.417,3.893,0.59,8.196,4.482,9.613l16.589,6.038
	c2.859,1.041,5.831,1.555,8.79,1.555c4.509,0,8.986-1.195,12.983-3.544c6.621-3.891,11.116-10.47,12.334-18.052l3.302-20.559
	c0.003-0.021,0.007-0.042,0.01-0.063l15.758-98.119l0.004-0.003c17.724-14.066,57.993-46.002,95.143-48.999
	c1.757,5.901,6.726,10.444,12.878,11.556l37.931,6.859c1.012,0.184,2.027,0.273,3.038,0.273c4.477,0,8.828-1.763,12.058-4.978
	C510.926,248.222,512.71,242.586,511.74,237.086z M85.03,243.625c-17.322-11.012-29.124-26.132-33.496-43.175
	c-5.086-19.825,0.046-40.384,14.08-56.402c8.779-10.018,24.049-12.996,38.923-7.583l0.563,0.209
	c4.998,1.894,21.128,9.366,26.985,28.255L85.03,243.625z M67.275,273.318c-25.199-15.752-42.568-38.35-49.221-64.28
	c-7.964-31.047-0.105-63.036,21.564-87.767c18.248-20.827,48.358-27.616,76.699-17.301c0.342,0.125,0.682,0.251,1.026,0.382
	c14.672,5.559,27.233,15.069,36.325,27.504c1.471,2.012,2.829,4.121,4.105,6.29c-6.243,2.112-11.884,5.984-16.116,11.34
	c-6.763-12.123-17.736-21.721-31.25-26.841c-0.26-0.099-0.521-0.196-0.762-0.283c-20.714-7.54-42.427-2.908-55.316,11.801
	c-17.348,19.8-23.663,45.319-17.328,70.013c5.362,20.903,19.562,39.261,40.314,52.344L67.275,273.318z M349.407,265.728
	l5.461-34.007c1.485-9.246-0.861-18.372-5.986-25.593c22.412-5.092,57.359-11.896,83.802-14.516l5.644,32.008
	C404.81,226.956,370.924,249.476,349.407,265.728z M496.386,241.532c-0.288,0.287-0.911,0.736-1.843,0.574l-37.931-6.859
	c-0.62-0.112-1.11-0.604-1.22-1.226l-9.131-51.781c-0.002-0.01-0.004-0.019-0.005-0.029l-0.192-1.09
	c-0.109-0.62,0.183-1.25,0.728-1.567l33.297-19.419c0.371-0.217,0.728-0.29,1.039-0.29c0.376,0,0.689,0.107,0.89,0.2
	c0.369,0.171,1.012,0.597,1.177,1.53l13.774,78.114C497.133,240.624,496.674,241.245,496.386,241.532z"/>
<g>
</g>
<g>
</g>
<g>
</g>
<g>
</g>
<g>
</g>
<g>
</g>
<g>
</g>
<g>
</g>
<g>
</g>
<g>
</g>
<g>
</g>
<g>
</g>
<g>
</g>
<g>
</g>
<g>
</g>
</svg>
