<?xml version="1.0" encoding="utf-8"?>
<!-- Generator: Adobe Illustrator 22.1.0, SVG Export Plug-In . SVG Version: 6.00 Build 0)  -->
<svg version="1.1" id="Layer_1" xmlns="http://www.w3.org/2000/svg" xmlns:xlink="http://www.w3.org/1999/xlink" x="0px" y="0px"
	 viewBox="0 0 13 16" style="enable-background:new 0 0 13 16;" xml:space="preserve">
<style type="text/css">
	.st0{fill:#0C8D75;}
	.st1{fill:#F5F3EF;}
	.st2{fill:#0CB175;}
	.st3{fill:#FFFFFF;}
</style>
<g>
	<path class="st0" d="M5.795,13.039l0.05-0.034c2.55-1.531,4.611-5.183,4.603-8.177c-0.004-1.497-0.524-2.55-1.362-3.046
		c0.48,0.284,0.96,0.569,1.441,0.853c0.838,0.496,1.358,1.549,1.362,3.046c0.008,2.994-2.052,6.646-4.603,8.177l-0.05,0.034
		c-1.296,0.762-2.471,0.832-3.32,0.329c-0.24-0.142-0.48-0.284-0.72-0.426c-0.24-0.142-0.48-0.284-0.72-0.426
		C3.324,13.87,4.499,13.801,5.795,13.039z"/>
	<path class="st0" d="M5.761,0.808l0.05-0.03c1.587-0.917,3.022-0.996,4.062-0.381c0.48,0.284,0.96,0.569,1.441,0.853
		c-1.04-0.616-2.476-0.536-4.062,0.381l-0.05,0.03C4.01,3.538,1.43,8.089,1.441,11.826c0.005,1.856,0.649,3.162,1.686,3.777
		c-0.48-0.284-0.96-0.568-1.441-0.853C0.649,14.135,0.005,12.829,0,10.973C-0.01,7.236,2.569,2.685,5.761,0.808z"/>
	<path class="st1" d="M7.252,1.631C10.421-0.201,12.99,1.31,13,5.027c0.01,3.717-2.541,8.239-5.71,10.134l-0.05,0.032
		c-3.192,1.877-5.788,0.37-5.799-3.366C1.43,8.089,4.01,3.538,7.201,1.661L7.252,1.631z M7.236,13.892l0.05-0.034
		c2.55-1.531,4.611-5.183,4.603-8.177C11.88,2.686,9.806,1.466,7.255,2.934l-0.05,0.027C4.63,4.476,2.543,8.158,2.552,11.172
		C2.56,14.187,4.661,15.406,7.236,13.892L7.236,13.892z"/>
	<path class="st2" d="M3.492,13.887c0.851,0.61,2.082,0.591,3.451-0.214l0.052-0.035c2.527-1.519,4.569-5.139,4.56-8.106
		c-0.004-1.585-0.596-2.663-1.529-3.107c-0.774-0.233-1.731-0.089-2.772,0.51l-0.05,0.027C4.63,4.476,2.543,8.158,2.552,11.172
		C2.555,12.396,2.908,13.318,3.492,13.887z"/>
</g>
<path class="st3" d="M9,8.456c0-0.56-0.161-0.903-0.477-1.033c-0.13-0.052-0.39-0.06-0.775-0.046V5.938
	C7.965,5.886,8.12,6,8.219,6.286l0.719-1.015c-0.229-0.578-0.626-0.746-1.19-0.505V4L7.333,4.248v0.749
	c-0.347,0.25-0.638,0.605-0.88,1.05C6.217,6.489,6.099,6.964,6.099,7.473c0.025,0.674,0.205,0.981,0.539,1.074
	c0.248,0.068,0.384,0.072,0.676,0.045l0.012,0.001c0,0,0,0,0.006-0.004v1.49c-0.328,0.136-0.558,0.005-0.688-0.373L5.907,10.74
	c0.217,0.672,0.731,0.856,1.425,0.511V12l0.415-0.248v-0.758C8.492,10.421,9,9.464,9,8.456z M6.949,6.975
	c0-0.301,0.136-0.598,0.384-0.815v1.206C7.054,7.334,6.949,7.225,6.949,6.975z M7.748,8.574C8.021,8.583,8.145,8.69,8.145,8.975
	c0,0.319-0.13,0.603-0.397,0.84V8.574z"/>
</svg>
