<?xml version="1.0" encoding="utf-8"?>
<!-- Generator: Adobe Illustrator 22.1.0, SVG Export Plug-In . SVG Version: 6.00 Build 0)  -->
<svg version="1.1" id="Layer_1" xmlns="http://www.w3.org/2000/svg" xmlns:xlink="http://www.w3.org/1999/xlink" x="0px" y="0px"
	 viewBox="0 0 16 13" style="enable-background:new 0 0 16 13;" xml:space="preserve">
<style type="text/css">
	.st0{fill:#FAFAFA;}
	.st1{fill:#EEEEEE;}
	.st2{fill:#EF5350;}
	.st3{fill:#BDBDBD;}
	.st4{fill:#4DD0E1;}
	.st5{fill:#4E352E;}
	.st6{fill:#FBCBBD;}
	.st7{fill:#F8AA92;}
	.st8{fill:#EF9A9B;}
	.st9{fill:#F58967;}
	.st10{fill:#212121;}
	.st11{fill:#424242;}
	.st12{fill:#9CCC65;}
	.st13{fill:#E64A19;}
	.st14{fill:#F5F5F5;}
	.st15{fill:#616161;}
</style>
<g>
	<g>
		<g>
			<polygon class="st0" points="12.391,4.228 12.391,6.436 16,5.309 16,3.121 			"/>
			<polygon class="st1" points="16,3.121 12.391,4.228 12.391,3.996 16,2.891 			"/>
			<polygon class="st2" points="12.683,4.14 12.391,4.228 12.391,3.996 12.683,3.908 			"/>
		</g>
		<g>
			<polygon class="st3" points="14.545,4.469 13.973,4.646 13.973,4.739 14.545,4.562 			"/>
			<polygon class="st3" points="15.153,4.28 14.648,4.437 14.648,4.53 15.153,4.373 			"/>
			<polygon class="st3" points="15.255,4.249 15.255,4.341 15.592,4.236 15.592,4.144 			"/>
			<polygon class="st3" points="14.172,4.776 13.973,4.837 13.973,4.93 14.172,4.869 			"/>
			<polygon class="st3" points="14.274,4.837 14.808,4.671 14.808,4.579 14.274,4.744 			"/>
			<polygon class="st3" points="14.91,4.639 15.277,4.525 15.277,4.433 14.91,4.547 			"/>
			<polygon class="st3" points="15.379,4.493 15.592,4.427 15.592,4.334 15.379,4.401 			"/>
			<polygon class="st3" points="14.808,4.026 13.973,4.284 13.973,4.534 14.808,4.276 			"/>
			<polygon class="st3" points="14.362,4.908 13.973,5.029 13.973,5.122 14.362,5.001 			"/>
			<polygon class="st3" points="14.464,4.969 15.225,4.732 15.225,4.639 14.464,4.877 			"/>
			<polygon class="st3" points="15.328,4.7 15.592,4.617 15.592,4.525 15.328,4.607 			"/>
			<polygon class="st3" points="13.973,5.313 14.527,5.141 14.527,5.048 13.973,5.22 			"/>
			<polygon class="st3" points="14.63,5.109 15.118,4.957 15.118,4.864 14.63,5.016 			"/>
		</g>
		<g>
			<path class="st4" d="M13.732,4.879c0,0.281-0.206,0.572-0.46,0.651c-0.254,0.078-0.46-0.087-0.46-0.368
				c0-0.282,0.206-0.573,0.46-0.65C13.526,4.433,13.732,4.598,13.732,4.879z"/>
			<g>
				<path class="st5" d="M13.272,4.691L13.272,4.691c-0.121,0.037-0.22,0.176-0.22,0.31v0.187c0,0.134,0.098,0.213,0.22,0.176l0,0
					c0.121-0.037,0.22-0.176,0.22-0.311V4.867C13.491,4.733,13.393,4.654,13.272,4.691z"/>
				<polygon class="st6" points="13.319,5.258 13.224,5.287 13.224,5.149 13.319,5.119 				"/>
				<path class="st7" d="M13.224,5.23c0.015,0,0.031-0.003,0.048-0.008l0,0c0.017-0.005,0.033-0.012,0.048-0.021V5.123l-0.096,0.029
					V5.23z"/>
				<path class="st6" d="M13.418,4.902c0,0.027,0.02,0.042,0.044,0.035c0.024-0.007,0.044-0.035,0.044-0.062
					c0-0.027-0.02-0.042-0.044-0.035C13.438,4.848,13.418,4.875,13.418,4.902z"/>
				<path class="st7" d="M13.437,4.896c0,0.015,0.011,0.024,0.024,0.02c0.013-0.004,0.024-0.02,0.024-0.035
					c0-0.015-0.011-0.024-0.024-0.02C13.448,4.866,13.437,4.881,13.437,4.896z"/>
				<path class="st6" d="M13.125,4.992c0,0.027-0.02,0.054-0.044,0.062c-0.024,0.007-0.044-0.008-0.044-0.035
					s0.02-0.054,0.044-0.062C13.106,4.95,13.125,4.965,13.125,4.992z"/>
				<path class="st7" d="M13.106,4.998c0,0.015-0.011,0.03-0.024,0.035c-0.013,0.004-0.024-0.005-0.024-0.02
					c0-0.015,0.011-0.03,0.024-0.035C13.095,4.974,13.106,4.983,13.106,4.998z"/>
				<path class="st6" d="M13.272,4.728L13.272,4.728c-0.105,0.032-0.19,0.153-0.19,0.269v0.049c0,0.116,0.085,0.184,0.19,0.152l0,0
					c0.105-0.032,0.19-0.153,0.19-0.269V4.88C13.462,4.764,13.377,4.695,13.272,4.728z"/>
				<path class="st8" d="M13.37,4.966c0,0.01,0.007,0.015,0.016,0.012c0.009-0.003,0.016-0.013,0.016-0.022
					c0-0.01-0.007-0.015-0.016-0.012C13.377,4.946,13.37,4.956,13.37,4.966z"/>
				<path class="st9" d="M13.292,5.004c0-0.012-0.009-0.088-0.02-0.084c-0.011,0.003-0.02,0.084-0.02,0.097s0.009,0.02,0.02,0.016
					C13.283,5.03,13.292,5.017,13.292,5.004z"/>
				<path class="st10" d="M13.205,4.952c0,0.019-0.014,0.039-0.031,0.044c-0.017,0.005-0.031-0.006-0.031-0.025
					c0-0.019,0.014-0.039,0.031-0.044C13.191,4.922,13.205,4.933,13.205,4.952z"/>
				<path class="st10" d="M13.401,4.892c0,0.019-0.014,0.039-0.031,0.044c-0.017,0.005-0.031-0.006-0.031-0.025
					c0-0.019,0.014-0.039,0.031-0.044C13.387,4.862,13.401,4.873,13.401,4.892z"/>
				<path class="st8" d="M13.174,5.026c0,0.01-0.007,0.019-0.016,0.022c-0.009,0.003-0.016-0.003-0.016-0.012
					s0.007-0.019,0.016-0.022C13.167,5.011,13.174,5.016,13.174,5.026z"/>
				<path class="st5" d="M13.46,4.764v0.09c-0.125,0.039-0.189-0.075-0.189-0.075s-0.063,0.153-0.189,0.191V4.88
					c0.011-0.027,0.026-0.052,0.044-0.075c0.021-0.027,0.045-0.051,0.071-0.07l0.147-0.045c0.027,0.003,0.051,0.012,0.071,0.026
					C13.434,4.728,13.449,4.744,13.46,4.764z"/>
				<polygon class="st6" points="13.401,5.368 13.157,5.443 13.157,5.295 13.401,5.22 				"/>
				<path class="st2" d="M13.45,5.205v0.23c-0.055,0.042-0.115,0.075-0.178,0.095c-0.063,0.019-0.123,0.024-0.178,0.015v-0.23
					l0.099-0.03c0.044,0.035,0.115,0.013,0.159-0.049L13.45,5.205z"/>
				<polygon class="st5" points="13.439,5.115 13.462,5.108 13.462,4.811 13.439,4.818 				"/>
				<polygon class="st5" points="13.104,5.218 13.081,5.225 13.081,4.927 13.104,4.92 				"/>
				<path class="st2" d="M13.187,5.39c0-0.057-0.042-0.091-0.093-0.075C13.042,5.331,13,5.39,13,5.447
					c0,0.057,0.042,0.091,0.093,0.075C13.145,5.506,13.187,5.447,13.187,5.39z"/>
				<path class="st2" d="M13.094,5.418v0.127C13.06,5.54,13.029,5.53,13,5.515V5.447L13.094,5.418z"/>
				<path class="st2" d="M13.356,5.338c0-0.057,0.042-0.116,0.093-0.132c0.052-0.016,0.093,0.017,0.093,0.075
					c0,0.057-0.042,0.116-0.093,0.132C13.398,5.428,13.356,5.395,13.356,5.338z"/>
				<path class="st2" d="M13.543,5.28v0.068c-0.029,0.032-0.06,0.062-0.093,0.087V5.309L13.543,5.28z"/>
			</g>
		</g>
	</g>
	<g>
		<g>
			<polygon class="st0" points="12.391,1.312 12.391,3.519 16,2.418 16,0.23 			"/>
			<polygon class="st1" points="16,0.23 12.391,1.312 12.391,1.08 16,0 			"/>
			<polygon class="st2" points="12.683,1.225 12.391,1.312 12.391,1.08 12.683,0.993 			"/>
		</g>
		<g>
			<path class="st4" d="M13.732,1.972c0,0.281-0.206,0.571-0.46,0.648c-0.254,0.076-0.46-0.09-0.46-0.372
				c0-0.282,0.206-0.571,0.46-0.647C13.526,1.525,13.732,1.691,13.732,1.972z"/>
			<g>
				<path class="st5" d="M13.471,1.853c-0.012-0.021-0.028-0.038-0.046-0.052c-0.022-0.016-0.047-0.025-0.076-0.028
					c-0.024-0.003-0.05,0-0.078,0.008c-0.027,0.008-0.053,0.021-0.078,0.038c-0.028,0.02-0.054,0.045-0.076,0.074
					c-0.019,0.024-0.034,0.051-0.046,0.079c-0.017,0.041-0.027,0.085-0.027,0.128v0.025v0.034v0.043
					c0,0.009,0.001,0.017,0.003,0.025c0.01,0.034,0.041,0.052,0.078,0.041l0.291-0.087c0.037-0.011,0.068-0.048,0.078-0.088
					c0.002-0.009,0.003-0.018,0.003-0.027V2.023V1.989V1.964C13.499,1.921,13.489,1.883,13.471,1.853z"/>
				<polygon class="st6" points="13.4,2.524 13.142,2.601 13.142,2.445 13.4,2.368 				"/>
				<path class="st2" d="M13.46,2.345v0.174c-0.019,0.015-0.038,0.029-0.058,0.041c-0.041,0.026-0.085,0.046-0.13,0.06
					c-0.045,0.014-0.089,0.02-0.13,0.019c-0.02,0-0.04-0.003-0.058-0.006V2.458l0.1-0.03c0.003-0.001,0.005,0,0.007,0.001
					l0.002,0.001l0.079,0.064l0.079-0.112l0.002-0.002c0.002-0.002,0.004-0.004,0.007-0.005L13.46,2.345z"/>
				<polygon class="st6" points="13.322,2.411 13.221,2.442 13.221,2.283 13.322,2.253 				"/>
				<path class="st7" d="M13.221,2.369c0.016,0,0.033-0.003,0.051-0.008l0,0c0.017-0.005,0.034-0.013,0.051-0.022V2.256l-0.101,0.03
					V2.369z"/>
				<path class="st6" d="M13.426,2.024c0,0.028,0.021,0.045,0.046,0.037c0.026-0.008,0.046-0.037,0.046-0.065
					c0-0.028-0.021-0.045-0.046-0.037C13.447,1.967,13.426,1.996,13.426,2.024z"/>
				<path class="st7" d="M13.447,2.018c0,0.016,0.012,0.025,0.026,0.021c0.014-0.004,0.026-0.021,0.026-0.036
					c0-0.016-0.012-0.025-0.026-0.021C13.458,1.986,13.447,2.002,13.447,2.018z"/>
				<path class="st6" d="M13.117,2.117c0,0.028-0.021,0.057-0.046,0.065c-0.026,0.008-0.046-0.009-0.046-0.037
					c0-0.028,0.021-0.057,0.046-0.065C13.096,2.072,13.117,2.089,13.117,2.117z"/>
				<path class="st7" d="M13.096,2.123c0,0.016-0.012,0.032-0.026,0.036c-0.014,0.004-0.026-0.005-0.026-0.021
					c0-0.016,0.012-0.032,0.026-0.036C13.085,2.098,13.096,2.107,13.096,2.123z"/>
				<path class="st6" d="M13.272,1.838L13.272,1.838c-0.111,0.033-0.201,0.16-0.201,0.283v0.052c0,0.123,0.09,0.196,0.201,0.162l0,0
					c0.111-0.033,0.201-0.16,0.201-0.283V2.001C13.473,1.878,13.383,1.805,13.272,1.838z"/>
				<path class="st9" d="M13.293,2.131c0-0.013-0.01-0.093-0.021-0.089C13.26,2.045,13.25,2.131,13.25,2.144
					c0,0.013,0.01,0.021,0.021,0.017C13.283,2.158,13.293,2.144,13.293,2.131z"/>
				<path class="st10" d="M13.201,2.075c0,0.02-0.015,0.041-0.033,0.046c-0.018,0.005-0.033-0.006-0.033-0.027
					c0-0.02,0.015-0.041,0.033-0.046C13.186,2.043,13.201,2.055,13.201,2.075z"/>
				<path class="st10" d="M13.408,2.013c0,0.02-0.015,0.041-0.033,0.046c-0.018,0.005-0.033-0.006-0.033-0.026
					c0-0.02,0.015-0.041,0.033-0.046C13.393,1.981,13.408,1.993,13.408,2.013z"/>
				<path class="st5" d="M13.083,2.161L13.083,2.161c-0.007,0.002-0.013-0.003-0.013-0.01V2.065l0.026-0.008v0.086
					C13.096,2.151,13.091,2.159,13.083,2.161z"/>
				<path class="st5" d="M13.46,2.048L13.46,2.048c0.007-0.002,0.013-0.01,0.013-0.018V1.944l-0.026,0.008v0.086
					C13.447,2.046,13.453,2.05,13.46,2.048z"/>
				<path class="st2" d="M13.559,2.424l-0.003,0.001c-0.029,0.034-0.062,0.066-0.096,0.093c-0.019,0.015-0.038,0.029-0.058,0.041
					c-0.012-0.006-0.022-0.016-0.029-0.028c-0.007-0.013-0.012-0.029-0.012-0.048c0-0.035,0.015-0.071,0.039-0.098
					c0.017-0.019,0.038-0.034,0.06-0.041c0.054-0.016,0.098,0.018,0.099,0.077C13.559,2.423,13.559,2.424,13.559,2.424z"/>
				<path class="st2" d="M13.556,2.425c-0.029,0.034-0.062,0.066-0.096,0.093V2.454L13.556,2.425z"/>
				<path class="st5" d="M13.096,2.057c0,0,0.098-0.045,0.098-0.114c0,0,0.005,0.083,0.253,0.009l0.026-0.008l-0.046-0.09
					l-0.092-0.06l-0.126,0.045l-0.083,0.083l-0.056,0.082v0.06L13.096,2.057z"/>
				<path class="st2" d="M13.182,2.538c0,0.019-0.004,0.037-0.012,0.055c-0.007,0.017-0.017,0.032-0.029,0.045
					c-0.02,0-0.04-0.003-0.058-0.006c-0.034-0.007-0.067-0.019-0.096-0.036l-0.003,0.001c0-0.001,0-0.002,0-0.002
					c0.001-0.06,0.045-0.121,0.099-0.137c0.022-0.007,0.043-0.005,0.059,0.004C13.167,2.475,13.182,2.502,13.182,2.538z"/>
				<path class="st2" d="M13.083,2.568v0.064c-0.034-0.007-0.067-0.019-0.096-0.036L13.083,2.568z"/>
			</g>
		</g>
		<g>
			<polygon class="st3" points="14.341,1.632 13.973,1.743 13.973,1.836 14.341,1.725 			"/>
			<polygon class="st3" points="14.444,1.694 14.968,1.535 14.968,1.442 14.444,1.6 			"/>
			<polygon class="st3" points="15.071,1.41 15.071,1.504 15.601,1.342 15.601,1.249 			"/>
			<polygon class="st3" points="14.532,1.766 13.973,1.935 13.973,2.028 14.532,1.859 			"/>
			<polygon class="st3" points="14.635,1.828 15.004,1.716 15.004,1.623 14.635,1.735 			"/>
			<polygon class="st3" points="15.107,1.684 15.601,1.534 15.601,1.441 15.107,1.591 			"/>
			<polygon class="st3" points="15.124,1.031 13.973,1.379 13.973,1.63 15.124,1.282 			"/>
			<polygon class="st3" points="14.22,2.053 13.973,2.128 13.973,2.221 14.22,2.146 			"/>
			<polygon class="st3" points="14.323,2.115 15.284,1.823 15.284,1.729 14.323,2.022 			"/>
			<polygon class="st3" points="15.387,1.791 15.601,1.726 15.601,1.633 15.387,1.698 			"/>
			<polygon class="st3" points="13.973,2.413 14.865,2.142 14.865,2.049 13.973,2.32 			"/>
			<polygon class="st3" points="14.968,2.111 15.124,2.063 15.124,1.97 14.968,2.018 			"/>
		</g>
	</g>
	<g>
		<g>
			<polygon class="st0" points="12.391,7.041 12.391,9.248 16,8.097 16,5.909 			"/>
			<polygon class="st1" points="16,5.909 12.391,7.041 12.391,6.808 16,5.679 			"/>
			<polygon class="st2" points="12.683,6.95 12.391,7.041 12.391,6.808 12.683,6.718 			"/>
		</g>
		<g>
			<polygon class="st3" points="14.545,7.267 13.973,7.448 13.973,7.54 14.545,7.36 			"/>
			<polygon class="st3" points="15.153,7.074 14.648,7.234 14.648,7.327 15.153,7.167 			"/>
			<polygon class="st3" points="15.255,7.041 15.255,7.134 15.592,7.027 15.592,6.934 			"/>
			<polygon class="st3" points="14.172,7.576 13.973,7.639 13.973,7.732 14.172,7.669 			"/>
			<polygon class="st3" points="14.274,7.637 14.808,7.467 14.808,7.375 14.274,7.544 			"/>
			<polygon class="st3" points="14.91,7.435 15.277,7.318 15.277,7.226 14.91,7.342 			"/>
			<polygon class="st3" points="15.379,7.285 15.592,7.217 15.592,7.125 15.379,7.193 			"/>
			<polygon class="st3" points="14.808,6.822 13.973,7.085 13.973,7.336 14.808,7.072 			"/>
			<polygon class="st3" points="14.362,7.707 13.973,7.83 13.973,7.923 14.362,7.8 			"/>
			<polygon class="st3" points="14.464,7.768 15.225,7.525 15.225,7.433 14.464,7.675 			"/>
			<polygon class="st3" points="15.328,7.492 15.592,7.408 15.592,7.315 15.328,7.4 			"/>
			<polygon class="st3" points="13.973,8.115 14.527,7.939 14.527,7.846 13.973,8.022 			"/>
			<polygon class="st3" points="14.63,7.906 15.118,7.75 15.118,7.658 14.63,7.813 			"/>
		</g>
		<g>
			<path class="st4" d="M13.732,7.682c0,0.281-0.206,0.574-0.46,0.654c-0.254,0.08-0.46-0.084-0.46-0.365
				c0-0.282,0.206-0.574,0.46-0.654C13.526,7.238,13.732,7.401,13.732,7.682z"/>
			<g>
				<path class="st5" d="M13.272,7.498L13.272,7.498c-0.125,0.039-0.226,0.183-0.226,0.322v0.46v0l0,0
					c0,0.017,0.012,0.026,0.027,0.022l0.398-0.125c0.015-0.005,0.027-0.022,0.027-0.039v0V7.677
					C13.498,7.539,13.397,7.459,13.272,7.498z"/>
				<path class="st6" d="M13.179,8.235c0,0.005,0,0.01-0.001,0.015c-0.001,0.006-0.002,0.013-0.003,0.019
					c-0.009,0.034-0.03,0.066-0.057,0.087c-0.013-0.001-0.025-0.003-0.038-0.005c-0.035-0.007-0.068-0.019-0.098-0.036
					c-0.001-0.005-0.001-0.011-0.001-0.017c0-0.047,0.027-0.095,0.064-0.122c0.011-0.008,0.023-0.014,0.035-0.018
					c0.017-0.005,0.032-0.006,0.046-0.002C13.158,8.164,13.179,8.193,13.179,8.235z"/>
				<path class="st6" d="M13.08,8.266v0.084c-0.035-0.007-0.068-0.019-0.098-0.036c0,0-0.001,0-0.001-0.001V8.297L13.08,8.266z"/>
				<path class="st6" d="M13.563,8.114c0,0.006,0,0.011-0.001,0.017c-0.03,0.036-0.063,0.069-0.098,0.098
					c-0.012,0.01-0.025,0.02-0.038,0.029c-0.027-0.004-0.048-0.023-0.056-0.051c-0.002-0.005-0.003-0.011-0.003-0.017
					c-0.001-0.004-0.001-0.009-0.001-0.013c0-0.042,0.021-0.084,0.052-0.113c0.014-0.013,0.03-0.023,0.047-0.028
					c0.012-0.004,0.024-0.005,0.034-0.004C13.536,8.036,13.563,8.067,13.563,8.114z"/>
				<path class="st6" d="M13.563,8.114V8.13c0,0-0.001,0.001-0.001,0.001c-0.03,0.036-0.063,0.069-0.098,0.098V8.146L13.563,8.114z"
					/>
				<path class="st11" d="M13.286,8.216c0,0.009-0.006,0.018-0.014,0.021c-0.008,0.003-0.014-0.003-0.014-0.011
					c0-0.009,0.006-0.018,0.014-0.021C13.28,8.203,13.286,8.208,13.286,8.216z"/>
				<path class="st12" d="M13.464,8.036v0.193c-0.012,0.01-0.025,0.02-0.038,0.029c-0.048,0.034-0.1,0.061-0.154,0.078
					c-0.054,0.017-0.106,0.023-0.154,0.019c-0.013-0.001-0.025-0.003-0.038-0.005V8.157L13.464,8.036z"/>
				<polygon class="st6" points="13.321,8.103 13.222,8.134 13.222,8.005 13.321,7.974 				"/>
				<path class="st7" d="M13.222,8.089c0.016,0,0.032-0.003,0.049-0.009l0,0c0.017-0.005,0.034-0.013,0.049-0.022v-0.08
					l-0.099,0.031V8.089z"/>
				<path class="st6" d="M13.423,7.749c0,0.028,0.02,0.044,0.045,0.036c0.025-0.008,0.045-0.037,0.045-0.064
					s-0.02-0.044-0.045-0.036C13.443,7.693,13.423,7.722,13.423,7.749z"/>
				<path class="st7" d="M13.443,7.743c0,0.015,0.011,0.024,0.025,0.02c0.014-0.004,0.025-0.02,0.025-0.036
					c0-0.015-0.011-0.024-0.025-0.02C13.454,7.711,13.443,7.727,13.443,7.743z"/>
				<path class="st6" d="M13.12,7.844c0,0.028-0.02,0.056-0.045,0.064C13.05,7.916,13.03,7.9,13.03,7.872
					c0-0.028,0.02-0.056,0.045-0.064C13.1,7.8,13.12,7.817,13.12,7.844z"/>
				<path class="st7" d="M13.1,7.85c0,0.015-0.011,0.031-0.025,0.036c-0.014,0.004-0.025-0.005-0.025-0.02
					c0-0.015,0.011-0.031,0.025-0.036C13.089,7.826,13.1,7.835,13.1,7.85z"/>
				<path class="st6" d="M13.272,7.537L13.272,7.537c-0.109,0.034-0.196,0.159-0.196,0.279V7.9c0,0.12,0.088,0.19,0.196,0.156l0,0
					c0.109-0.034,0.196-0.159,0.196-0.279V7.693C13.468,7.573,13.38,7.503,13.272,7.537z"/>
				<path class="st10" d="M13.204,7.806c0,0.015-0.011,0.031-0.025,0.036c-0.014,0.004-0.025-0.005-0.025-0.02
					c0-0.015,0.011-0.031,0.025-0.036C13.193,7.782,13.204,7.791,13.204,7.806z"/>
				<path class="st10" d="M13.389,7.748c0,0.015-0.011,0.031-0.025,0.036c-0.014,0.004-0.025-0.005-0.025-0.02
					c0-0.015,0.011-0.031,0.025-0.036C13.378,7.724,13.389,7.733,13.389,7.748z"/>
				<path class="st9" d="M13.302,7.845c0,0.018-0.013,0.035-0.03,0.04c-0.017,0.005-0.03-0.003-0.03-0.022
					c0-0.012,0.013-0.058,0.022-0.087c0.003-0.009,0.013-0.012,0.016-0.005C13.288,7.796,13.302,7.833,13.302,7.845z"/>
				<path class="st5" d="M13.2,7.741l-0.041,0.013c-0.007,0.002-0.013,0.009-0.013,0.014s0.006,0.008,0.013,0.006L13.2,7.761
					c0.007-0.002,0.013-0.009,0.013-0.014S13.207,7.739,13.2,7.741z"/>
				<path class="st5" d="M13.385,7.683l-0.041,0.013c-0.007,0.002-0.013,0.009-0.013,0.014s0.006,0.008,0.013,0.006l0.041-0.013
					c0.007-0.002,0.013-0.009,0.013-0.014S13.392,7.681,13.385,7.683z"/>
				<path class="st5" d="M13.118,7.742V7.77c-0.022,0.007-0.04,0.031-0.042,0.055l0,0c-0.007,0.002-0.013-0.002-0.014-0.009
					l-0.008-0.054L13.118,7.742z"/>
				<path class="st5" d="M13.272,7.498L13.272,7.498c-0.098,0.031-0.182,0.126-0.213,0.233l0.017,0.053l0.178-0.056l0.019-0.089
					l0.019,0.077l0.206-0.065C13.485,7.529,13.388,7.461,13.272,7.498z"/>
				<path class="st5" d="M13.426,7.645v0.028c0.022-0.007,0.04,0.006,0.042,0.028l0,0c0.007-0.002,0.013-0.01,0.014-0.017
					l0.008-0.059L13.426,7.645z"/>
				<path class="st13" d="M13.499,7.769c0,0.009-0.006,0.018-0.014,0.02c-0.008,0.002-0.014-0.003-0.014-0.011
					s0.006-0.018,0.014-0.02C13.493,7.755,13.499,7.76,13.499,7.769z"/>
				<path class="st13" d="M13.044,7.912c0,0.009,0.006,0.014,0.014,0.011c0.008-0.002,0.014-0.011,0.014-0.02
					s-0.006-0.014-0.014-0.011C13.05,7.894,13.044,7.903,13.044,7.912z"/>
				<path class="st8" d="M13.177,7.876c0,0.01-0.008,0.021-0.017,0.024c-0.009,0.003-0.017-0.003-0.017-0.014
					c0-0.01,0.008-0.021,0.017-0.024C13.169,7.859,13.177,7.865,13.177,7.876z"/>
				<path class="st8" d="M13.366,7.816c0,0.01,0.008,0.016,0.017,0.014C13.393,7.827,13.4,7.816,13.4,7.805
					c0-0.01-0.008-0.016-0.017-0.014C13.374,7.795,13.366,7.806,13.366,7.816z"/>
				<path class="st6" d="M13.272,8.258c0.08-0.025,0.146-0.118,0.146-0.207l-0.291,0.092C13.126,8.232,13.191,8.283,13.272,8.258z"
					/>
			</g>
		</g>
	</g>
	<g>
		<g>
			<polygon class="st0" points="0,5.377 0,13 12.101,9.37 12.101,1.964 			"/>
			<polygon class="st1" points="12.101,1.964 0,5.377 0,4.574 12.101,1.184 			"/>
			<polygon class="st2" points="0.981,5.113 0,5.377 0,4.574 0.981,4.312 			"/>
		</g>
		<g>
			<path class="st4" d="M4.496,7.777c0,0.963-0.69,1.944-1.542,2.19c-0.852,0.244-1.542-0.346-1.542-1.316
				c0-0.97,0.69-1.948,1.542-2.185C3.805,6.228,4.496,6.814,4.496,7.777z"/>
			<g>
				<path class="st11" d="M2.992,9.874c0,0.032-0.023,0.064-0.051,0.072C2.913,9.954,2.891,9.935,2.891,9.903
					c0-0.032,0.023-0.064,0.051-0.072C2.969,9.823,2.992,9.842,2.992,9.874z"/>
				<path class="st1" d="M2.652,9.959c0,0.021-0.001,0.041-0.004,0.062c-0.134,0.008-0.261-0.006-0.379-0.039
					c-0.101-0.028-0.196-0.07-0.283-0.126c0.07-0.107,0.171-0.191,0.283-0.223c0.129-0.037,0.244,0.003,0.313,0.095
					c0.042,0.055,0.068,0.129,0.07,0.217C2.652,9.95,2.652,9.954,2.652,9.959z"/>
				<path class="st1" d="M3.613,9.249v0.361C3.495,9.707,3.368,9.791,3.235,9.857c-0.069,0.034-0.14,0.064-0.212,0.088
					C3.002,9.953,2.981,9.959,2.96,9.966L2.953,9.967C2.943,9.971,2.932,9.973,2.921,9.976C2.9,9.982,2.878,9.987,2.857,9.992
					c-0.071,0.015-0.14,0.025-0.208,0.029c-0.134,0.008-0.261-0.006-0.379-0.039V9.633L3.613,9.249z"/>
				<path class="st1" d="M3.907,9.319c-0.09,0.106-0.189,0.204-0.293,0.291C3.495,9.707,3.368,9.791,3.235,9.857
					C3.232,9.837,3.231,9.815,3.231,9.793c0-0.005,0-0.01,0-0.014c0.002-0.088,0.028-0.177,0.07-0.256
					C3.37,9.391,3.484,9.286,3.613,9.249C3.731,9.215,3.837,9.244,3.907,9.319z"/>
				<polygon class="st6" points="3.111,9.649 2.772,9.747 2.772,9.082 3.111,8.985 				"/>
				<path class="st7" d="M2.772,9.378c0.054,0,0.111-0.007,0.17-0.024l0,0C3,9.337,3.057,9.312,3.111,9.281V8.997l-0.34,0.097V9.378
					z"/>
				<path class="st6" d="M3.462,8.204c0,0.097,0.07,0.156,0.155,0.132c0.086-0.025,0.155-0.123,0.155-0.221
					c0-0.097-0.07-0.156-0.155-0.132C3.532,8.008,3.462,8.107,3.462,8.204z"/>
				<path class="st7" d="M3.531,8.185c0,0.054,0.039,0.087,0.087,0.074C3.665,8.245,3.704,8.19,3.704,8.135
					c0-0.054-0.039-0.087-0.087-0.074C3.57,8.075,3.531,8.131,3.531,8.185z"/>
				<path class="st6" d="M2.421,8.5c0,0.098-0.07,0.196-0.155,0.221C2.18,8.745,2.11,8.685,2.11,8.588
					c0-0.098,0.07-0.196,0.155-0.221C2.351,8.343,2.421,8.402,2.421,8.5z"/>
				<path class="st7" d="M2.352,8.519c0,0.054-0.039,0.11-0.087,0.123c-0.048,0.014-0.087-0.02-0.087-0.074
					c0-0.054,0.039-0.11,0.087-0.123C2.313,8.432,2.352,8.465,2.352,8.519z"/>
				<path class="st6" d="M2.941,7.437L2.941,7.437C2.568,7.542,2.265,7.971,2.265,8.396v0.296c0,0.424,0.303,0.682,0.676,0.576l0,0
					c0.373-0.107,0.676-0.537,0.676-0.96V8.013C3.617,7.59,3.315,7.332,2.941,7.437z"/>
				<path class="st10" d="M2.71,8.377c0,0.054-0.039,0.11-0.087,0.123c-0.048,0.014-0.087-0.02-0.087-0.074
					c0-0.054,0.039-0.11,0.087-0.123C2.671,8.289,2.71,8.323,2.71,8.377z"/>
				<path class="st10" d="M3.346,8.196c0,0.054-0.039,0.109-0.087,0.123C3.211,8.333,3.173,8.3,3.173,8.246
					c0-0.054,0.039-0.109,0.087-0.123C3.307,8.109,3.346,8.142,3.346,8.196z"/>
				<path class="st5" d="M2.694,8.128l-0.141,0.04C2.528,8.175,2.508,8.203,2.508,8.231c0,0.028,0.02,0.045,0.045,0.038l0.141-0.04
					c0.025-0.007,0.045-0.035,0.045-0.063C2.739,8.138,2.719,8.121,2.694,8.128z"/>
				<path class="st5" d="M3.33,7.948l-0.141,0.04C3.164,7.995,3.144,8.023,3.144,8.051c0,0.028,0.02,0.045,0.045,0.038l0.141-0.04
					c0.025-0.007,0.045-0.035,0.045-0.063C3.375,7.958,3.355,7.941,3.33,7.948z"/>
				<path class="st5" d="M3.056,7.057c-0.267,0.075-0.493,0.34-0.566,0.637C2.489,7.695,2.488,7.697,2.488,7.698
					c-0.018-0.001-0.038,0-0.058,0.006C2.325,7.734,2.24,7.852,2.236,7.97l0,0v0.868c0,0.048,0.035,0.078,0.077,0.066l0.026-0.007
					c0.043-0.012,0.077-0.061,0.077-0.11c0-0.049-0.035-0.078-0.077-0.066V8.159c0.086-0.057,0.155-0.15,0.191-0.253
					c0,0,0.335,0.14,1.015-0.041v0.514C3.501,8.391,3.467,8.44,3.467,8.488c0,0.048,0.035,0.078,0.077,0.065L3.57,8.547
					c0.043-0.012,0.077-0.061,0.077-0.11V7.56C3.647,7.19,3.382,6.965,3.056,7.057z"/>
				<path class="st3" d="M3.023,9.674v0.271C3.002,9.953,2.981,9.959,2.96,9.966L2.953,9.967C2.943,9.971,2.932,9.973,2.921,9.976
					C2.9,9.982,2.878,9.987,2.857,9.992v-0.27L3.023,9.674z"/>
				<g>
					<path class="st14" d="M2.582,9.525v0.481L2.94,9.696L2.767,9.415l-0.001,0C2.703,9.445,2.641,9.482,2.582,9.525z"/>
					<path class="st14" d="M3.301,9.319v0.48L2.943,9.696l0.173-0.381l0.001,0C3.18,9.309,3.242,9.31,3.301,9.319z"/>
				</g>
				<path class="st15" d="M2.94,9.752C2.922,9.757,2.907,9.778,2.907,9.799c0,0.021,0.015,0.034,0.034,0.028
					C2.959,9.823,2.974,9.801,2.974,9.78S2.959,9.746,2.94,9.752z"/>
				<path class="st15" d="M2.96,9.966L2.953,9.967C2.943,9.971,2.932,9.973,2.921,9.976C2.927,9.97,2.933,9.966,2.94,9.964
					C2.947,9.962,2.954,9.963,2.96,9.966z"/>
				<path class="st9" d="M3.011,8.557c0-0.043-0.03-0.303-0.068-0.292C2.905,8.276,2.875,8.553,2.875,8.595
					c0,0.043,0.03,0.068,0.068,0.058C2.98,8.643,3.011,8.599,3.011,8.557z"/>
			</g>
		</g>
		<g>
			<polygon class="st3" points="6.54,6.651 5.306,7.007 5.306,7.327 6.54,6.969 			"/>
			<polygon class="st3" points="6.885,6.869 8.641,6.352 8.641,6.035 6.885,6.55 			"/>
			<polygon class="st3" points="8.986,5.933 8.986,6.25 10.762,5.719 10.762,5.403 			"/>
			<polygon class="st3" points="7.179,7.12 5.306,7.666 5.306,7.986 7.179,7.438 			"/>
			<polygon class="st3" points="7.524,7.336 8.761,6.97 8.761,6.653 7.524,7.019 			"/>
			<polygon class="st3" points="9.106,6.866 10.762,6.369 10.762,6.053 9.106,6.55 			"/>
			<polygon class="st3" points="9.163,4.645 5.306,5.761 5.306,6.623 9.163,5.5 			"/>
			<polygon class="st3" points="6.131,8.084 5.306,8.325 5.306,8.645 6.131,8.403 			"/>
			<polygon class="st3" points="6.477,8.302 9.699,7.341 9.699,7.025 6.477,7.983 			"/>
			<polygon class="st3" points="10.044,7.237 10.762,7.019 10.762,6.704 10.044,6.921 			"/>
			<polygon class="st3" points="5.306,9.303 8.295,8.416 8.295,8.099 5.306,8.984 			"/>
			<polygon class="st3" points="8.641,8.313 9.163,8.155 9.163,7.838 8.641,7.996 			"/>
		</g>
	</g>
</g>
</svg>
