<?xml version="1.0" encoding="utf-8"?>
<!-- Generator: Adobe Illustrator 22.1.0, SVG Export Plug-In . SVG Version: 6.00 Build 0)  -->
<svg version="1.1" id="Layer_1" xmlns="http://www.w3.org/2000/svg" xmlns:xlink="http://www.w3.org/1999/xlink" x="0px" y="0px"
	 viewBox="0 0 13 16" style="enable-background:new 0 0 13 16;" xml:space="preserve">
<style type="text/css">
	.st0{fill:#00B4C8;}
	.st1{fill:#F2F2F2;}
	.st2{fill:#DBDBDB;}
	.st3{fill:#FFFFFF;}
</style>
<g>
	<path class="st0" d="M12.885,4.952c0.011,3.714-2.595,8.252-5.81,10.118c-3.215,1.866-5.838,0.363-5.848-3.351
		c-0.01-3.714,2.595-8.254,5.81-10.121C10.251-0.267,12.874,1.238,12.885,4.952z"/>
	<path class="st1" d="M11.186,1.209c-1.058-0.618-2.522-0.533-4.136,0.404L6.918,1.535C6.583,1.339,6.247,1.143,5.911,0.947
		c1.614-0.937,3.078-1.022,4.136-0.404C10.389,0.743,10.844,1.009,11.186,1.209z M7.199,0.849L7.192,0.852L7.185,0.855L7.178,0.858
		L7.17,0.861L7.162,0.865L7.154,0.868L7.146,0.872L7.138,0.875L7.13,0.879L7.122,0.882L7.114,0.886L7.106,0.889L7.099,0.893
		L7.091,0.896L7.084,0.899L7.076,0.902l0.007-0.003l0.007-0.003l0.008-0.003l0.007-0.003l0.008-0.003l0.008-0.003L7.13,0.879
		l0.008-0.003l0.008-0.003l0.008-0.004l0.008-0.003L7.17,0.861l0.008-0.003l0.007-0.003l0.007-0.003L7.199,0.849L7.199,0.849z
		 M7.074,0.995L7.073,0.994L7.071,0.993L7.069,0.992L7.067,0.99L7.065,0.989L7.063,0.988L7.06,0.987L7.058,0.985L7.056,0.984
		L7.054,0.983L7.052,0.982L7.05,0.98L7.048,0.979L7.045,0.978L7.044,0.977L7.042,0.976l0.002,0.001l0.002,0.001l0.002,0.001
		L7.05,0.98l0.002,0.001l0.002,0.001l0.002,0.001l0.002,0.001L7.06,0.987l0.002,0.001l0.002,0.001L7.067,0.99l0.002,0.001
		l0.002,0.001l0.002,0.001L7.074,0.995L7.074,0.995z"/>
	<path class="st1" d="M4.742,1.946C4.699,1.921,4.656,1.896,4.612,1.87c0.043-0.036,0.086-0.072,0.129-0.107
		c0.38,0.222,0.76,0.444,1.14,0.666C5.843,2.46,5.806,2.491,5.769,2.523C5.749,2.512,5.731,2.501,5.712,2.489
		C5.693,2.479,5.674,2.467,5.655,2.456c0.019,0.011,0.038,0.022,0.057,0.033c0.019,0.011,0.037,0.022,0.057,0.033
		C4.68,3.439,3.708,4.644,2.947,5.97c-0.38-0.222-0.76-0.444-1.14-0.666C2.564,3.984,3.53,2.785,4.612,1.87
		C4.656,1.896,4.699,1.921,4.742,1.946z M5.578,2.428L5.53,2.4L5.48,2.371L5.43,2.341L5.377,2.311L5.324,2.279L5.27,2.248
		L5.215,2.216L5.16,2.184L5.105,2.152L5.051,2.12L4.997,2.088L4.943,2.057L4.891,2.027L4.84,1.997L4.79,1.968L4.742,1.94L4.79,1.968
		l0.05,0.029l0.051,0.03l0.052,0.031l0.053,0.031L5.051,2.12l0.055,0.032L5.16,2.184l0.055,0.032L5.27,2.248l0.054,0.031
		l0.053,0.031L5.43,2.341l0.051,0.03L5.53,2.4L5.578,2.428L5.578,2.428z"/>
	<path class="st1" d="M0.115,11.043c0.005,1.841,0.654,3.137,1.698,3.748l1.14,0.666c-1.044-0.61-1.693-1.906-1.698-3.747
		C1.25,9.856,1.897,7.798,2.947,5.97c-0.38-0.222-0.76-0.444-1.14-0.666C0.757,7.131,0.11,9.19,0.115,11.043z"/>
	<path class="st1" d="M5.889,1.571C5.749,1.487,5.514,1.349,5.387,1.278C5.56,1.16,5.734,1.05,5.911,0.947l1.14,0.666
		C6.874,1.715,6.7,1.826,6.528,1.944C6.36,1.846,6.193,1.748,6.026,1.651C6.193,1.748,6.36,1.846,6.528,1.944
		c-0.22,0.15-0.435,0.312-0.647,0.485c-0.38-0.222-0.76-0.444-1.14-0.666C4.952,1.59,5.168,1.428,5.387,1.278
		C5.514,1.349,5.749,1.487,5.889,1.571z M5.889,1.605L5.897,1.61l0.008,0.005L5.914,1.62l0.009,0.005L5.931,1.63L5.94,1.635
		l0.009,0.005l0.009,0.005l0.009,0.005l0.009,0.005l0.009,0.005l0.009,0.005l0.009,0.005l0.009,0.005l0.008,0.005l0.008,0.005
		L6.019,1.682L6.011,1.677L6.003,1.672L5.994,1.667L5.985,1.662L5.976,1.657L5.967,1.651L5.958,1.646L5.949,1.641L5.94,1.635
		L5.931,1.63L5.923,1.625L5.914,1.62L5.905,1.615L5.897,1.61L5.889,1.605L5.889,1.605z"/>
	<path class="st2" d="M5.911,0.816C7.556-0.14,9.05-0.227,10.128,0.403c0.38,0.222,0.76,0.444,1.14,0.666
		C10.19,0.439,8.696,0.526,7.05,1.482C3.78,3.38,1.129,7.997,1.14,11.776c0.005,1.877,0.666,3.199,1.732,3.821
		c-0.38-0.222-0.76-0.444-1.14-0.666C0.667,14.308,0.005,12.986,0,11.11C-0.011,7.331,2.64,2.714,5.911,0.816z"/>
	<path d="M13,4.891c0.011,3.777-2.64,8.395-5.911,10.294c-3.27,1.898-5.938,0.368-5.949-3.409C1.129,7.997,3.78,3.38,7.05,1.482
		C10.321-0.417,12.989,1.112,13,4.891z M7.089,15.052c3.207-1.862,5.806-6.389,5.796-10.094c-0.01-3.705-2.627-5.206-5.834-3.345
		C3.844,3.475,1.245,8.004,1.255,11.709C1.265,15.414,3.882,16.913,7.089,15.052L7.089,15.052z"/>
	<g>
		<polygon class="st3" points="6.133,3.41 6.151,3.407 6.125,3.43 		"/>
		<path class="st3" d="M5.612,3.873C5.592,3.879,5.583,3.875,5.576,3.869c-0.002-0.002-0.004,0-0.006-0.002
			C5.582,3.871,5.598,3.865,5.612,3.873z"/>
		<path class="st3" d="M5.538,3.856L5.528,3.862C5.546,3.857,5.559,3.864,5.57,3.868C5.563,3.86,5.558,3.849,5.538,3.856z"/>
		<polygon class="st3" points="5.336,3.758 5.336,3.753 5.34,3.751 		"/>
		<polygon class="st3" points="5.762,5.371 5.814,5.408 5.787,5.423 5.747,5.366 		"/>
		<path class="st3" d="M4.075,8.992L4.067,8.984l0.025-0.1C4.129,8.863,4.077,8.986,4.075,8.992z"/>
		<polygon class="st3" points="4.063,8.91 4.074,8.903 4.061,8.964 		"/>
		<polygon class="st3" points="5.083,3.284 5.087,3.281 5.086,3.283 		"/>
		<path class="st3" d="M4.719,3.642C4.717,3.644,4.717,3.642,4.722,3.637C4.727,3.634,4.729,3.633,4.733,3.63
			C4.727,3.636,4.722,3.64,4.719,3.642z"/>
		<path class="st3" d="M4.624,3.81c-0.013,0-0.028,0.006-0.046,0.016C4.553,3.841,4.525,3.864,4.494,3.893
			c0.059-0.07,0.118-0.137,0.178-0.205C4.667,3.698,4.676,3.706,4.711,3.706C4.759,3.696,4.857,3.639,4.89,3.671
			C4.861,3.677,4.723,3.701,4.656,3.74C4.637,3.75,4.624,3.763,4.619,3.777C4.614,3.795,4.617,3.805,4.624,3.81z"/>
		<path class="st3" d="M4.829,3.93L4.807,3.875L4.85,3.841c0.004-0.01-0.256,0.12-0.289,0.092c0.002-0.005,0.006-0.01,0.012-0.013
			c0.01-0.005,0.024-0.009,0.04-0.017c0.012-0.004,0.025-0.009,0.035-0.015C4.661,3.88,4.67,3.869,4.667,3.855
			c-0.003-0.021-0.011-0.034-0.023-0.04c0.032-0.003,0.08-0.029,0.092-0.03L4.701,3.848c0,0.026,0.088,0,0.19-0.038L4.883,3.818
			l0.03,0.021L4.847,3.936L4.829,3.93z"/>
		<path class="st3" d="M4.833,3.524C4.831,3.525,4.827,3.527,4.824,3.527C4.819,3.53,4.814,3.531,4.818,3.529
			C4.82,3.527,4.824,3.525,4.831,3.523C4.835,3.522,4.835,3.523,4.833,3.524z"/>
		<path class="st3" d="M5.238,3.706c-0.016,0.029-0.021,0.038-0.02,0.038C5.218,3.743,5.235,3.712,5.238,3.706z"/>
		<path class="st3" d="M5.289,3.707c0.002-0.002,0.005-0.004,0.007-0.007C5.3,3.697,5.305,3.695,5.31,3.691
			C5.301,3.698,5.295,3.702,5.289,3.707z"/>
		<path class="st3" d="M6.347,3.405C6.361,3.39,6.366,3.384,6.366,3.384c0-0.001-0.005,0.007-0.012,0.015
			C6.352,3.4,6.349,3.402,6.347,3.405z"/>
		<path class="st3" d="M6.337,3.417C6.334,3.421,6.331,3.424,6.33,3.424c0-0.001,0.003-0.003,0.012-0.014
			C6.341,3.412,6.339,3.415,6.337,3.417z"/>
		<polygon class="st3" points="5.788,4.067 5.828,4.056 5.828,4.06 5.824,4.079 5.821,4.082 5.821,4.086 5.806,4.103 5.755,4.15 
			5.747,4.124 5.751,4.122 5.755,4.111 		"/>
		<path class="st3" d="M5.647,4.06c-0.02,0.012-0.035,0.027-0.035,0.045L5.63,4.125L5.645,4.12L5.7,4.084
			C5.751,4.05,5.751,4.037,5.733,4.035L5.74,4.022L5.689,4.044C5.674,4.047,5.659,4.053,5.647,4.06z"/>
		<path class="st3" d="M6.037,3.925c-0.001,0-0.005,0.008-0.011,0.016C6.019,3.953,6.015,3.96,6.015,3.96
			c0,0,0.005-0.007,0.014-0.021C6.035,3.929,6.037,3.925,6.037,3.925z"/>
		<path class="st3" d="M6.267,4.128c0.002-0.005,0.003-0.01,0.005-0.016c0,0.001-0.001,0.003-0.001,0.005
			C6.269,4.12,6.269,4.123,6.267,4.128z"/>
		<path class="st3" d="M4.546,8.698C4.544,8.699,4.554,8.697,4.564,8.696c0.006-0.002,0.014-0.004,0.016-0.005
			c0.003-0.001,0.003-0.002-0.002-0.003C4.556,8.695,4.547,8.697,4.546,8.698z"/>
		<path class="st3" d="M4.563,8.747c0.001-0.001,0.006-0.013,0.012-0.024c0.005-0.009,0.01-0.019,0.012-0.024
			C4.586,8.701,4.585,8.705,4.582,8.71C4.568,8.737,4.564,8.747,4.563,8.747z"/>
		<polygon class="st3" points="4.626,8.744 4.692,8.71 4.63,8.763 		"/>
		<polygon class="st3" points="4.714,8.697 4.74,8.687 4.743,8.697 4.74,8.704 4.704,8.775 4.681,8.767 4.671,8.765 4.681,8.755 		
			"/>
		<path class="st3" d="M4.78,8.079c0,0,0.004-0.001,0.016-0.004C4.81,8.073,4.815,8.072,4.815,8.071c0,0-0.007,0.002-0.015,0.002
			C4.79,8.076,4.781,8.079,4.78,8.079z"/>
		<path class="st3" d="M4.789,8.044c0.006-0.013,0.008-0.018,0.008-0.018c0.001,0-0.004,0.011-0.008,0.023
			c-0.004,0.007-0.008,0.015-0.01,0.019C4.781,8.065,4.783,8.058,4.789,8.044z"/>
		<path class="st3" d="M4.875,8.175c0,0,0,0.001-0.002,0.003C4.857,8.222,4.852,8.236,4.852,8.237
			c-0.001,0.001,0.005-0.016,0.01-0.031C4.869,8.189,4.874,8.175,4.875,8.175z"/>
		<polygon class="st3" points="5.147,6.704 5.184,6.687 5.192,6.691 5.177,6.713 5.137,6.769 5.097,6.801 5.093,6.804 5.093,6.8 
			5.086,6.799 5.086,6.795 5.089,6.784 5.133,6.726 		"/>
		<path class="st3" d="M5.937,5.265c0.008-0.011,0.015-0.023,0.018-0.028C5.926,5.279,5.917,5.293,5.918,5.292
			C5.919,5.292,5.928,5.279,5.937,5.265z"/>
		<path class="st3" d="M6.307,2.882l0.088-0.047c-0.01,0.009-0.021,0.017-0.032,0.024C6.335,2.875,6.309,2.881,6.307,2.882z"/>
		<polygon class="st3" points="5.785,2.974 5.785,2.982 5.795,3.01 5.785,2.982 5.752,3.005 		"/>
		<path class="st3" d="M5.952,3.068c0.019-0.011,0.034-0.007,0.06-0.011l0.004-0.002L6.063,3.04L6.056,3.044l0.01,0.015
			C6.05,3.088,6.033,3.107,6.014,3.116c-0.039,0.023-0.078,0.01-0.098-0.012C5.931,3.085,5.942,3.075,5.952,3.068z"/>
		<path class="st3" d="M5.736,3.029c0.031-0.019,0.035,0.063,0.056,0.05c0-0.014,0.014-0.028,0.034-0.039
			c0.051-0.029,0.141-0.05,0.167-0.065L5.99,3.007L5.946,3.062L5.928,3.081L5.913,3.089L5.898,3.098
			C5.896,3.101,5.892,3.104,5.887,3.107C5.856,3.124,5.801,3.134,5.76,3.128C5.711,3.135,5.676,3.126,5.694,3.086
			C5.711,3.051,5.725,3.034,5.736,3.029z"/>
		<path class="st3" d="M5.668,3.236c0.04-0.023,0.088-0.043,0.099-0.045C5.837,3.176,5.826,3.199,5.8,3.223L5.764,3.252l-0.04,0.036
			l0.011,0.019l0.04-0.031c0.006,0.02-0.072,0.086-0.147,0.13C5.553,3.45,5.479,3.47,5.489,3.399l0.004-0.043
			c0.004-0.006,0.008-0.01,0.013-0.013c0.015-0.009,0.037-0.009,0.056-0.012c0.019-0.001,0.04-0.003,0.057-0.013
			C5.625,3.314,5.63,3.31,5.636,3.306H5.628L5.614,3.306L5.603,3.291l0.033-0.036L5.668,3.236z"/>
		<polygon class="st3" points="4.228,8.683 4.227,8.687 4.231,8.682 		"/>
		<polygon class="st3" points="5.242,4.765 5.243,4.765 5.242,4.766 		"/>
		<path class="st3" d="M6.017,3.837C6.02,3.824,6.033,3.819,6.04,3.81c-0.001,0-0.001-0.001-0.002-0.001
			C6.029,3.815,6.022,3.823,6.017,3.837z"/>
		<polygon class="st3" points="6.223,4.063 6.22,4.07 6.212,4.074 		"/>
		<polygon class="st3" points="5.072,5.983 5.021,6.013 5.018,6.014 5.02,6.014 5.084,5.989 		"/>
		<polygon class="st3" points="3.592,9.15 3.625,9.156 3.625,9.161 		"/>
		<path class="st3" d="M5.944,3.924C5.941,3.926,5.95,3.934,5.96,3.941C5.963,3.945,5.966,3.948,5.97,3.95
			c0.001,0.001,0.003,0.002,0.004,0.003c0.002,0.001,0.003,0.001,0.004,0.001C5.98,3.953,5.977,3.947,5.963,3.931
			C5.95,3.926,5.944,3.924,5.944,3.924z"/>
		<polygon class="st3" points="5.984,3.91 5.981,3.9 5.988,3.907 		"/>
		<path class="st3" d="M6.071,3.965c0.002-0.001,0.009-0.004,0.024-0.009c0.008-0.001,0.009-0.001,0.008,0
			C6.101,3.958,6.092,3.96,6.084,3.963C6.075,3.965,6.068,3.967,6.071,3.965z"/>
		<path class="st3" d="M6.358,3.397C6.357,3.397,6.356,3.398,6.355,3.399C6.352,3.4,6.35,3.402,6.347,3.405
			C6.345,3.407,6.344,3.409,6.342,3.41C6.341,3.413,6.339,3.415,6.338,3.417C6.337,3.42,6.336,3.421,6.335,3.424
			C6.375,3.395,6.37,3.39,6.358,3.397z"/>
		<path class="st3" d="M4.112,14.18c0.028-0.016,0.056-0.001,0.04,0.044c0.016-0.015,0.035-0.046,0.053-0.056
			c0.01-0.006,0.021-0.005,0.031,0.011l0.008,0.016L4.225,14.21L4.17,14.264l-0.037-0.013c-0.008,0.014-0.021,0.025-0.033,0.032
			c-0.033,0.019-0.068,0.011-0.044-0.034l0.051-0.017l-0.023-0.025C4.093,14.194,4.102,14.185,4.112,14.18z"/>
		<polygon class="st3" points="4.563,8.075 4.657,8.046 4.665,8.054 4.596,8.115 4.555,8.122 		"/>
		<polygon class="st3" points="4.83,8.385 4.805,8.425 4.779,8.474 4.783,8.475 4.783,8.488 4.802,8.452 4.831,8.393 4.827,8.395 		
			"/>
		<path class="st3" d="M5.95,5.213c0,0,0.002,0.002,0.006,0.008c0.006,0.016,0.008,0.022,0.008,0.023
			c-0.001,0-0.004-0.008-0.008-0.015C5.954,5.22,5.95,5.213,5.95,5.213z"/>
		<path class="st3" d="M6.201,5.218c-0.01,0.008-0.01,0.031-0.007,0.029C6.196,5.246,6.198,5.238,6.201,5.218z"/>
		<path class="st3" d="M6.387,5.08l0.057-0.054L6.39,5.107L6.43,5.08c0.006,0.025-0.062,0.129-0.084,0.142
			c-0.009,0.005-0.01-0.003,0-0.034l-0.04,0.032L6.35,5.131c-0.003,0.002-0.076,0.08-0.112,0.101
			C6.224,5.24,6.216,5.238,6.222,5.218l0.055-0.049L6.062,5.201C6.077,5.139,6.34,4.908,6.423,4.824L6.306,4.962l0.073-0.034
			L6.342,4.975l0.106-0.011l0.005,0.015L6.42,5.026L6.387,5.08z"/>
		<path class="st3" d="M6.188,2.802c0.016-0.009,0.033-0.014,0.046-0.013c0.01-0.014,0.019-0.024,0.025-0.027
			C6.27,2.755,6.274,2.768,6.26,2.816L6.212,2.861h0.052C6.255,2.867,6.248,2.874,6.241,2.877c-0.03,0.017-0.048,0.009-0.083,0.019
			l0.011-0.015l-0.04-0.006C6.139,2.841,6.163,2.817,6.188,2.802z"/>
		<path class="st3" d="M6.223,2.711l-0.004,0.04l0.004-0.036c0.005,0.009,0.01,0.023,0.01,0.022C6.233,2.737,6.23,2.731,6.223,2.711
			z"/>
		<path class="st3" d="M5.232,3.699c0.002-0.001,0.003-0.002,0.006-0.002C5.223,3.723,5.216,3.733,5.212,3.735
			c-0.004,0.002-0.003-0.004,0.001-0.01C5.216,3.716,5.223,3.704,5.232,3.699z"/>
		<polygon class="st3" points="5.119,3.225 5.171,3.212 5.062,3.284 		"/>
		<path class="st3" d="M5.543,2.987C5.545,2.99,5.558,2.984,5.576,2.974c0.019-0.011,0.042-0.026,0.066-0.039l0.026-0.015h0.052
			l-0.084,0.07L5.533,3.035L5.478,3.042l0.073-0.047L5.543,2.987z"/>
		<path class="st3" d="M7.05,7.769C7.049,7.77,7.053,7.778,7.057,7.785c0.002,0.008,0.004,0.018,0.004,0.018
			c0,0-0.001-0.006-0.004-0.022C7.053,7.773,7.05,7.768,7.05,7.769z"/>
		<path class="st3" d="M12.826,4.305c0.009,0.092,0.014,0.185,0.019,0.281C12.84,4.49,12.835,4.396,12.826,4.305z"/>
		<path class="st3" d="M12.826,4.305c-0.037-0.384-0.094-0.748-0.19-1.072C12.733,3.562,12.79,3.926,12.826,4.305z"/>
		<path class="st3" d="M10.424,3.007c0.003-0.005,0.006-0.008,0.008-0.01v0.002C10.43,3.003,10.427,3.003,10.424,3.007z"/>
		<path class="st3" d="M9.638,4.77c0.005-0.002,0.01-0.004,0.015-0.005c0.044-0.008,0.019,0.07-0.021,0.156
			C9.619,5.012,9.6,5.109,9.553,5.136C9.547,5.14,9.54,5.142,9.534,5.143L9.519,5.126L9.515,5.112L9.54,5
			c0.007-0.033,0.013-0.056,0.046-0.075c0.006-0.003,0.013-0.007,0.021-0.01C9.573,4.9,9.591,4.799,9.638,4.77z"/>
		<path class="st3" d="M9.28,5.098c0-0.001-0.002,0.004-0.006,0.018C9.273,5.118,9.272,5.119,9.272,5.121c-0.001,0-0.001,0-0.001,0
			l0.001,0C9.269,5.124,9.268,5.126,9.268,5.126c-0.001,0,0.003-0.008,0.006-0.014C9.275,5.106,9.279,5.099,9.28,5.098z"/>
		<path class="st3" d="M9.106,5.221c0,0-0.002,0.009-0.007,0.03C9.097,5.257,9.097,5.258,9.097,5.258
			c0-0.001,0.002-0.009,0.005-0.017C9.104,5.231,9.107,5.221,9.106,5.221z"/>
		<path class="st3" d="M11.889,2.109c0.018-0.011,0.044-0.009,0.058,0.001l0.004,0.019l-0.08,0.034V2.159l-0.004-0.015l0.003-0.002
			C11.87,2.126,11.879,2.115,11.889,2.109z"/>
		<path class="st3" d="M11.036,1.577c0,0-0.003,0.005-0.013,0.017c-0.006,0.008-0.008,0.011-0.007,0.011
			c0.001-0.001,0.006-0.008,0.01-0.012C11.031,1.584,11.037,1.576,11.036,1.577z"/>
		<polygon class="st3" points="7.501,5.634 7.489,5.632 7.504,5.632 7.504,5.636 		"/>
		<path class="st3" d="M7.789,6.43c0,0-0.004,0.009-0.019,0.037c0,0.001-0.001,0.001-0.001,0.001c-0.001,0,0.005-0.01,0.009-0.019
			C7.783,6.441,7.788,6.431,7.789,6.43z"/>
		<path class="st3" d="M9.009,3.852c0.018-0.01,0.042,0.011,0.06,0.047c0.03,0.025,0.051,0.067,0.033,0.125
			c0,0.044-0.014,0.085-0.054,0.109c-0.009,0.005-0.02,0.01-0.034,0.013L8.953,4.161C8.85,4.217,8.822,4.212,8.832,4.151
			l0.003-0.019c0.011-0.035,0.026-0.078,0.047-0.137l0.103-0.046C8.985,3.889,8.995,3.86,9.009,3.852z"/>
		<path class="st3" d="M9.144,3.931c-0.001,0-0.002,0.007-0.002,0.014C9.14,3.952,9.139,3.958,9.14,3.958
			C9.14,3.957,9.141,3.955,9.142,3.95C9.145,3.935,9.145,3.931,9.144,3.931z"/>
		<polygon class="st3" points="9.236,2.095 9.247,2.091 9.243,2.094 		"/>
		<polygon class="st3" points="7.449,5.685 7.453,5.687 7.441,5.687 		"/>
		<polygon class="st3" points="9.196,2.127 9.192,2.145 9.196,2.131 		"/>
		<path class="st3" d="M9.503,3.323C9.474,3.36,9.456,3.371,9.456,3.413l0.011,0.002l0.025-0.04L9.51,3.352L9.496,3.369L9.503,3.323
			z"/>
		<path class="st3" d="M9.271,5.121c0.001,0,0.001,0,0.001,0c0.002,0,0.009,0,0.024,0.004c0,0.001-0.001,0.002-0.001,0.002
			C9.292,5.129,9.286,5.128,9.281,5.124C9.277,5.124,9.272,5.122,9.271,5.121L9.271,5.121z"/>
		<path class="st3" d="M8.037,6.329L8.026,6.352l0.019-0.015L7.957,6.456C7.965,6.418,7.997,6.352,8.037,6.329z"/>
		<path class="st3" d="M7.769,6.431c0.003-0.002,0.007-0.002,0.009,0.002C7.766,6.445,7.759,6.452,7.755,6.454
			c-0.004,0.003-0.005,0-0.003-0.006C7.756,6.443,7.763,6.435,7.769,6.431z"/>
		<polygon class="st3" points="11.69,6.905 11.69,6.909 11.708,6.903 11.726,6.896 11.719,6.9 11.741,6.922 11.679,6.911 		"/>
		<polygon class="st3" points="12.065,5.659 12.065,5.66 12.07,5.657 		"/>
		<path class="st3" d="M12.83,5.787c-0.004,0.003-0.01,0.007-0.016,0.014c-0.066,0.059-0.052,0.034,0.004,0.107
			c0,0,0-0.001,0.001-0.002C12.823,5.866,12.827,5.826,12.83,5.787z"/>
		<path class="st3" d="M10.16,3.635c0.001-0.001,0.003-0.001,0.006-0.001c0.007,0.011,0.008,0.016,0.007,0.016
			c-0.001,0.002-0.005-0.002-0.007-0.007C10.161,3.64,10.158,3.636,10.16,3.635z"/>
		<path class="st3" d="M2.767,6.516c0.096-0.187,0.181-0.38,0.286-0.563C2.947,6.136,2.865,6.328,2.767,6.516z"/>
		<path class="st3" d="M2.528,6.914C2.528,6.914,2.481,7.025,2.347,7.344c-0.02,0.048-0.041,0.1-0.066,0.157
			c0.001,0,0.002-0.003,0.005-0.01c0.01-0.024,0.038-0.089,0.071-0.169C2.429,7.15,2.523,6.925,2.528,6.914z"/>
		<path class="st3" d="M2.263,7.532c0.002-0.001-0.016,0.046-0.069,0.177c0,0,0,0.001,0.001,0.002
			c0.018,0.085-0.012,0.53-0.037,0.544C2.156,8.255,2.156,8.255,2.156,8.255c-0.059,0.034-0.037-0.3-0.045-0.308
			c-0.003-0.002-0.002-0.01,0.001-0.025C2.133,7.834,2.258,7.535,2.263,7.532z"/>
		<path class="st3" d="M12.83,5.787c0.023-0.013,0.021,0.024-0.012,0.12C12.823,5.866,12.827,5.826,12.83,5.787L12.83,5.787z"/>
		<path class="st3" d="M12.83,5.784c0.004-0.002,0.009-0.007,0.016-0.011c-0.002,0.001-0.005,0.004-0.007,0.004
			C12.836,5.779,12.833,5.783,12.83,5.784z"/>
		<path class="st3" d="M10.942,9.211l0.012,0.099c0.004,0.049-0.004,0.117-0.018,0.179l-0.041,0.092l-0.018-0.036
			c0.013-0.004-0.289,0.871-0.474,0.979c-0.03,0.018-0.057,0.014-0.079-0.015c-0.054-0.077,0.135-0.734,0.204-0.855
			c-0.002,0.006,0.002,0.005,0.011-0.001c0.07-0.041,0.418-0.346,0.305-0.317c0.004-0.001,0.009-0.003,0.012-0.005
			c0.019-0.011,0.031-0.036,0.04-0.059c0.009-0.023,0.019-0.046,0.036-0.057C10.935,9.214,10.938,9.213,10.942,9.211z"/>
		<polygon class="st3" points="9.109,5.257 9.113,5.256 9.117,5.256 		"/>
		<polygon class="st3" points="11.17,1.555 11.185,1.551 11.228,1.534 11.243,1.538 11.247,1.536 11.243,1.538 11.24,1.545 
			11.232,1.549 11.192,1.559 11.177,1.555 		"/>
		<path class="st3" d="M12.636,3.233c0.217,0.73,0.282,1.597,0.192,2.538c-0.08,0.047-0.14-0.119-0.161-0.148
			c-0.058-0.071-0.19,0.051-0.278,0.047c-0.098,0.058-0.166,0.028-0.219-0.012c-0.053-0.037-0.092-0.084-0.132-0.061
			c-0.007,0.005-0.015,0.01-0.022,0.02c-0.011,0.015-0.023,0.026-0.035,0.033c-0.111,0.065-0.232-0.257-0.258-0.257
			c-0.017,0.001-0.031,0.005-0.042,0.012c-0.111,0.065,0.053,0.401,0.049,0.403l0.033-0.088c0.088-0.017-0.051,0.191,0.027,0.188
			c0.01-0.003,0.021-0.007,0.031-0.013c0.041-0.024,0.084-0.073,0.121-0.118c0.042-0.05,0.08-0.094,0.114-0.114
			c-0.013,0.012,0.025,0.086,0.07,0.155c0.049,0.067,0.104,0.131,0.113,0.126c-0.014,0.079-0.141,0.187-0.145,0.189
			c-0.082,0.066-0.31,0.492-0.477,0.589c-0.02,0.011-0.04,0.019-0.056,0.02c-0.02,0.002-0.044,0.011-0.07,0.027
			c-0.052,0.03-0.114,0.083-0.175,0.133C11.26,6.95,11.201,6.999,11.15,7.029c-0.021,0.012-0.042,0.021-0.06,0.026l-0.234-1.378
			l-0.058,0.14c-0.04,0.006-0.059-0.131-0.066-0.169c-0.091,0.243,0.14,0.548,0.122,0.758c-0.02,0.236,0.277,0.61,0.161,0.765
			c0.098-0.002,0.515-0.142,0.504-0.077c-0.03,0.184-0.619,1.223-0.858,1.361c-0.011,0.007-0.021,0.011-0.031,0.013
			c-0.012,0.003-0.023,0.007-0.034,0.013c-0.18,0.105-0.163,0.743-0.176,0.804c-0.093,0.46-0.371,0.659-0.539,0.971
			c-0.032,0.341-0.657,1.212-1.026,1.426c-0.13,0.076-0.229,0.071-0.258-0.071c-0.041-0.226,0.07-0.81-0.01-1.055
			C8.465,10.18,8.829,9.825,8.804,9.468C8.795,9.309,8.68,8.707,8.801,8.556c0.196-0.244-0.214-0.383-0.294-0.353
			C8.214,8.318,7.794,8.71,7.655,8.365C7.562,8.211,7.522,7.989,7.456,7.862C7.415,7.797,7.68,7.026,7.724,6.929
			c0.087-0.169,0.204-0.333,0.31-0.488C8.091,6.36,8.368,5.938,8.42,5.891c0.157-0.143,0.276-0.242,0.417-0.324
			c0.067-0.039,0.141-0.074,0.225-0.108c0.092-0.041,0.548-0.246,0.57-0.184C9.647,5.322,9.48,5.602,9.545,5.588
			C9.673,5.556,9.773,5.79,9.916,5.754c0.019-0.008,0.042-0.026,0.073-0.047c0.029-0.021,0.065-0.045,0.106-0.069
			c0.092-0.053,0.203-0.098,0.281-0.058c0.07,0.033,0.22-0.01,0.361-0.093c0.213-0.124,0.414-0.336,0.308-0.506
			c-0.023,0.01-0.045,0.029-0.073,0.045c-0.121,0.07-0.355,0.089-0.355,0.051L10.551,5.17c-0.03,0,0.062-0.07-0.007-0.068l0.04-0.04
			l-0.048,0.036l0.022-0.047c-0.036-0.021-0.041-0.044,0-0.067L10.48,4.982l0.058-0.101C10.53,4.896,10.52,4.91,10.512,4.914
			c-0.009,0.005-0.015,0-0.017-0.021l0.069-0.126c0.01-0.085-0.201,0.046-0.223,0.05l0.081,0.189l-0.044-0.003v0.058l-0.044,0.009
			c-0.029,0.052-0.007,0.025-0.029,0.102c-0.018-0.007-0.132-0.029-0.136-0.074c0.026-0.037,0.034-0.045,0.044-0.05
			c0.023-0.013,0.052-0.017,0.077-0.011c-0.113-0.121-0.279-0.46-0.312-0.5C9.975,4.54,9.962,4.528,9.945,4.514
			C9.926,4.506,9.902,4.499,9.883,4.51C9.864,4.521,9.848,4.548,9.839,4.606c-0.022,0.173,0.224,0.212,0.249,0.333l-0.044-0.032
			c0.001,0.053-0.158,0.246-0.161,0.247c-0.023,0.03-0.046,0.051-0.066,0.062c-0.034,0.02-0.061,0.016-0.073,0.006
			C9.735,5.21,9.74,5.188,9.771,5.17c0.011-0.006,0.026-0.012,0.044-0.017c0.029-0.007,0.052-0.015,0.07-0.025
			c0.089-0.051,0.043-0.144-0.027-0.22c-0.07-0.077-0.17-0.139-0.175-0.136c0.024-0.113-0.061-0.103-0.174-0.037
			C9.315,4.847,9.032,5.124,9.036,5.233c0.003,0.111-0.058,0.184-0.142,0.233C8.75,5.55,8.539,5.559,8.481,5.563
			c0.061-0.284,0.088-0.515,0.268-0.619C8.78,4.926,8.815,4.912,8.856,4.901c0.073-0.016,0.127-0.036,0.165-0.058
			c0.21-0.122-0.023-0.311-0.022-0.386c0.003,0.01,0.027,0,0.059-0.018c0.085-0.048,0.22-0.161,0.141-0.15l0.653-0.502
			c0-0.003,0.051-0.315,0.114-0.351c0.014-0.008,0.028-0.004,0.043,0.02c0.01,0.017-0.127,0.356-0.071,0.323
			c0.02-0.007,0.046-0.021,0.079-0.04c0.058-0.034,0.128-0.074,0.091-0.002l0.325-0.164c-0.062,0.002,0.23-0.223,0.238-0.226
			l0.025-0.099l-0.128,0.065l-0.004-0.039c0.01-0.035,0.048-0.067,0.098-0.097c0.106-0.062,0.266-0.108,0.315-0.135
			c-0.128,0.011-0.343,0.111-0.398,0.029c-0.044-0.076,0.065-0.233,0.153-0.317c-0.019,0.01-0.038,0.02-0.059,0.033
			c-0.071,0.042-0.156,0.107-0.239,0.214c0.034-0.014-0.139,0.443-0.139,0.447l0.028-0.026c-0.017,0.068-0.295,0.282-0.323,0.297
			L9.972,3.704c0.054-0.176,0.065-0.115,0.065-0.393C10.008,3.378,9.973,3.415,9.94,3.435c-0.067,0.039-0.13,0-0.13-0.05
			c-0.017-0.098,0.048-0.329,0.152-0.39c0.01-0.006,0.019-0.01,0.03-0.012c0.023-0.005,0.046-0.011,0.067-0.023
			c0.031-0.019,0.06-0.05,0.086-0.108c0.025-0.048,0.229-0.188,0.251-0.311l-0.106,0.065c0.007-0.007,0.028-0.032,0.05-0.055
			c0.029-0.032,0.064-0.067,0.091-0.083c0.025-0.014,0.044-0.013,0.044,0.021c0.014-0.019,0.03-0.062,0.042-0.069
			c0.007-0.004,0.012,0.003,0.016,0.03c0.014-0.027,0.062-0.099,0.084-0.112c0.013-0.007,0.017,0.003,0.004,0.048
			c0.028-0.029,0.043-0.045,0.059-0.055c0.016-0.009,0.032-0.012,0.061-0.015l-0.032-0.024l0.106-0.011l0.091-0.07l-0.051,0.081
			c0.019-0.007,0.033-0.013,0.043-0.019c0.018-0.011,0.024-0.021,0.026-0.03c0.019-0.002,0.047-0.048,0.069-0.061
			c0.01-0.006,0.02-0.004,0.026,0.01l-0.032,0.044c0.003,0.002,0.143-0.087,0.135-0.019l-0.072,0.055
			c0.153,0.012,0.225-0.021,0.417,0.02c0.111,0.015,0.12,0.034,0.082,0.056c-0.075,0.043-0.334,0.094-0.376,0.118
			c0.038,0.042,0.101,0.231,0.207,0.169l0.006-0.027L11.33,2.574c0.035-0.025,0.061-0.017,0.084-0.007
			c0.024,0.007,0.05,0.014,0.071,0.002c0.007-0.004,0.015-0.012,0.019-0.021l-0.028-0.052c0.01-0.032,0.035-0.056,0.063-0.072
			c0.056-0.033,0.128-0.035,0.145-0.021l-0.022-0.186c0.058,0.008,0.09,0.007,0.142,0.032l-0.076,0.044
			c0,0.045,0.042,0.033,0.097,0.001c0.044-0.026,0.096-0.064,0.144-0.099c0.055-0.044,0.102-0.08,0.116-0.088
			c0.232,0.302,0.406,0.663,0.534,1.075c0.003,0.008,0.005,0.017,0.009,0.025C12.631,3.216,12.633,3.223,12.636,3.233z"/>
		<path class="st3" d="M7.886,6.015l0.003-0.002C7.874,6.022,7.862,6.027,7.865,6.025C7.868,6.023,7.874,6.02,7.886,6.015z"/>
		<path class="st3" d="M9.392,2.602C9.389,2.603,9.401,2.595,9.413,2.588c0.002-0.001,0.005-0.004,0.007-0.005
			c-0.005,0.003-0.01,0.006-0.015,0.01C9.397,2.599,9.393,2.601,9.392,2.602z"/>
		<polygon class="st3" points="10.425,3.323 10.443,3.329 10.433,3.353 10.425,3.366 10.367,3.447 10.359,3.442 		"/>
		<polygon class="st3" points="9.23,5.125 9.234,5.127 9.255,5.135 9.226,5.182 9.205,5.19 9.186,5.167 		"/>
		<path class="st3" d="M11.042,1.654c0.012-0.007,0.025-0.011,0.029-0.008c0.006,0,0.007,0.002,0,0.006
			c-0.003,0.002-0.007,0.004-0.014,0.006L11.024,1.67C11.028,1.664,11.035,1.659,11.042,1.654z"/>
		<path class="st3" d="M10.926,1.835c0.001-0.001-0.006,0.007-0.012,0.017c-0.005,0.007-0.011,0.015-0.013,0.016
			c-0.001,0.001,0.004-0.006,0.02-0.029C10.925,1.836,10.926,1.835,10.926,1.835z"/>
		<path class="st3" d="M10.906,1.839c0.002-0.002,0.002-0.002,0.004-0.004c-0.008,0.007-0.012,0.009-0.012,0.01
			C10.897,1.846,10.901,1.842,10.906,1.839z"/>
		<polygon class="st3" points="10.99,1.697 10.98,1.682 10.982,1.682 		"/>
		<polygon class="st3" points="10.98,1.678 10.984,1.68 10.982,1.682 		"/>
		<polygon class="st3" points="10.289,2.608 10.287,2.609 10.291,2.606 		"/>
		<path class="st3" d="M7.112,7.766c0,0.004,0,0.008-0.002,0.013c0.002-0.002,0.002-0.002,0.002-0.004
			c0.003-0.028,0.004-0.038,0.004-0.039C7.115,7.735,7.113,7.751,7.112,7.766z"/>
		<path class="st3" d="M4.861,8.328c-0.001,0-0.005,0.006-0.016,0.024c-0.007,0.013-0.01,0.018-0.01,0.017
			c0-0.001,0.007-0.01,0.013-0.019C4.855,8.338,4.861,8.327,4.861,8.328z"/>
		<path class="st3" d="M4.841,8.311C4.834,8.338,4.833,8.347,4.835,8.345C4.838,8.343,4.851,8.309,4.841,8.311z"/>
		<path class="st3" d="M4.858,8.251c0.001,0-0.001,0.004-0.006,0.015c-0.018,0.037-0.024,0.05-0.025,0.051
			c-0.001,0,0.006-0.015,0.013-0.032C4.848,8.27,4.857,8.252,4.858,8.251z"/>
		<path class="st3" d="M4.825,8.252c0.001-0.001,0.007-0.003,0.02-0.007C4.85,8.246,4.85,8.247,4.848,8.248
			C4.846,8.249,4.84,8.251,4.834,8.252C4.828,8.253,4.822,8.253,4.825,8.252z"/>
		<path class="st3" d="M5.914,9.785c0.288-0.112-0.313,0.765-0.33,0.856c-0.069,0.162-0.124,0.427-0.178,0.588
			c-0.06,0.169-0.146,0.239-0.23,0.287c-0.014,0.008-0.027,0.015-0.04,0.022c-0.054,0.031-0.106,0.061-0.145,0.106
			c-0.113,0.125-0.279,0.687-0.364,0.736c-0.088,0.136-0.279,0.35-0.378,0.407c-0.044,0.025-0.071,0.02-0.061-0.038
			c-0.047,0.242,0.145,0.211-0.069,0.335c-0.04,0.023-0.095,0.052-0.168,0.089L3.947,13.31c0.024,0.03,0.014,0.051-0.01,0.065
			c-0.05,0.029-0.159,0.025-0.139,0.005c-0.077,0.088,0.109,0.11,0.081,0.157c-0.007,0.01-0.012,0.016-0.017,0.019
			c-0.011,0.006-0.018-0.005-0.023-0.016c-0.005-0.016-0.011-0.028-0.019-0.023c-0.003,0.002-0.007,0.005-0.011,0.015
			c0.008-0.005,0.008,0.048,0.001,0.106C3.8,13.69,3.784,13.749,3.763,13.761c-0.024,0.004-0.035,0.007-0.043,0.012
			c-0.07,0.04,0.073,0.195,0.069,0.217c-0.032,0.251-0.269,0.498,0.096,0.527l-0.11,0.094l0.023,0.033l-0.052-0.028
			c0-0.038-0.406,0.011-0.388-0.113l0.04-0.024l0.003-0.019c0-0.017-0.257-0.253-0.044-0.404l0-0.097l-0.103,0.076l0.057-0.279
			l0.029,0.055l0.029-0.266l-0.015,0.004l-0.051,0.169c-0.036,0.008-0.015-0.127,0.015-0.145C3.22,13.52,3.447,12.155,3.556,11.96
			c0.291-0.495-0.188-0.533-0.229-0.784c-0.064-0.415-0.152-0.588-0.029-1.002c-0.014,0.022-0.024,0.033-0.03,0.037
			c-0.022,0.013,0.04-0.139,0.114-0.297c0.076-0.161,0.169-0.33,0.2-0.348c0.006-0.004,0.01-0.002,0.01,0.006
			C3.59,9.523,3.608,9.31,3.625,9.16c0.044,0.008,0.081,0.012,0.091,0.015c-0.023,0,0.257-0.403,0.39-0.481
			C4.137,8.676,4.16,8.675,4.169,8.701L4.103,8.836l0.123-0.149C4.24,8.71,4.507,8.792,4.63,8.763
			c0.015,0.042,0.051,0.101,0.059,0.123c0.033,0.053,0.179-0.041,0.103,0.155c0.005-0.008,0.011-0.013,0.019-0.018
			c0.088-0.051,0.3,0.143,0.348,0.131C5.282,9.137,5.167,9.69,5.156,9.725c0.046-0.082,0.085-0.124,0.119-0.144
			c0.063-0.036,0.113-0.003,0.176-0.015L5.449,9.691c0.029,0,0.165-0.011,0.215-0.037C5.807,9.58,5.789,9.835,5.914,9.785z
			 M4.075,8.992c0.003-0.006,0.054-0.129,0.018-0.108l-0.025,0.1L4.075,8.992L4.075,8.992z M4.063,8.91l0.011-0.006L4.061,8.964
			L4.063,8.91L4.063,8.91z"/>
		<path class="st3" d="M4.237,8.024c0.081-0.039,0.179-0.058,0.231-0.016C4.512,8.016,4.537,8.04,4.504,8.089L4.449,8.112
			C4.413,8.144,4.366,8.174,4.334,8.193c-0.016,0.01-0.029,0.016-0.035,0.018L4.124,8.178c0.002-0.013,0.009-0.022,0.021-0.029
			c0.022-0.013,0.056-0.017,0.085-0.02L4.237,8.024z"/>
		<path class="st3" d="M4.262,7.912C4.26,7.918,4.286,7.909,4.292,7.906C4.296,7.903,4.291,7.903,4.262,7.912z"/>
		<path class="st3" d="M3.952,8.201L3.894,8.248l0.018,0.02l0.022,0.008l0.081-0.03C4.043,8.203,3.992,8.195,3.952,8.201z"/>
		<path class="st3" d="M6.272,4.112C6.272,4.11,6.274,4.108,6.274,4.105c0.002-0.008,0.003-0.012,0.004-0.012
			C6.279,4.092,6.276,4.103,6.272,4.112z"/>
		<path class="st3" d="M7.094,2.636c0-0.006,0.005-0.013,0.011-0.019v0.022L7.094,2.636z"/>
		<polygon class="st3" points="4.105,7.623 4.13,7.638 4.119,7.708 4.108,7.71 4.108,7.717 4.101,7.697 4.082,7.665 		"/>
		<path class="st3" d="M3.739,7.953C3.73,7.984,3.716,8.01,3.714,8.011C3.711,8.013,3.717,7.997,3.739,7.953z"/>
		<path class="st3" d="M6.317,3.485l0.025-0.007L6.35,3.475l0.007,0.003l0.011,0.007c0.006,0.02-0.059,0.069-0.105,0.097
			c-0.011,0.007-0.022,0.013-0.03,0.016l0.043-0.076l0.011-0.01L6.317,3.485z"/>
		<path class="st3" d="M6.2,3.519C6.196,3.525,6.22,3.514,6.233,3.506C6.245,3.499,6.247,3.496,6.2,3.519z"/>
		<path class="st3" d="M3.744,7.881C3.817,7.839,3.88,7.836,3.932,7.853c0.153-0.017,0.293,0.024,0.283,0.14L4.08,8.056l-0.04,0.01
			l-0.062,0.02l0.051-0.08c0-0.063-0.235-0.03-0.238-0.082l0.029-0.029L3.604,8.002C3.653,7.945,3.701,7.906,3.744,7.881z"/>
		<path class="st3" d="M5.934,3.951C5.937,3.949,5.96,3.948,5.97,3.95c0.001,0.001,0.003,0.002,0.004,0.003
			c0,0.001,0.001,0.001,0,0.001C5.94,3.954,5.931,3.953,5.934,3.951z"/>
		<path class="st3" d="M7.104,2.745c-0.02-0.004-0.031-0.017-0.022-0.044l0.022-0.01V2.745z"/>
		<polygon class="st3" points="7.104,2.639 7.182,2.657 7.104,2.691 		"/>
		<path class="st3" d="M9.184,3.633C9.187,3.63,9.19,3.629,9.194,3.626C9.17,3.647,9.15,3.665,9.134,3.675l0.022-0.029
			C9.166,3.642,9.175,3.638,9.184,3.633z"/>
		<path class="st3" d="M9.453,3.984c0.012,0.04-0.065,0.097-0.08,0.123l0.036,0.008c-0.002,0.011-0.02,0.027-0.048,0.043
			c-0.05,0.03-0.132,0.063-0.207,0.093C9.079,4.284,9.013,4.307,8.999,4.315l0.184-0.157L9.069,4.16L9.15,4.063L9.117,4.027
			l0.055-0.076c0.007-0.002,0.01-0.004,0.011-0.005c0.001,0-0.003,0.002-0.011,0.004l0.065-0.09L9.149,3.89l0.04-0.085L9.124,3.867
			l0.033-0.073L9.105,3.836l0.069-0.091L9.127,3.797l0.037-0.089L9.105,3.785L9.13,3.682C9.113,3.706,9.096,3.728,9.088,3.733
			C9.08,3.737,9.081,3.723,9.097,3.679L9.109,3.66C9.104,3.661,9.102,3.661,9.099,3.662C9.104,3.661,9.107,3.66,9.112,3.658
			l0.037-0.046L9.2,3.57c0.017,0.018,0.016,0.034,0.005,0.047c0.064-0.06,0.14-0.141,0.172-0.159
			C9.378,3.456,9.38,3.456,9.383,3.455l0.018,0.011L9.283,3.621c0.006,0.003,0.022,0.026,0.038,0.06l0.026,0.052
			c0.025,0.066,0.052,0.143,0.052,0.198L9.45,3.969L9.453,3.984z M9.134,3.675c0.016-0.01,0.036-0.028,0.06-0.049
			C9.19,3.629,9.187,3.63,9.184,3.633c-0.009,0.005-0.019,0.01-0.028,0.013L9.134,3.675L9.134,3.675z"/>
		<path class="st3" d="M9.258,3.257c0.051-0.021,0.025,0.032,0,0.063L9.239,3.348L9.236,3.346L9.243,3.27L9.258,3.257z"/>
		<polygon class="st3" points="7.486,3.111 7.515,3.075 7.449,3.09 		"/>
		<path class="st3" d="M7.57,3.011L7.555,3.04C7.486,3.064,7.493,3.009,7.493,3L7.478,2.992l0.043-0.038
			C7.504,3.007,7.519,3.041,7.57,3.011z"/>
		<path class="st3" d="M9.272,1.883l0.304-0.037C9.567,1.866,9.546,1.884,9.518,1.9c-0.036,0.02-0.085,0.041-0.132,0.061
			C9.34,1.977,9.293,1.996,9.261,2.014C9.239,2.028,9.224,2.04,9.221,2.053l0.022,0.016l-0.03,0.013
			C9.198,2.09,9.18,2.098,9.164,2.108C9.129,2.128,9.095,2.155,9.078,2.199c0.009-0.004,0.02-0.013,0.029-0.021
			C9.118,2.17,9.132,2.161,9.144,2.153c0.026-0.015,0.049-0.021,0.045,0.02L9.134,2.188c0.014,0.037,0.073-0.039,0.069,0.019
			L9.149,2.289C9.147,2.282,9.139,2.272,9.13,2.262C9.115,2.248,9.096,2.238,9.085,2.244c-0.006,0.004-0.01,0.011-0.01,0.023
			L9.072,2.279C9.064,2.304,9.159,2.312,9.046,2.391l0.048,0.006L8.981,2.462l0.022,0.004C8.994,2.473,8.986,2.478,8.978,2.483
			C8.94,2.506,8.909,2.509,8.86,2.537l0.055,0.014c0,0.032-0.012,0.05-0.03,0.061C8.861,2.626,8.828,2.623,8.809,2.617
			c0.05,0.058,0.035,0.091-0.007,0.115C8.78,2.745,8.75,2.755,8.719,2.767C8.686,2.781,8.649,2.794,8.62,2.811
			c0.054-0.006,0.124-0.025,0.179-0.032C8.801,2.791,8.762,2.82,8.704,2.854c-0.139,0.08-0.385,0.189-0.417,0.159
			C8.284,3.019,8.192,3.102,8.072,3.214C7.798,3.474,7.364,3.891,7.4,3.905L7.386,3.892L7.382,3.902
			C7.308,3.865,7.238,3.791,7.213,3.691C7.187,3.609,7.198,3.505,7.289,3.376C7.238,3.386,7.307,3.303,7.38,3.223
			C7.351,3.206,7.402,3.053,7.445,3.007H7.409l0.069-0.095h-0.03l0.044-0.038L7.474,2.876L7.507,2.84
			C7.445,2.868,7.492,2.789,7.525,2.749C7.514,2.722,7.511,2.724,7.511,2.724c-0.004,0.002,0,0,0.007-0.03
			c0.01-0.07-0.297,0.083-0.26,0.011C7.255,2.708,7.253,2.709,7.249,2.712C7.218,2.729,7.144,2.754,7.104,2.745V2.691l0.077-0.035
			L7.104,2.639V2.617C7.11,2.61,7.119,2.603,7.13,2.597c0.039-0.023,0.107-0.043,0.175-0.063C7.37,2.515,7.435,2.495,7.479,2.47
			c0.028-0.016,0.046-0.034,0.049-0.056L7.444,2.425c0.002-0.012,0.013-0.023,0.029-0.033c0.061-0.035,0.193-0.055,0.19-0.053
			l0.007-0.004L7.663,2.31C7.669,2.3,7.681,2.29,7.697,2.28c0.105-0.061,0.387-0.116,0.349-0.083L8.2,2.155L8.171,2.129
			C8.176,2.122,8.183,2.116,8.19,2.112c0.054-0.031,0.158,0.016,0.193-0.005c0-0.038-0.106,0.036-0.091-0.031
			C8.288,2.104,8.876,1.867,8.869,1.914L8.811,1.957c0.007,0.004,0.468-0.171,0.45-0.088L9.092,1.941
			c0.004,0.014,0.176-0.073,0.103,0.007c0.012,0.006,0.022,0.005,0.031,0C9.252,1.934,9.269,1.885,9.272,1.883z M7.555,3.04
			L7.57,3.011c-0.051,0.03-0.066-0.004-0.048-0.057L7.478,2.992L7.493,3C7.493,3.009,7.486,3.064,7.555,3.04L7.555,3.04z
			 M8.787,2.595L8.761,2.568l0.073-0.016L8.787,2.595L8.787,2.595z M7.486,3.111L7.449,3.09l0.066-0.014L7.486,3.111L7.486,3.111z"
			/>
		<path class="st3" d="M6.369,2.648C6.39,2.636,6.42,2.623,6.461,2.611l0.014-0.004c0.132-0.064,0.202-0.011,0.293-0.039
			C6.687,2.564,6.68,2.555,6.621,2.535c0.15-0.069,0.316-0.142,0.483-0.201l0,0.249C7.063,2.611,7.022,2.641,6.981,2.677
			L6.896,2.705L6.794,2.768C6.777,2.797,6.756,2.817,6.73,2.832C6.679,2.861,6.613,2.871,6.545,2.883
			c-0.07,0.011-0.144,0.025-0.206,0.061C6.32,2.955,6.303,2.968,6.286,2.983c0.132-0.046,0.259-0.078,0.362-0.058
			C6.639,2.93,6.632,2.934,6.625,2.939C6.467,3.03,6.363,3.05,6.206,3.093V3.085l0.03-0.038L6.089,3.093
			c0.004-0.049,0.062-0.07,0.08-0.114C6.111,2.984,6.088,2.984,6.063,2.943C6.172,2.935,6.271,2.907,6.37,2.871
			C6.347,2.877,6.309,2.885,6.31,2.884c0.001,0,0.005-0.001,0.013-0.002L6.37,2.871c0.051-0.017,0.106-0.045,0.164-0.074
			c-0.036,0.004-0.087,0-0.132-0.021C6.34,2.778,6.3,2.767,6.326,2.723C6.316,2.7,6.324,2.675,6.369,2.648z"/>
		<path class="st3" d="M5.602,3.168C5.628,3.165,5.649,3.162,5.65,3.162C5.649,3.162,5.637,3.163,5.602,3.168z"/>
		<path class="st3" d="M5.599,3.175c0.002-0.001,0.013,0.003,0.022,0.009c0.009,0.004,0.015,0.009,0.015,0.01
			c0,0-0.009-0.002-0.029-0.01C5.6,3.178,5.598,3.175,5.599,3.175z"/>
		<path class="st3" d="M5.127,3.216c0.044-0.039,0.1-0.085,0.15-0.119C5.25,3.122,5.222,3.149,5.195,3.176l0.001-0.004L5.127,3.216z
			"/>
		<path class="st3" d="M5.31,3.071c0.036-0.021,0.064-0.028,0.07-0.006L5.291,3.151C5.4,3.129,5.42,3.187,5.499,3.141
			c0.025-0.014,0.055-0.039,0.095-0.077L5.547,3.12l0.08-0.026l0.015,0.022c-0.006,0.026-0.032,0.049-0.068,0.07
			c-0.066,0.039-0.17,0.069-0.257,0.093c-0.091,0.02-0.161,0.032-0.165,0.033c0.003-0.007,0.007-0.011,0.012-0.014
			C5.178,3.29,5.198,3.288,5.218,3.286c0.019-0.001,0.04-0.004,0.055-0.013c0.012-0.007,0.021-0.017,0.025-0.034
			C5.287,3.248,5.276,3.256,5.268,3.26C5.249,3.272,5.243,3.266,5.255,3.226L5.084,3.284l0.105-0.062l0.008-0.051l-0.07,0.045
			C5.18,3.168,5.255,3.103,5.31,3.071z"/>
		<path class="st3" d="M4.841,8.185c0.002-0.001,0.005-0.003,0.007-0.006C4.85,8.177,4.852,8.175,4.853,8.174
			C4.85,8.177,4.846,8.182,4.841,8.185z"/>
		<path class="st3" d="M4.837,8.19C4.831,8.196,4.826,8.202,4.821,8.205c0.004-0.004,0.01-0.01,0.02-0.02
			C4.84,8.187,4.838,8.189,4.837,8.19z"/>
		<path class="st3" d="M6.916,3.465C6.888,3.502,6.852,3.531,6.812,3.554c-0.116,0.068-0.254,0.08-0.251,0.072l0.07,0.095l-0.028,0
			V3.8l-0.03-0.011L6.523,3.91C6.478,3.92,6.464,3.81,6.406,3.822c0,0.008,0.07,0.125,0.032,0.146
			C6.363,3.988,6.121,3.767,6.04,3.81c0.01-0.014,0.017-0.03,0.031-0.038c0.031-0.018,0.07-0.026,0.108-0.033
			c0.033-0.006,0.068-0.012,0.093-0.027c0.006-0.003,0.011-0.007,0.016-0.011c0.025-0.112,0.135-0.1,0.175-0.233L6.44,3.456
			C6.439,3.459,6.404,3.53,6.383,3.541c-0.007,0.005-0.012,0-0.011-0.025l0.044-0.038l0.01-0.035L6.339,3.455l0.065-0.047
			L6.342,3.322c0,0.036-0.023,0.062-0.054,0.079c-0.031,0.018-0.069,0.028-0.1,0.035C6.155,3.443,6.131,3.445,6.13,3.445
			c0.036,0.143-0.245,0.256-0.291,0.317l0.003,0.053C5.798,3.824,5.83,3.741,5.764,3.767L5.75,3.847l0.041-0.07l0.03,0.143
			C5.825,3.92,5.911,3.902,5.871,3.946L5.587,4.061C5.55,4.027,5.714,3.97,5.538,4.038c0.062-0.07,0.135-0.15,0.208-0.234
			C5.63,3.87,5.543,3.967,5.449,4.022C5.391,4.055,5.331,4.073,5.26,4.06C5.272,4.1,5.348,4.047,5.359,4.083
			C5.359,4.079,5.354,4.081,5.345,4.087c-0.084,0.048-0.497,0.445-0.47,0.472l0.063-0.006L4.864,4.705
			c0.04-0.011,0.307-0.002,0.241,0.092c0.047-0.026,0.111-0.044,0.137-0.03C5.228,4.774,5.212,4.852,5.2,4.936l0.008,0.021
			L5.193,4.982c-0.009,0.09-0.014,0.171-0.004,0.165C5.193,5.146,5.2,5.13,5.208,5.096c0.219-0.334,0.384-0.591,0.58-0.873
			C5.797,4.215,5.957,4.06,6.071,3.994C6.08,3.988,6.09,3.983,6.098,3.978c0.055-0.027,0.088-0.02,0.066,0.055L6.128,4.069
			l0.084,0.006C6.157,4.105,6.143,4.278,6.143,4.283C6.138,4.309,6.152,4.308,6.176,4.294c0.076-0.044,0.259-0.237,0.259-0.24
			c0.044,0.03-0.05,0.326-0.08,0.36c0.04,0.011,0,0.08,0.023,0.092l0.091-0.024l0.022,0.05L6.437,4.569
			c0.076-0.012,0.021,0.203-0.116,0.282C6.299,4.864,6.274,4.874,6.247,4.879C6.138,4.942,6.035,4.988,5.936,5.037l0.04,0.015
			c0.048,0.014,0.048,0.026,0.03,0.042l-0.07,0.015L5.893,5.058C5.861,5.075,5.829,5.092,5.797,5.111
			C5.678,5.18,5.555,5.267,5.419,5.41C5.454,5.38,5.654,5.222,5.776,5.152c0.066-0.039,0.11-0.051,0.088-0.001
			C5.821,5.179,5.788,5.223,5.751,5.244c-0.017,0.01-0.035,0.016-0.055,0.013l0.113-0.016L5.75,5.347l0.015-0.013L5.79,5.316
			C5.788,5.322,5.835,5.347,5.871,5.337L5.843,5.349l0.028,0.008l0.103-0.081c0.043-0.011-0.136,0.184-0.243,0.247
			C5.71,5.535,5.692,5.543,5.679,5.542C5.67,5.55,5.594,5.659,5.555,5.682C5.542,5.689,5.533,5.687,5.532,5.669
			C5.529,5.548,5.715,5.507,5.715,5.47L5.657,5.491L5.707,5.44L5.389,5.667l0.026-0.04C5.36,5.693,5.222,5.782,5.196,5.856
			L5.2,5.904l0.036-0.047C5.278,5.85,5.193,5.945,5.163,5.962C5.156,5.935,5.15,5.933,5.13,5.945
			C5.116,5.952,5.097,5.966,5.072,5.983C5.067,5.98,5.059,5.984,5.051,5.988c-0.01,0.006-0.019,0.014-0.031,0.025
			C4.989,6.043,4.953,6.091,4.919,6.135C4.873,6.192,4.836,6.247,4.826,6.253L4.821,6.201C4.817,6.214,4.73,6.412,4.698,6.431
			l0.093-0.23C4.704,6.25,4.663,6.5,4.638,6.522C4.59,6.57,4.538,6.708,4.414,6.78c-0.006,0.003-0.013,0.006-0.02,0.011
			c-0.111,0.064-0.199,0.267-0.27,0.461C4.052,7.44,3.994,7.625,3.953,7.648c-0.055,0.013-0.008-0.23-0.001-0.251
			c0.164-0.15-0.179-0.187-0.232-0.156l0.015-0.039l-0.152,0.16L3.569,7.345c0.001,0.012-0.004,0.02-0.015,0.027
			C3.527,7.387,3.47,7.39,3.416,7.393c-0.055,0-0.106,0.002-0.11,0.004c0-0.014-0.005-0.018-0.013-0.014
			C3.256,7.404,3.141,7.616,3.039,7.822C2.94,8.026,2.851,8.225,2.859,8.22C2.854,8.421,3.039,8.431,3.137,8.374
			c0.035-0.02,0.058-0.048,0.058-0.079c0.002-0.055,0.129-0.187,0.209-0.234c0.066-0.039,0.1-0.018,0.007,0.15
			C3.337,8.338,3.29,8.479,3.21,8.602c0.088,0.025,0.509-0.114,0.206,0.27C3.281,9.038,3.457,9.118,3.592,9.15
			c-0.05,0.034-0.148,0.138-0.183,0.158L3.395,9.273l0.037-0.038C3.423,9.217,3.412,9.218,3.4,9.224
			C3.39,9.23,3.378,9.243,3.369,9.253C3.36,9.266,3.354,9.276,3.352,9.278C3.205,9.311,3.291,8.813,3.203,8.83
			C3.13,8.847,2.969,8.869,2.951,8.778C2.906,8.571,2.702,8.77,2.585,8.69c-0.279-0.197-0.24-0.643-0.357-0.959
			C2.224,7.721,2.319,7.48,2.282,7.501C2.71,6.483,3.269,5.497,3.923,4.616C3.936,4.6,3.961,4.563,3.996,4.514
			C4.115,4.348,4.337,4.04,4.494,3.893c0.031-0.029,0.059-0.052,0.084-0.067C4.596,3.816,4.611,3.81,4.624,3.81
			C4.617,3.805,4.614,3.795,4.619,3.777C4.624,3.763,4.637,3.75,4.656,3.74C4.723,3.701,4.861,3.677,4.89,3.671
			C4.857,3.639,4.759,3.696,4.711,3.706C4.676,3.706,4.667,3.698,4.672,3.688c0.002-0.006,0.01-0.015,0.021-0.023
			C4.71,3.65,4.734,3.635,4.74,3.626c0.024-0.008,0.046-0.018,0.067-0.03C4.857,3.567,4.896,3.531,4.93,3.499
			C4.964,3.465,4.991,3.434,5.016,3.42C5.049,3.4,5.081,3.406,5.121,3.459l0.06-0.051C5.262,3.387,5.2,3.47,5.185,3.511
			c0.093-0.071,0.108-0.107,0.154-0.134c0.012-0.007,0.026-0.011,0.044-0.019c0.001-0.028,0.01-0.043,0.023-0.05
			C5.422,3.3,5.441,3.302,5.46,3.306c0.015,0.002,0.03,0.005,0.037,0.002c0,0.019-0.201,0.178-0.212,0.235l0.08,0.037
			c-0.004,0.025-0.017,0.041-0.03,0.048C5.316,3.64,5.294,3.635,5.292,3.619L5.267,3.642L5.227,3.66
			C5.183,3.682,5.11,3.716,5.032,3.749c0.045,0.004,0.07,0.018,0.027,0.047C5.13,3.82,5.211,3.803,5.283,3.761
			c0.041-0.024,0.078-0.055,0.108-0.09L5.336,3.673c0.001-0.015,0.021-0.032,0.048-0.048c0.073-0.042,0.203-0.076,0.183-0.038
			L5.406,3.692l0.051,0.003L5.388,3.774l0.015,0.005l0.135-0.147l0.092-0.061L5.618,3.556c-0.007,0-0.091,0.027-0.058-0.034
			c0.003-0.004,0.283-0.306,0.442-0.398c0.06-0.034,0.103-0.04,0.105,0.013C6.085,3.154,6.048,3.176,6.008,3.199
			C5.979,3.214,5.947,3.231,5.917,3.248c-0.06,0.035-0.116,0.074-0.136,0.107c0.074,0.046-0.032,0.133-0.072,0.177
			c0.003,0.007,0.105-0.057,0.087,0.009c0.008,0.008,0.009,0.042-0.039,0.124l0.011,0.036l0.108-0.11L5.859,3.627l0.142-0.112
			C5.99,3.524,5.983,3.529,5.979,3.532C5.955,3.546,6.05,3.452,6.104,3.413C6.035,3.429,5.91,3.454,5.917,3.399l0.106-0.04
			L5.928,3.367C5.937,3.303,6.068,3.2,6.174,3.138C6.25,3.094,6.315,3.07,6.316,3.097c0,0.024-0.191,0.122-0.187,0.179L6.151,3.31
			l0.025-0.019L6.144,3.268c0.014-0.04,0.087-0.095,0.16-0.137c0.081-0.048,0.163-0.079,0.158-0.057l-0.08,0.122l0.174-0.088
			C6.538,3.085,6.443,3.187,6.458,3.091C6.46,3.082,6.469,3.073,6.483,3.066c0.046-0.027,0.138-0.042,0.11,0.043
			c0.019,0.049,0.058,0,0.051,0.093C6.65,3.192,6.659,3.185,6.669,3.179c0.052-0.03,0.146-0.018,0.151,0.017L6.78,3.249l0.051,0.012
			l-0.04,0.015l0.04,0.019L6.715,3.372L6.916,3.465z M4.847,3.936l0.066-0.097l-0.03-0.021L4.89,3.81
			c-0.102,0.038-0.19,0.064-0.19,0.038l0.036-0.063c-0.012,0.002-0.06,0.027-0.092,0.03c0.011,0.006,0.019,0.019,0.023,0.04
			C4.67,3.869,4.661,3.88,4.648,3.887c-0.01,0.006-0.023,0.011-0.035,0.015c-0.016,0.008-0.03,0.012-0.04,0.017
			c-0.006,0.003-0.01,0.008-0.012,0.013C4.594,3.96,4.854,3.831,4.85,3.841L4.807,3.875L4.829,3.93L4.847,3.936L4.847,3.936z
			 M5.762,5.371l0.051,0.038L5.787,5.423l-0.04-0.057L5.762,5.371L5.762,5.371z M5.716,3.639C5.709,3.601,5.723,3.583,5.74,3.573
			c0.009-0.005,0.019-0.008,0.028-0.011L5.716,3.639L5.716,3.639z M5.576,3.869c-0.002-0.002-0.004,0-0.006-0.002
			c0.012,0.004,0.028-0.003,0.041,0.005C5.592,3.879,5.583,3.875,5.576,3.869L5.576,3.869z M6.125,3.43L6.133,3.41l0.018-0.002
			L6.125,3.43L6.125,3.43z M5.516,3.86c0.006-0.003,0.007,0.003,0.011,0.002l0,0.001L5.516,3.86L5.516,3.86z M5.336,3.758V3.753
			L5.34,3.751L5.336,3.758L5.336,3.758z"/>
		<path class="st3" d="M7.097,7.745c0,0.029,0.007,0.036,0.011,0.034C7.113,7.776,7.116,7.756,7.097,7.745z"/>
		<path class="st3" d="M7.18,7.587C7.175,7.613,7.172,7.623,7.171,7.623C7.171,7.623,7.175,7.607,7.18,7.587z"/>
		<path class="st3" d="M7.805,6.471c-0.001,0-0.006,0.01-0.008,0.018c-0.006,0.008-0.01,0.016-0.01,0.016
			c0.001,0,0.005-0.008,0.018-0.033C7.804,6.472,7.805,6.471,7.805,6.471z"/>
		<path class="st3" d="M7.722,6.528c0-0.001,0.008-0.006,0.026-0.019c-0.005,0.003-0.01,0.006-0.015,0.009
			C7.726,6.524,7.72,6.528,7.722,6.528z"/>
		<path class="st3" d="M9.145,3.959c0,0,0.013-0.004,0.023-0.008C9.17,3.951,9.172,3.951,9.173,3.951
			c0.006-0.002,0.011-0.004,0.01-0.003c0,0-0.003,0.002-0.011,0.004C9.167,3.953,9.16,3.955,9.15,3.958
			C9.145,3.959,9.145,3.959,9.145,3.959z"/>
		<path class="st3" d="M7.923,6.07C7.91,6.082,7.906,6.084,7.908,6.084c0.001-0.001,0.008-0.005,0.015-0.01
			C7.934,6.063,7.941,6.06,7.923,6.07z"/>
		<path class="st3" d="M11.012,1.608c-0.008,0.021-0.028,0.039-0.052,0.053c-0.068,0.04-0.176,0.052-0.203,0.049l0.153,0.05
			c-0.003,0.014-0.016,0.026-0.034,0.036c-0.05,0.029-0.137,0.041-0.137,0.039c-0.008-0.038-0.031-0.038-0.06-0.021
			c-0.023,0.013-0.048,0.037-0.075,0.061c-0.027,0.024-0.053,0.047-0.076,0.06c-0.038,0.022-0.066,0.017-0.07-0.056l0.069-0.057
			l-0.062,0.011c-0.04,0.015-0.08,0.03-0.095,0.017V1.821V1.813V1.805l0.003-0.044l0.136-0.032l-0.03,0.025l0.106-0.011
			c-0.01-0.017-0.009-0.027,0-0.032c0.012-0.007,0.041-0.005,0.07-0.004c0.025,0.003,0.049,0.007,0.061,0.001
			c0.002-0.002,0.004-0.002,0.005-0.005l-0.066-0.016l0.011-0.024L11.012,1.608z"/>
		<path class="st3" d="M7.583,5.666c0.001,0.001,0.01,0.018,0.012,0.022L7.589,5.681C7.584,5.67,7.583,5.666,7.583,5.666z"/>
		<polygon class="st3" points="7.416,5.691 7.438,5.686 7.441,5.687 7.409,5.696 		"/>
		<polygon class="st3" points="9.148,2.295 9.149,2.289 9.145,2.295 		"/>
		<polygon class="st3" points="9.157,2.331 9.171,2.335 9.174,2.338 9.12,2.377 9.116,2.38 9.098,2.373 9.153,2.333 		"/>
		<path class="st3" d="M9.218,2.16C9.223,2.162,9.24,2.163,9.241,2.162C9.242,2.162,9.236,2.161,9.218,2.16z"/>
		<path class="st3" d="M9.242,2.142C9.225,2.146,9.219,2.146,9.219,2.148c0,0,0.006,0,0.012,0C9.24,2.144,9.244,2.142,9.246,2.142
			C9.246,2.142,9.246,2.142,9.242,2.142z"/>
		<path class="st3" d="M9.229,2.084c0.001-0.001,0,0.002-0.004,0.009C9.21,2.112,9.205,2.119,9.204,2.12
			c-0.002,0.001,0.004-0.009,0.01-0.017C9.221,2.094,9.228,2.085,9.229,2.084z"/>
		<path class="st3" d="M8.61,3.118c0.041-0.024,0.083-0.029,0.084,0.039c0.004-0.016,0.05-0.049,0.107-0.082
			c0.086-0.05,0.195-0.097,0.228-0.078L8.994,3.03C9.096,3.009,9.056,3.062,8.99,3.121C8.939,3.173,8.863,3.229,8.82,3.255
			C8.814,3.258,8.809,3.26,8.804,3.263L8.801,3.265L8.79,3.271c-0.003,0.005-0.008,0.01-0.016,0.014
			C8.746,3.301,8.69,3.31,8.643,3.314c-0.04,0.011-0.077,0.015-0.085,0.003l0.059-0.068L8.609,3.223
			c-0.006,0-0.109,0.055-0.069,0.002L8.636,3.17L8.53,3.194C8.53,3.184,8.569,3.142,8.61,3.118z"/>
		<polygon class="st3" points="8.761,2.568 8.834,2.552 8.787,2.595 		"/>
		<path class="st3" d="M6.499,3.946c0,0-0.006,0.015-0.012,0.028C6.48,3.987,6.474,4,6.474,4.001c0,0,0.003-0.007,0.013-0.027
			C6.496,3.953,6.499,3.946,6.499,3.946z"/>
		<path class="st3" d="M6.482,3.937c0.001,0,0.003-0.001,0.005-0.001C6.463,3.969,6.452,3.982,6.449,3.984
			C6.445,3.985,6.45,3.976,6.457,3.965C6.463,3.955,6.474,3.942,6.482,3.937z"/>
		<path class="st3" d="M6.267,4.088C6.274,4.085,6.26,4.093,6.245,4.105C6.234,4.112,6.225,4.119,6.225,4.119
			C6.225,4.118,6.236,4.11,6.267,4.088z"/>
		<path class="st3" d="M5.021,6.013c0.011-0.011,0.021-0.019,0.031-0.025C5.059,5.984,5.067,5.98,5.072,5.983L5.021,6.013z"/>
		<path class="st3" d="M7.104,2.334C7.363,2.242,7.62,2.185,7.809,2.23C7.748,2.253,7.689,2.274,7.623,2.295l0.015,0.004
			C7.481,2.386,7.32,2.463,7.167,2.544C7.146,2.555,7.125,2.569,7.104,2.583L7.104,2.334z"/>
		<path class="st3" d="M6.2,3.54c0.002-0.002,0.036-0.018,0.036-0.017C6.236,3.523,6.227,3.527,6.2,3.54z"/>
		<polygon class="st3" points="6.339,3.379 6.298,3.432 6.229,3.485 6.236,3.473 6.226,3.47 6.291,3.411 		"/>
		<path class="st3" d="M5.74,3.573c0.009-0.005,0.019-0.008,0.028-0.011L5.716,3.639C5.709,3.601,5.723,3.583,5.74,3.573z"/>
		<path class="st3" d="M5.516,3.86l0.011,0.002l0-0.001C5.523,3.863,5.522,3.858,5.516,3.86z"/>
		<path class="st3" d="M5.916,2.839L5.99,2.817c0.013-0.013,0.028-0.025,0.041-0.033c0.03-0.018,0.058-0.016,0.068,0.036
			L6.084,2.876C6.018,2.905,5.985,2.904,5.964,2.887L5.928,2.882l0.011-0.011L5.916,2.839z"/>
		<path class="st3" d="M5.362,3.128C5.349,3.136,5.35,3.139,5.357,3.137C5.363,3.139,5.373,3.136,5.384,3.13
			c0.009-0.006,0.018-0.013,0.024-0.022C5.386,3.116,5.371,3.123,5.362,3.128z"/>
		<path class="st3" d="M5.353,3.109c0.001,0,0.01-0.001,0.036-0.003c0.01-0.001,0.014-0.001,0.013-0.001
			c0,0-0.012,0.002-0.024,0.003C5.365,3.109,5.352,3.109,5.353,3.109z"/>
		<path class="st3" d="M5.195,3.176L5.189,3.222L5.087,3.281c0.015-0.016,0.031-0.03,0.047-0.046L5.17,3.211L5.154,3.216
			C5.167,3.203,5.182,3.19,5.195,3.176z"/>
		<path class="st3" d="M5.119,3.225L5.062,3.284l0.072-0.048C5.14,3.228,5.147,3.223,5.154,3.216L5.119,3.225z"/>
		<path class="st3" d="M4.818,3.529C4.82,3.527,4.824,3.526,4.831,3.523c0.003,0,0.003,0.001,0.002,0.001
			C4.831,3.526,4.828,3.527,4.824,3.527C4.819,3.53,4.815,3.531,4.818,3.529z"/>
		<path class="st3" d="M2.286,7.491c0-0.002,0.002-0.004,0.003-0.006C2.286,7.49,2.284,7.496,2.282,7.501
			c-0.001,0.001,0,0-0.001,0.001c0.024-0.057,0.046-0.11,0.067-0.157C2.338,7.363,2.33,7.384,2.323,7.404
			C2.309,7.435,2.29,7.479,2.286,7.491z"/>
		<path class="st3" d="M3.923,4.616C3.936,4.6,3.961,4.563,3.996,4.514C3.884,4.663,3.79,4.83,3.683,4.985
			C3.766,4.864,3.836,4.733,3.923,4.616z"/>
		<path class="st3" d="M2.767,6.516c-0.166,0.32-0.34,0.641-0.479,0.969c0.011-0.028,0.023-0.054,0.034-0.082
			c0.012-0.028,0.018-0.043,0.034-0.08C2.477,7.047,2.628,6.784,2.767,6.516z"/>
	</g>
</g>
</svg>
