<?xml version="1.0" encoding="utf-8"?>
<!-- Generator: Adobe Illustrator 22.1.0, SVG Export Plug-In . SVG Version: 6.00 Build 0)  -->
<svg version="1.1" id="Layer_1" xmlns="http://www.w3.org/2000/svg" xmlns:xlink="http://www.w3.org/1999/xlink" x="0px" y="0px"
	 viewBox="0 0 16 16" style="enable-background:new 0 0 16 16;" xml:space="preserve">
<style type="text/css">
	.st0{fill:#FFFFFF;}
	.st1{fill:#00B272;}
	.st2{fill:url(#SVGID_1_);}
	.st3{fill:url(#SVGID_2_);}
	.st4{opacity:0.1;fill:url(#SVGID_3_);}
	.st5{fill:url(#SVGID_4_);}
</style>
<g>
	<path class="st0" d="M15.821,2.429c0,0-4.042-0.621-7.804-2.271C4.255,1.808,0.179,2.4,0.179,2.4
		c-0.472,10.787,7.837,13.443,7.837,13.443S16.293,13.216,15.821,2.429z"/>
	<path class="st1" d="M14.941,3.077c-0.449-0.063-1.095-0.167-1.837-0.293c-0.893-0.153-1.726-0.344-2.566-0.657
		C9.662,1.799,8.789,1.343,8.004,1.017C7.984,1.026,7.962,1.035,7.942,1.044C7.17,1.369,6.266,1.83,5.42,2.127
		C4.602,2.414,3.819,2.629,2.932,2.791c-0.748,0.137-1.423,0.23-1.872,0.293c-0.011,1.009,0.098,2.03,0.247,2.943
		C1.469,7.023,1.73,7.972,2.082,8.848c0.587,1.462,1.437,2.751,2.524,3.832c0.425,0.423,0.888,0.814,1.376,1.164
		c0.389,0.278,0.794,0.531,1.203,0.75c0.306,0.164,0.565,0.282,0.756,0.363c0.021,0.009,0.042,0.018,0.061,0.025
		c0.211-0.087,0.521-0.226,0.893-0.429c0.412-0.225,0.818-0.482,1.206-0.766c0.484-0.353,0.943-0.748,1.364-1.173
		c1.07-1.082,1.905-2.369,2.482-3.825c0.345-0.87,0.6-1.812,0.759-2.8C14.85,5.089,14.951,4.072,14.941,3.077z"/>
	<linearGradient id="SVGID_1_" gradientUnits="userSpaceOnUse" x1="-9.094947e-13" y1="8" x2="16" y2="8">
		<stop  offset="0.1911" style="stop-color:#897C70"/>
		<stop  offset="0.2108" style="stop-color:#8E8175"/>
		<stop  offset="0.2348" style="stop-color:#9D9083"/>
		<stop  offset="0.261" style="stop-color:#B5A89B"/>
		<stop  offset="0.2887" style="stop-color:#D8CABB"/>
		<stop  offset="0.3149" style="stop-color:#FFF1E1"/>
		<stop  offset="0.4222" style="stop-color:#897C70"/>
		<stop  offset="0.5141" style="stop-color:#8E8175"/>
		<stop  offset="0.6261" style="stop-color:#9D9083"/>
		<stop  offset="0.7486" style="stop-color:#B5A89B"/>
		<stop  offset="0.8777" style="stop-color:#D8CABB"/>
		<stop  offset="1" style="stop-color:#FFF1E1"/>
	</linearGradient>
	<path class="st2" d="M8.017,16l-0.018-0.006c-0.021-0.007-2.142-0.701-4.174-2.726c-1.192-1.189-2.122-2.598-2.764-4.187
		C0.261,7.096-0.09,4.822,0.02,2.321l0.002-0.037l0.042-0.006C0.104,2.274,4.231,1.661,7.994,0.01L8.017,0L8.04,0.01
		c3.764,1.651,7.856,2.293,7.897,2.299l0.041,0.006l0.002,0.036c0.109,2.5-0.24,4.773-1.037,6.755
		c-0.639,1.587-1.565,2.992-2.752,4.177c-2.023,2.018-4.136,2.704-4.157,2.711L8.017,16z M0.228,2.439
		c-0.232,5.534,1.897,8.87,3.727,10.696c1.89,1.886,3.857,2.592,4.062,2.662c0.204-0.069,2.163-0.768,4.045-2.647
		c1.822-1.819,3.943-5.148,3.71-10.682c-0.435-0.066-4.236-0.72-7.755-2.259C4.498,1.747,0.667,2.376,0.228,2.439z"/>
	<linearGradient id="SVGID_2_" gradientUnits="userSpaceOnUse" x1="2.701" y1="4.9918" x2="14.9886" y2="10.662">
		<stop  offset="0.1911" style="stop-color:#897C70"/>
		<stop  offset="0.2108" style="stop-color:#8E8175"/>
		<stop  offset="0.2348" style="stop-color:#9D9083"/>
		<stop  offset="0.261" style="stop-color:#B5A89B"/>
		<stop  offset="0.2887" style="stop-color:#D8CABB"/>
		<stop  offset="0.3149" style="stop-color:#FFF1E1"/>
		<stop  offset="0.4222" style="stop-color:#897C70"/>
		<stop  offset="0.5141" style="stop-color:#8E8175"/>
		<stop  offset="0.6261" style="stop-color:#9D9083"/>
		<stop  offset="0.7486" style="stop-color:#B5A89B"/>
		<stop  offset="0.8777" style="stop-color:#D8CABB"/>
		<stop  offset="1" style="stop-color:#FFF1E1"/>
	</linearGradient>
	<path class="st3" d="M8.013,1.125l0.14,0.064c1.228,0.559,2.388,1.134,3.749,1.478c0.227,0.057,2.169,0.417,2.929,0.518
		c0.003,0.86-0.078,1.825-0.235,2.8c-0.158,0.981-0.411,1.917-0.754,2.782c-0.572,1.444-1.399,2.72-2.46,3.793
		c-0.416,0.421-0.871,0.812-1.35,1.162C9.648,14,9.246,14.255,8.839,14.477c-0.34,0.185-0.627,0.316-0.822,0.399
		c-0.178-0.075-0.437-0.193-0.748-0.359c-0.405-0.217-0.806-0.466-1.19-0.742c-0.483-0.346-0.941-0.734-1.362-1.152
		c-1.078-1.071-1.919-2.35-2.502-3.8C1.886,8.005,1.634,7.088,1.444,6.019C1.189,4.585,1.169,3.474,1.169,3.151
		C1.41,3.114,1.716,3.067,1.755,3.064c0.342-0.031,0.684-0.087,1.034-0.148c1.665-0.288,3.256-0.849,4.727-1.574
		C7.672,1.265,7.905,1.169,8.013,1.125 M8.017,0.995c0,0-0.351,0.139-0.567,0.245C5.994,1.958,4.405,2.517,2.763,2.801
		C2.426,2.859,2.062,2.913,1.732,2.96C1.664,2.966,1.036,3.053,1.036,3.053S1.002,4.301,1.311,6.037
		c0.177,0.995,0.424,1.948,0.777,2.825c0.588,1.464,1.439,2.755,2.528,3.838c0.426,0.423,0.889,0.815,1.378,1.165
		c0.389,0.279,0.795,0.532,1.205,0.751c0.34,0.182,0.623,0.308,0.818,0.389c0.211-0.087,0.522-0.226,0.894-0.429
		c0.412-0.225,0.819-0.483,1.208-0.767c0.485-0.354,0.944-0.749,1.366-1.175c1.072-1.084,1.908-2.373,2.485-3.831
		C14.314,7.932,14.57,6.989,14.729,6c0.145-0.903,0.247-1.92,0.236-2.918c-0.648-0.074-2.684-0.457-3.014-0.553
		C10.521,2.201,9.318,1.586,8.017,0.995L8.017,0.995z"/>
	
		<radialGradient id="SVGID_3_" cx="3.3697" cy="0.1791" r="10.0669" gradientTransform="matrix(1 0 0 0.9375 0 6.4034)" gradientUnits="userSpaceOnUse">
		<stop  offset="0.5179" style="stop-color:#FFFFFF"/>
		<stop  offset="1" style="stop-color:#000000"/>
	</radialGradient>
	<path class="st4" d="M10.937,7.375c0.008-0.022,0.016-0.045,0.023-0.067c-0.001,0-0.002,0-0.002-0.001
		C10.951,7.33,10.944,7.352,10.937,7.375z"/>
</g>
<g>
	<linearGradient id="SVGID_4_" gradientUnits="userSpaceOnUse" x1="4" y1="8.0405" x2="12.8134" y2="8.0405">
		<stop  offset="0.1911" style="stop-color:#897C70"/>
		<stop  offset="0.2108" style="stop-color:#8E8175"/>
		<stop  offset="0.2348" style="stop-color:#9D9083"/>
		<stop  offset="0.261" style="stop-color:#B5A89B"/>
		<stop  offset="0.2887" style="stop-color:#D8CABB"/>
		<stop  offset="0.3149" style="stop-color:#FFF1E1"/>
		<stop  offset="0.4222" style="stop-color:#897C70"/>
		<stop  offset="0.5141" style="stop-color:#8E8175"/>
		<stop  offset="0.6261" style="stop-color:#9D9083"/>
		<stop  offset="0.7486" style="stop-color:#B5A89B"/>
		<stop  offset="0.8777" style="stop-color:#D8CABB"/>
		<stop  offset="1" style="stop-color:#FFF1E1"/>
	</linearGradient>
	<polygon class="st5" points="4,8.726 5.115,7.431 7.2,9.294 11.477,4.356 12.813,5.49 7.249,11.725 	"/>
	<polygon class="st0" points="5.116,7.553 4.131,8.725 7.246,11.601 12.687,5.49 11.476,4.481 7.201,9.416 	"/>
</g>
</svg>
