<svg xmlns="http://www.w3.org/2000/svg" width="41" height="41" viewBox="0 0 41 41">
  <metadata><?xpacket begin="﻿" id="W5M0MpCehiHzreSzNTczkc9d"?>
<x:xmpmeta xmlns:x="adobe:ns:meta/" x:xmptk="Adobe XMP Core 5.6-c138 79.159824, 2016/09/14-01:09:01        ">
   <rdf:RDF xmlns:rdf="http://www.w3.org/1999/02/22-rdf-syntax-ns#">
      <rdf:Description rdf:about=""/>
   </rdf:RDF>
</x:xmpmeta>
                                                                                                    
                                                                                                    
                                                                                                    
                                                                                                    
                                                                                                    
                                                                                                    
                                                                                                    
                                                                                                    
                                                                                                    
                                                                                                    
                                                                                                    
                                                                                                    
                                                                                                    
                                                                                                    
                                                                                                    
                                                                                                    
                                                                                                    
                                                                                                    
                                                                                                    
                                                                                                    
                           
<?xpacket end="w"?></metadata>
<defs>
    <style>
      .cls-1 {
        fill: #0c6eb9;
        fill-rule: evenodd;
      }
    </style>
  </defs>
  <path id="features5" class="cls-1" d="M283.652,3723.26h-1.706v-21.55a0.6,0.6,0,0,0-1.2,0v21.55H262.529a1.6,1.6,0,0,0-1.569,1.26,2.9,2.9,0,0,1-2.846,2.28,2.991,2.991,0,0,1-2.913-3v-32.39a1.048,1.048,0,0,1,1.045-1.05h1.106a0.6,0.6,0,1,0,0-1.2h-1.106a2.251,2.251,0,0,0-2.246,2.25v32.39a4.183,4.183,0,0,0,4.139,4.2h22.935a4.081,4.081,0,0,0,3.918-2.93A1.4,1.4,0,0,0,283.652,3723.26Zm0.19,1.46a2.89,2.89,0,0,1-2.768,2.08H261.033a4.175,4.175,0,0,0,1.1-2.02,0.4,0.4,0,0,1,.4-0.32c22.17,0.05,21.151-.09,21.282.08A0.208,0.208,0,0,1,283.842,3724.72Zm10.936-30.68-1.92-1.56a3.609,3.609,0,0,0-7.207.29v12.91a1.623,1.623,0,0,0,.983,1.49v16.14c0,2.35,1.406,3.56,1.822,4.28a1,1,0,0,0,1.611,0h0c0.424-.73,1.821-1.93,1.821-4.28v-5.37a0.6,0.6,0,0,0-1.2,0v2.58h-2.852v-13.15h2.852v7.77a0.6,0.6,0,0,0,1.2,0v-7.97a1.623,1.623,0,0,0,.983-1.49v-11.65l0.928,0.76v15.36a0.6,0.6,0,0,0,1.2,0V3694.5A0.582,0.582,0,0,0,294.778,3694.04Zm-5.517,32.61c-0.507-.72-0.7-0.94-0.887-1.28h1.774C289.956,3725.71,289.774,3725.93,289.261,3726.65Zm1.426-4.93a12.977,12.977,0,0,1-.088,2.45h-2.676a13.1,13.1,0,0,1-.088-2.45h2.852Zm0.983-16.04a0.418,0.418,0,0,1-.413.42h-3.992a0.419,0.419,0,0,1-.413-0.42v-12.91a2.409,2.409,0,1,1,4.818,0v12.91Zm-31.211,3.62a1.86,1.86,0,1,0,1.861,1.86A1.86,1.86,0,0,0,260.459,3709.3Zm0,2.52a0.66,0.66,0,1,1,.66-0.66A0.663,0.663,0,0,1,260.459,3711.82Zm0,2.86a1.86,1.86,0,1,0,1.861,1.86A1.866,1.866,0,0,0,260.459,3714.68Zm0,2.52a0.66,0.66,0,1,1,.66-0.66A0.657,0.657,0,0,1,260.459,3717.2Zm16.423-17.49H264.575a0.6,0.6,0,1,0,0,1.2h12.307A0.6,0.6,0,1,0,276.882,3699.71Zm1.766-8.39h-1.766a0.605,0.605,0,0,0,0,1.21h1.766A0.605,0.605,0,0,0,278.648,3691.32Zm-1.766,24.62H264.575a0.6,0.6,0,1,0,0,1.2h12.307A0.6,0.6,0,1,0,276.882,3715.94Zm0-5.41H264.575a0.6,0.6,0,1,0,0,1.2h12.307A0.6,0.6,0,1,0,276.882,3710.53Zm0-5.41H264.575a0.6,0.6,0,1,0,0,1.2h12.307A0.6,0.6,0,1,0,276.882,3705.12Zm-14.325-6.34a0.6,0.6,0,0,0-.847.06l-1.623,1.89-0.434-.5a0.6,0.6,0,1,0-.909.78l0.89,1.03a0.632,0.632,0,0,0,.455.21,0.61,0.61,0,0,0,.455-0.21l2.077-2.42A0.592,0.592,0,0,0,262.557,3698.78Zm0,5.38a0.6,0.6,0,0,0-.847.07l-1.623,1.88-0.434-.5a0.6,0.6,0,0,0-.909.79c0.812,0.86.893,1.23,1.344,1.23a0.568,0.568,0,0,0,.455-0.21l2.078-2.41A0.6,0.6,0,0,0,262.557,3704.16Zm17.145-15h-8.038v-0.48a1.68,1.68,0,0,0-1.682-1.68h-4.018a1.68,1.68,0,0,0-1.682,1.68v0.48h-4.127a0.6,0.6,0,1,0,0,1.2h1.425a1.689,1.689,0,0,0,1.611,2.17h9.564a1.688,1.688,0,0,0,1.611-2.17H279.7a1.047,1.047,0,0,1,1.043,1.05v7.5a0.6,0.6,0,0,0,1.2,0v-7.5A2.25,2.25,0,0,0,279.7,3689.16Zm-6.947,2.16h-9.564a0.478,0.478,0,0,1-.481-0.48,0.484,0.484,0,0,1,.481-0.48h1.691a0.6,0.6,0,0,0,.6-0.6v-1.08a0.483,0.483,0,0,1,.48-0.48h4.019a0.484,0.484,0,0,1,.481.48v1.08a0.6,0.6,0,0,0,.6.6h1.692a0.483,0.483,0,0,1,.48.48A0.477,0.477,0,0,1,272.755,3691.32Z" transform="translate(-254 -3687)"/>
</svg>
