<svg xmlns="http://www.w3.org/2000/svg" width="40" height="40" viewBox="0 0 40 40">
  <metadata><?xpacket begin="﻿" id="W5M0MpCehiHzreSzNTczkc9d"?>
<x:xmpmeta xmlns:x="adobe:ns:meta/" x:xmptk="Adobe XMP Core 5.6-c138 79.159824, 2016/09/14-01:09:01        ">
   <rdf:RDF xmlns:rdf="http://www.w3.org/1999/02/22-rdf-syntax-ns#">
      <rdf:Description rdf:about=""/>
   </rdf:RDF>
</x:xmpmeta>
                                                                                                    
                                                                                                    
                                                                                                    
                                                                                                    
                                                                                                    
                                                                                                    
                                                                                                    
                                                                                                    
                                                                                                    
                                                                                                    
                                                                                                    
                                                                                                    
                                                                                                    
                                                                                                    
                                                                                                    
                                                                                                    
                                                                                                    
                                                                                                    
                                                                                                    
                                                                                                    
                           
<?xpacket end="w"?></metadata>
<defs>
    <style>
      .cls-1 {
        fill: #0c6eb9;
        fill-rule: evenodd;
      }
    </style>
  </defs>
  <path id="features3" class="cls-1" d="M266.353,3584.54l-1.73-.43a5.146,5.146,0,0,0,1.925-4.01v-1.94a5.161,5.161,0,0,0-10.322,0v1.94a5.149,5.149,0,0,0,1.925,4.01l-1.73.43a4.522,4.522,0,0,0-3.421,4.39v8.59a1.938,1.938,0,0,0,1.936,1.93h1.29V3613h10.322v-13.55h1.291a1.937,1.937,0,0,0,1.935-1.93v-8.59A4.522,4.522,0,0,0,266.353,3584.54Zm-8.837-4.44v-1.94a3.871,3.871,0,0,1,7.742,0v1.94A3.871,3.871,0,0,1,257.516,3580.1Zm5.712,4.81-0.062.25a1.833,1.833,0,0,1-3.558,0l-0.062-.25A5.017,5.017,0,0,0,263.228,3584.91Zm-7,13.25h-1.29a0.645,0.645,0,0,1-.646-0.64v-1.94h1.936v2.58Zm4.516,13.55h-3.226v-1.29h3.226v1.29Zm4.516,0h-3.226v-1.29h3.226v1.29Zm3.226-14.19a0.645,0.645,0,0,1-.645.64h-1.291v-2.58h1.936v1.94Zm0-3.23h-1.936v-4.24h-1.29v5.53h-1.29v1.29h1.29v12.26h-3.226v-9.68h-1.29v9.68h-3.226v-12.26h5.161v-1.29h-5.161v-5.53h-1.29v4.24H254.29v-5.36a3.216,3.216,0,0,1,2.444-3.13l1.6-.4,0.019,0.07a3.123,3.123,0,0,0,6.061,0l0.02-.07,1.6,0.4a3.216,3.216,0,0,1,2.444,3.13v5.36Zm21.29-12.9a3.225,3.225,0,1,0-3.16-3.87H271.065v1.29h15.549A3.231,3.231,0,0,0,289.774,3581.39Zm0-5.16a1.935,1.935,0,1,1-1.935,1.93A1.932,1.932,0,0,1,289.774,3576.23Zm0,11.61a3.231,3.231,0,0,0-3.16,2.58H271.065v1.29h15.549A3.226,3.226,0,1,0,289.774,3587.84Zm0,5.16a1.935,1.935,0,1,1,1.936-1.94A1.939,1.939,0,0,1,289.774,3593Zm0,7.74a3.231,3.231,0,0,0-3.16,2.58H271.065v1.29h15.549A3.226,3.226,0,1,0,289.774,3600.74Zm0,5.16a1.935,1.935,0,1,1,1.936-1.93A1.937,1.937,0,0,1,289.774,3605.9Zm-7.1-12.9h1.291v1.29h-1.291V3593Zm-11.612,0h10.322v1.29H271.065V3593Zm11.612,12.9h1.291v1.29h-1.291v-1.29Zm-11.612,0h10.322v1.29H271.065v-1.29Zm11.612-25.8h1.291v1.29h-1.291v-1.29Zm-11.612,0h10.322v1.29H271.065v-1.29Z" transform="translate(-253 -3573)"/>
</svg>
