<svg xmlns="http://www.w3.org/2000/svg" width="39" height="40" viewBox="0 0 39 40">
  <metadata><?xpacket begin="﻿" id="W5M0MpCehiHzreSzNTczkc9d"?>
<x:xmpmeta xmlns:x="adobe:ns:meta/" x:xmptk="Adobe XMP Core 5.6-c138 79.159824, 2016/09/14-01:09:01        ">
   <rdf:RDF xmlns:rdf="http://www.w3.org/1999/02/22-rdf-syntax-ns#">
      <rdf:Description rdf:about=""/>
   </rdf:RDF>
</x:xmpmeta>
                                                                                                    
                                                                                                    
                                                                                                    
                                                                                                    
                                                                                                    
                                                                                                    
                                                                                                    
                                                                                                    
                                                                                                    
                                                                                                    
                                                                                                    
                                                                                                    
                                                                                                    
                                                                                                    
                                                                                                    
                                                                                                    
                                                                                                    
                                                                                                    
                                                                                                    
                                                                                                    
                           
<?xpacket end="w"?></metadata>
<defs>
    <style>
      .cls-1 {
        fill: #0c6eb9;
        fill-rule: evenodd;
      }
    </style>
  </defs>
  <path id="features4" class="cls-1" d="M869.164,3598.51a7.859,7.859,0,0,0-6.482,3.4l-9.913-5.43a7.567,7.567,0,0,0,.9-3.59,7.651,7.651,0,0,0-.858-3.51l7.525-3.23a7.721,7.721,0,1,0-1.4-4.41,7.655,7.655,0,0,0,.428,2.51l-7.816,3.36a7.741,7.741,0,1,0-.048,10.61l10.227,5.6a7.622,7.622,0,0,0-.4,2.44A7.836,7.836,0,1,0,869.164,3598.51Zm-2.388-22.39a5.625,5.625,0,1,1-5.688,5.62A5.66,5.66,0,0,1,866.776,3576.12Zm-20.941,22.39a5.62,5.62,0,1,1,5.689-5.62A5.659,5.659,0,0,1,845.835,3598.51Zm23.329,13.37a5.625,5.625,0,1,1,5.688-5.62A5.66,5.66,0,0,1,869.164,3611.88Z" transform="translate(-838 -3574)"/>
</svg>
