<svg xmlns="http://www.w3.org/2000/svg" width="40" height="40" viewBox="0 0 40 40">
  <metadata><?xpacket begin="﻿" id="W5M0MpCehiHzreSzNTczkc9d"?>
<x:xmpmeta xmlns:x="adobe:ns:meta/" x:xmptk="Adobe XMP Core 5.6-c138 79.159824, 2016/09/14-01:09:01        ">
   <rdf:RDF xmlns:rdf="http://www.w3.org/1999/02/22-rdf-syntax-ns#">
      <rdf:Description rdf:about=""/>
   </rdf:RDF>
</x:xmpmeta>
                                                                                                    
                                                                                                    
                                                                                                    
                                                                                                    
                                                                                                    
                                                                                                    
                                                                                                    
                                                                                                    
                                                                                                    
                                                                                                    
                                                                                                    
                                                                                                    
                                                                                                    
                                                                                                    
                                                                                                    
                                                                                                    
                                                                                                    
                                                                                                    
                                                                                                    
                                                                                                    
                           
<?xpacket end="w"?></metadata>
<defs>
    <style>
      .cls-1 {
        fill: #0c6eb9;
        fill-rule: evenodd;
      }
    </style>
  </defs>
  <path id="features1" class="cls-1" d="M288.538,3492.63l-0.657-.27a20,20,0,0,0,1.655-24.61,0.636,0.636,0,0,0-.1-0.14,19.877,19.877,0,0,0-3.484-3.85,0.631,0.631,0,1,0-.819.96,19.292,19.292,0,0,1,2.859,3.04,28.121,28.121,0,0,1-4.733,1.32,22.481,22.481,0,0,0-1.817-4.09,14.514,14.514,0,0,0-3.278-4.01,18.685,18.685,0,0,1,5.311,2.48,0.629,0.629,0,1,0,.707-1.04,20,20,0,0,0-26.055,29.95l-0.649.25a3.6,3.6,0,0,0-2.271,3.48v2.27a0.629,0.629,0,0,0,.631.63h9.3a0.268,0.268,0,0,0,.089-0.01,0.274,0.274,0,0,0,.09.01h2.57a0.63,0.63,0,1,0,0-1.26h-1.938v-2.2a3.1,3.1,0,0,1,1.9-3.02,0.035,0.035,0,0,0,.029-0.01l3.076-1.2c0.006,0.01.013,0.01,0.02,0.02l1.634,1.59a0.611,0.611,0,0,0,.441.18h0.01a0.623,0.623,0,0,0,.445-0.19l1.569-1.63,3.071,1.23a0.038,0.038,0,0,0,.03.01,3.1,3.1,0,0,1,1.9,3.02v2.2h-10.21a0.63,0.63,0,1,0,0,1.26h20.317a0.637,0.637,0,0,0,.631-0.64v-2.26A3.572,3.572,0,0,0,288.538,3492.63Zm-1.911-.77-0.622-.25v-0.36a3.291,3.291,0,0,0,1.468-1.82,1.784,1.784,0,0,0,1.644-1.78,1.758,1.758,0,0,0-.658-1.38v-1.13a4.267,4.267,0,0,0-3.717-4.22q0.036-.645.048-1.29h6.935A18.662,18.662,0,0,1,286.627,3491.86Zm-2.28-1.42h-0.576a2.029,2.029,0,0,1-2.024-2.03v-1.67h0a6.5,6.5,0,0,0,3.4-1.31,2.828,2.828,0,0,0,1.221,1.17v1.81A2.029,2.029,0,0,1,284.347,3490.44Zm0.4,1.24v0.35l-0.7.73-0.661-.65v-0.43c0.129,0.01.261,0.02,0.394,0.02h0.576C284.481,3491.7,284.612,3491.69,284.742,3491.68Zm-3.624-6.16h-0.067c-0.007,0-.013.01-0.02,0.01h-0.042c-0.01,0-.019.01-0.029,0.01s-0.021.01-.032,0.01a0.02,0.02,0,0,0-.02.01v-0.42a2.994,2.994,0,0,1,2.993-2.99h0.3a2.994,2.994,0,0,1,2.993,2.99v0.41c-0.012,0-.024-0.01-0.036-0.01h-0.017a1.951,1.951,0,0,1-1.171-1.39,0.631,0.631,0,0,0-1.128-.23C283.7,3485.5,281.151,3485.52,281.118,3485.52Zm6.516,2.56v-0.86A0.53,0.53,0,0,1,287.634,3488.08Zm1.1-19.26a18.724,18.724,0,0,1,2.992,9.55H284.79a31.8,31.8,0,0,0-1.157-8.08A28,28,0,0,0,288.733,3468.82Zm-5.206,9.55h-6.466a5.194,5.194,0,0,0-3.429-1.69v-5.43a56.544,56.544,0,0,0,8.754-.74A30.6,30.6,0,0,1,283.527,3478.37Zm-5.571,6.59a0.8,0.8,0,0,1-.593.78v-1.56A0.816,0.816,0,0,1,277.956,3484.96Zm-4.324-24.66c2.513,0.27,4.878,2.13,6.716,5.32A21.108,21.108,0,0,1,282,3469.3a55.575,55.575,0,0,1-8.372.69v-9.69h0Zm-0.4,17.63a3.906,3.906,0,0,1,3.9,3.9v0.77a0.012,0.012,0,0,1-.013-0.01c-0.01-.01-0.019-0.01-0.028-0.02s-0.016-.01-0.023-0.01a0.051,0.051,0,0,0-.029-0.02c-0.009-.01-0.018-0.01-0.027-0.02a0.031,0.031,0,0,1-.027-0.01c-0.011,0-.023-0.01-0.034-0.01s-0.016-.01-0.024-0.01-0.026-.01-0.038-0.01a0.017,0.017,0,0,1-.018-0.01,2.576,2.576,0,0,1-1.583-1.85,0.631,0.631,0,0,0-1.128-.23c-1.479,2.05-4.746,2.07-4.789,2.07h-0.087a0.066,0.066,0,0,1-.042.01c-0.009,0-.018.01-0.027,0.01a0.045,0.045,0,0,0-.034.01,0.037,0.037,0,0,0-.03.01,0.033,0.033,0,0,0-.028.01c-0.011,0-.022.01-0.033,0.01a0.023,0.023,0,0,1-.022.01,0.059,0.059,0,0,1-.033.02c-0.006.01-.012,0.01-0.019,0.02a0.048,0.048,0,0,0-.029.02c-0.007,0-.013.01-0.019,0.01s-0.012.01-.017,0.02v-0.79a3.905,3.905,0,0,1,3.9-3.9h0.378Zm-10.758.44a30.6,30.6,0,0,1,1.141-7.86,56.663,56.663,0,0,0,8.754.74v5.44a5.155,5.155,0,0,0-3.348,1.68h-6.547Zm6.265,5.81v1.57a0.819,0.819,0,0,1-.618-0.79A0.8,0.8,0,0,1,268.738,3484.18Zm3.63-23.88v9.69a55.681,55.681,0,0,1-8.37-.69,21.105,21.105,0,0,1,1.654-3.68C267.49,3462.43,269.855,3460.57,272.368,3460.3Zm-4.539.69a14.462,14.462,0,0,0-3.271,4,22.619,22.619,0,0,0-1.816,4.08,27.135,27.135,0,0,1-4.726-1.31A18.837,18.837,0,0,1,267.829,3460.99Zm-10.556,7.84a27.957,27.957,0,0,0,5.094,1.45,31.92,31.92,0,0,0-1.157,8.09h-6.935A18.587,18.587,0,0,1,257.273,3468.83Zm4.069,22.85c0.13,0.01.261,0.02,0.4,0.02h0.576c0.133,0,.265-0.01.394-0.02v0.35l-0.7.73-0.662-.65v-0.43Zm0.971-1.24h-0.576a2.029,2.029,0,0,1-2.024-2.03v-1.67a6.507,6.507,0,0,0,3.4-1.31,2.828,2.828,0,0,0,1.221,1.17v1.81A2.029,2.029,0,0,1,262.313,3490.44Zm1.625-6.29a0.63,0.63,0,0,0-1.127-.23c-1.145,1.58-3.7,1.6-3.727,1.6h-0.067c-0.007,0-.013.01-0.02,0.01h-0.043c-0.009,0-.017.01-0.026,0.01s-0.023.01-.034,0.01a0.02,0.02,0,0,0-.02.01v-0.42a2.994,2.994,0,0,1,2.993-2.99h0.3a2.994,2.994,0,0,1,2.993,2.99v0.41h0c-0.012,0-.025-0.01-0.037-0.01h-0.017A1.952,1.952,0,0,1,263.938,3484.15Zm-9.663-4.52h6.935c0.008,0.44.024,0.87,0.048,1.3a4.263,4.263,0,0,0-3.647,4.21v1.12a1.784,1.784,0,0,0,1,3.17,3.289,3.289,0,0,0,1.467,1.82v0.36l-0.69.27A18.659,18.659,0,0,1,254.275,3479.63Zm4.175,7.58v0.88A0.522,0.522,0,0,1,258.45,3487.21Zm6.232,8.33v2.2H256.47v-1.64a2.352,2.352,0,0,1,1.43-2.29,0.034,0.034,0,0,0,.029-0.01l2.382-.93,1.266,1.23a0.611,0.611,0,0,0,.441.18h0.01a0.623,0.623,0,0,0,.445-0.19l1.195-1.24,1.478,0.59A4.72,4.72,0,0,0,264.682,3495.54Zm6.094-5.52-3.352,1.31a4.072,4.072,0,0,0-1.542,1.05l-1.912-.77v-0.36a3.293,3.293,0,0,0,1.469-1.82,1.784,1.784,0,0,0,1.644-1.78,1.761,1.761,0,0,0-.658-1.38v-1.13a4.266,4.266,0,0,0-3.9-4.24c-0.024-.42-0.041-0.84-0.049-1.27h5.708a5.14,5.14,0,0,0-.493,2.2v1.47a2.078,2.078,0,0,0,1.213,3.74,3.935,3.935,0,0,0,1.875,2.33v0.65h0Zm-5.176-1.94v-0.86A0.53,0.53,0,0,1,265.6,3488.08Zm8.463,2.38h0v0.04l-1.035,1.07-0.989-.96v-0.79a4.652,4.652,0,0,0,.652.05h0.72a4.652,4.652,0,0,0,.652-0.05v0.64Zm-0.652-1.85h-0.72a2.7,2.7,0,0,1-2.69-2.69v-2.23a7.909,7.909,0,0,0,4.457-1.75,3.435,3.435,0,0,0,1.642,1.6v2.38A2.694,2.694,0,0,1,273.411,3488.61Zm6.725,3.77a4.076,4.076,0,0,0-1.544-1.05l-3.266-1.31v-0.65a3.939,3.939,0,0,0,1.875-2.33,2.076,2.076,0,0,0,1.194-3.73v-1.48a5.139,5.139,0,0,0-.492-2.2h5.624c-0.008.43-.025,0.86-0.05,1.28a4.257,4.257,0,0,0-3.832,4.23v1.12a1.784,1.784,0,0,0,1,3.17,3.3,3.3,0,0,0,1.468,1.82v0.36Zm0.348-5.17v0.88A0.522,0.522,0,0,1,280.484,3487.21Zm9.06,10.53h-8.213v-2.2a4.7,4.7,0,0,0-.46-2.09l1.475-.58,1.265,1.23a0.611,0.611,0,0,0,.441.18h0.01a0.623,0.623,0,0,0,.445-0.19l1.195-1.24,2.377,0.95a0.036,0.036,0,0,0,.029.01,2.345,2.345,0,0,1,1.436,2.29v1.64h0Z" transform="translate(-253 -3459)"/>
</svg>
