<svg xmlns="http://www.w3.org/2000/svg" width="45" height="45" viewBox="0 0 45 45">
  <metadata><?xpacket begin="﻿" id="W5M0MpCehiHzreSzNTczkc9d"?>
<x:xmpmeta xmlns:x="adobe:ns:meta/" x:xmptk="Adobe XMP Core 5.6-c138 79.159824, 2016/09/14-01:09:01        ">
   <rdf:RDF xmlns:rdf="http://www.w3.org/1999/02/22-rdf-syntax-ns#">
      <rdf:Description rdf:about=""/>
   </rdf:RDF>
</x:xmpmeta>
                                                                                                    
                                                                                                    
                                                                                                    
                                                                                                    
                                                                                                    
                                                                                                    
                                                                                                    
                                                                                                    
                                                                                                    
                                                                                                    
                                                                                                    
                                                                                                    
                                                                                                    
                                                                                                    
                                                                                                    
                                                                                                    
                                                                                                    
                                                                                                    
                                                                                                    
                                                                                                    
                           
<?xpacket end="w"?></metadata>
<defs>
    <style>
      .cls-1 {
        fill: #0c6eb9;
        fill-rule: evenodd;
      }
    </style>
  </defs>
  <path id="features6" class="cls-1" d="M872.954,3716.57l1.3-1.3-1.026-1.03-1.3,1.31-1.369-1.37a13.724,13.724,0,0,0,1.732-6.68c0-.21-0.021-0.41-0.031-0.61a7.547,7.547,0,0,0,5.838-7.37h-1.452a6.1,6.1,0,0,1-4.527,5.91,13.8,13.8,0,0,0-13.618-11.72c-0.207,0-.408.02-0.613,0.03a7.553,7.553,0,0,0-7.371-5.84v1.45a6.116,6.116,0,0,1,5.915,4.53,13.805,13.805,0,0,0-11.721,13.62c0,0.21.022,0.41,0.031,0.61a7.547,7.547,0,0,0-5.838,7.37h1.452a6.1,6.1,0,0,1,4.527-5.91,13.766,13.766,0,0,0,20.294,9.99l1.37,1.37-1.3,1.3,1.027,1.02,1.3-1.3,6.932,6.94a3.808,3.808,0,0,0,5.382-5.39ZM858.5,3695.16a12.349,12.349,0,0,1,12.192,10.54l-1.43.24a10.893,10.893,0,0,0-10.762-9.33c-0.037,0-.073.01-0.11,0.01l-0.24-1.44C858.268,3695.18,858.382,3695.16,858.5,3695.16Zm0,2.9a9.44,9.44,0,1,1-9.435,9.44A9.451,9.451,0,0,1,858.5,3698.06Zm-12.339,9.44a12.34,12.34,0,0,1,10.539-12.19l0.238,1.43a10.892,10.892,0,0,0-9.325,10.76c0,0.04,0,.07.006,0.11l-1.44.24C846.176,3707.73,846.161,3707.62,846.161,3707.5Zm12.339,12.34a12.349,12.349,0,0,1-12.192-10.54l1.43-.24a10.88,10.88,0,0,0,21.649-1.56c0-.04,0-0.07-0.006-0.11l1.44-.24c0,0.12.018,0.23,0.018,0.35A12.356,12.356,0,0,1,858.5,3719.84Zm7.933-1.08a13.871,13.871,0,0,0,3.329-3.33l1.139,1.14-3.328,3.33Zm10.762,9.79a2.357,2.357,0,0,1-1.664-.69l-6.932-6.93,3.328-3.33,6.933,6.93A2.356,2.356,0,0,1,877.2,3728.55Zm-2.727-30.49a6.53,6.53,0,1,0-6.533-6.53A6.539,6.539,0,0,0,874.468,3698.06Zm2.177-1.94a5.083,5.083,0,0,1-4.355,0v-0.96a2.178,2.178,0,1,1,4.355,0v0.96Zm-3.629-6.04a1.452,1.452,0,1,1,1.452,1.45A1.452,1.452,0,0,1,873.016,3690.08Zm1.452-3.63a5.079,5.079,0,0,1,3.622,8.64,3.638,3.638,0,0,0-1.594-2.94,2.9,2.9,0,1,0-4.056,0,3.63,3.63,0,0,0-1.594,2.94A5.078,5.078,0,0,1,874.468,3686.45Zm-31.936,11.61a6.53,6.53,0,1,0-6.532-6.53A6.54,6.54,0,0,0,842.532,3698.06Zm2.178-1.94a5.083,5.083,0,0,1-4.355,0v-0.96a2.178,2.178,0,1,1,4.355,0v0.96Zm-3.629-6.04a1.452,1.452,0,1,1,1.451,1.45A1.452,1.452,0,0,1,841.081,3690.08Zm1.451-3.63a5.078,5.078,0,0,1,3.622,8.64,3.635,3.635,0,0,0-1.594-2.94,2.9,2.9,0,1,0-4.056,0,3.638,3.638,0,0,0-1.594,2.94A5.079,5.079,0,0,1,842.532,3686.45Zm0,30.49a6.53,6.53,0,1,0,6.533,6.53A6.539,6.539,0,0,0,842.532,3716.94Zm2.178,11.11a4.992,4.992,0,0,1-4.355,0v-0.95a2.178,2.178,0,1,1,4.355,0v0.95Zm-3.629-6.03a1.452,1.452,0,1,1,1.451,1.45A1.46,1.46,0,0,1,841.081,3722.02Zm5.073,5a3.617,3.617,0,0,0-1.594-2.93,2.9,2.9,0,1,0-4.056,0,3.62,3.62,0,0,0-1.594,2.93A5.081,5.081,0,1,1,846.154,3727.02Zm4.362-20.97v5.08h15.968v-7.98h-4.355v6.53h-1.452v-9.44h-4.354v9.44h-1.452v-3.63h-4.355Zm13.065-1.45h1.451v5.08h-1.451v-5.08Zm-5.807-2.91h1.452v7.99h-1.452v-7.99Zm-4.355,7.99h-1.451v-2.18h1.451v2.18Z" transform="translate(-836 -3685)"/>
</svg>
