<svg xmlns="http://www.w3.org/2000/svg" width="36.969" height="49" viewBox="0 0 36.969 49">
  <metadata><?xpacket begin="﻿" id="W5M0MpCehiHzreSzNTczkc9d"?>
<x:xmpmeta xmlns:x="adobe:ns:meta/" x:xmptk="Adobe XMP Core 5.6-c138 79.159824, 2016/09/14-01:09:01        ">
   <rdf:RDF xmlns:rdf="http://www.w3.org/1999/02/22-rdf-syntax-ns#">
      <rdf:Description rdf:about=""/>
   </rdf:RDF>
</x:xmpmeta>
                                                                                                    
                                                                                                    
                                                                                                    
                                                                                                    
                                                                                                    
                                                                                                    
                                                                                                    
                                                                                                    
                                                                                                    
                                                                                                    
                                                                                                    
                                                                                                    
                                                                                                    
                                                                                                    
                                                                                                    
                                                                                                    
                                                                                                    
                                                                                                    
                                                                                                    
                                                                                                    
                           
<?xpacket end="w"?></metadata>
<defs>
    <style>
      .cls-1 {
        fill: #0c6eb9;
        fill-rule: evenodd;
      }
    </style>
  </defs>
  <path id="features2" class="cls-1" d="M864.714,3460.11a13.788,13.788,0,0,0-16.079,2.59,14.011,14.011,0,0,0-1.151,18.42,0.784,0.784,0,0,0,.607.3,0.779,0.779,0,0,0,.606-1.25,12.46,12.46,0,0,1,1.025-16.38,12.285,12.285,0,0,1,14.3-2.31A0.768,0.768,0,1,0,864.714,3460.11Zm6.138,6.16a0.771,0.771,0,1,0-1.373.7,12.372,12.372,0,0,1-18.6,15.39,0.771,0.771,0,0,0-.944,1.22,13.847,13.847,0,0,0,18.334-1.15A13.987,13.987,0,0,0,870.852,3466.27Zm-1.986-2.94c-0.191-.21-0.391-0.43-0.6-0.63s-0.417-.41-0.632-0.6a0.772,0.772,0,0,0-1.018,1.16c0.192,0.17.381,0.35,0.563,0.53s0.36,0.37.53,0.56a0.749,0.749,0,0,0,.576.27A0.779,0.779,0,0,0,868.866,3463.33Zm7.727,10.62a2.631,2.631,0,0,0,0-2.74l-1.011-1.67a1.085,1.085,0,0,1-.145-0.73l0.3-1.93a2.614,2.614,0,0,0-1.047-2.53l-1.567-1.15a1.075,1.075,0,0,1-.414-0.62l-0.457-1.9a2.6,2.6,0,0,0-1.928-1.93l-1.886-.46a1.077,1.077,0,0,1-.62-0.42l-1.14-1.57a2.575,2.575,0,0,0-2.524-1.05l-1.915.3a1.047,1.047,0,0,1-.731-0.15l-1.658-1.01a2.577,2.577,0,0,0-2.726,0l-1.658,1.01a1.047,1.047,0,0,1-.731.15l-1.915-.3a2.573,2.573,0,0,0-2.523,1.05l-1.14,1.57a1.077,1.077,0,0,1-.62.42l-1.886.46a2.6,2.6,0,0,0-1.929,1.93l-0.456,1.9a1.082,1.082,0,0,1-.415.62l-1.567,1.15a2.614,2.614,0,0,0-1.047,2.53l0.3,1.93a1.091,1.091,0,0,1-.145.73l-1.011,1.67a2.631,2.631,0,0,0,0,2.74l1.011,1.66a1.107,1.107,0,0,1,.145.74l-0.3,1.92a2.64,2.64,0,0,0,1.046,2.54l1.567,1.14a1.077,1.077,0,0,1,.415.62l0.456,1.9a2.632,2.632,0,0,0,1.929,1.94l0.788,0.19-5.33,11.94a0.775,0.775,0,0,0,.792,1.09l4.289-.52,2.47,3.56a0.764,0.764,0,0,0,.63.33h0.073a0.772,0.772,0,0,0,.629-0.46l5.443-12.2,0.69,0.43a2.634,2.634,0,0,0,2.726,0l0.714-.44,5.45,12.21a0.774,0.774,0,0,0,.63.46h0.072a0.762,0.762,0,0,0,.63-0.33l2.47-3.56,4.289,0.52a0.775,0.775,0,0,0,.792-1.09l-5.332-11.95,0.758-.18a2.632,2.632,0,0,0,1.929-1.94l0.456-1.9a1.077,1.077,0,0,1,.415-0.62l1.567-1.14a2.636,2.636,0,0,0,1.046-2.54l-0.3-1.92a1.1,1.1,0,0,1,.145-0.74Zm-26.447,26.72-1.958-2.82a0.767,0.767,0,0,0-.722-0.33l-3.4.41,4.855-10.88a0.967,0.967,0,0,1,.235.23l1.14,1.58a2.565,2.565,0,0,0,.362.4l-2.556,5.73a0.772,0.772,0,0,0,.387,1.02,0.707,0.707,0,0,0,.314.07,0.766,0.766,0,0,0,.7-0.46l2.547-5.71a2.466,2.466,0,0,0,.767,0l1.916-.31a1.312,1.312,0,0,1,.343.01Zm22.8-2.74-3.4-.41a0.765,0.765,0,0,0-.721.33l-1.958,2.82-4.937-11.07a1.647,1.647,0,0,1,.314,0l1.914,0.31a2.675,2.675,0,0,0,.8,0l2.548,5.71a0.766,0.766,0,0,0,.7.46,0.707,0.707,0,0,0,.314-0.07,0.771,0.771,0,0,0,.387-1.02l-2.566-5.75a2.921,2.921,0,0,0,.34-0.38l1.14-1.58a1.078,1.078,0,0,1,.259-0.25Zm2.339-24.79-1.012,1.67a2.64,2.64,0,0,0-.35,1.78l0.3,1.92a1.084,1.084,0,0,1-.432,1.05l-1.567,1.14a2.667,2.667,0,0,0-1,1.51l-0.456,1.9a1.1,1.1,0,0,1-.8.8l-1.886.45a2.657,2.657,0,0,0-1.5,1.01l-1.14,1.58a1.061,1.061,0,0,1-1.042.43l-1.915-.3a2.616,2.616,0,0,0-1.77.35l-1.658,1.02a1.083,1.083,0,0,1-1.125,0l-1.658-1.02a2.633,2.633,0,0,0-1.364-.38,2.774,2.774,0,0,0-.406.03l-1.915.3a1.062,1.062,0,0,1-1.042-.43l-1.14-1.58a2.659,2.659,0,0,0-1.5-1.01l-1.886-.45a1.1,1.1,0,0,1-.8-0.8l-0.456-1.9a2.635,2.635,0,0,0-1-1.51l-1.567-1.14a1.092,1.092,0,0,1-.431-1.05l0.3-1.92a2.641,2.641,0,0,0-.351-1.78l-1.011-1.67a1.083,1.083,0,0,1,0-1.13l1.011-1.67a2.624,2.624,0,0,0,.351-1.77l-0.3-1.93a1.074,1.074,0,0,1,.432-1.04l1.567-1.15a2.635,2.635,0,0,0,1-1.51l0.456-1.89a1.067,1.067,0,0,1,.8-0.8l1.886-.46a2.654,2.654,0,0,0,1.5-1.01l1.14-1.58a1.081,1.081,0,0,1,1.042-.43l1.915,0.3a2.559,2.559,0,0,0,1.77-.35l1.658-1.02a1.083,1.083,0,0,1,1.125,0l1.659,1.02a2.558,2.558,0,0,0,1.769.35l1.916-.3a1.081,1.081,0,0,1,1.042.43l1.14,1.58a2.657,2.657,0,0,0,1.5,1.01l1.886,0.46a1.064,1.064,0,0,1,.8.8l0.457,1.89a2.633,2.633,0,0,0,1,1.51l1.567,1.15a1.074,1.074,0,0,1,.432,1.04l-0.3,1.93a2.619,2.619,0,0,0,.351,1.77l1.011,1.67A1.088,1.088,0,0,1,875.281,3473.14Zm-7.8-2.97a1.369,1.369,0,0,0-1.157-.95l-4.624-.55-1.951-4.25a1.387,1.387,0,0,0-2.522,0l-1.951,4.25-4.625.55a1.37,1.37,0,0,0-1.157.95,1.39,1.39,0,0,0,.378,1.46l3.419,3.18-0.908,4.59a1.391,1.391,0,0,0,.546,1.4,1.442,1.442,0,0,0,.815.27,1.3,1.3,0,0,0,.68-0.19l4.064-2.28,4.063,2.28a1.384,1.384,0,0,0,2.041-1.48l-0.908-4.59,3.419-3.18A1.386,1.386,0,0,0,867.482,3470.17Zm-5.156,3.8a0.763,0.763,0,0,0-.232.71l0.929,4.7-4.159-2.34a0.755,0.755,0,0,0-.751,0l-4.158,2.34,0.928-4.7a0.758,0.758,0,0,0-.232-0.71l-3.5-3.26,4.732-.56a0.77,0.77,0,0,0,.608-0.44l2-4.35,2,4.35a0.77,0.77,0,0,0,.607.44l4.733,0.56Z" transform="translate(-840 -3454)"/>
</svg>
