<svg xmlns="http://www.w3.org/2000/svg" width="129" height="88" viewBox="0 0 129 88">
  <metadata><?xpacket begin="﻿" id="W5M0MpCehiHzreSzNTczkc9d"?>
<x:xmpmeta xmlns:x="adobe:ns:meta/" x:xmptk="Adobe XMP Core 5.6-c138 79.159824, 2016/09/14-01:09:01        ">
   <rdf:RDF xmlns:rdf="http://www.w3.org/1999/02/22-rdf-syntax-ns#">
      <rdf:Description rdf:about=""/>
   </rdf:RDF>
</x:xmpmeta>
                                                                                                    
                                                                                                    
                                                                                                    
                                                                                                    
                                                                                                    
                                                                                                    
                                                                                                    
                                                                                                    
                                                                                                    
                                                                                                    
                                                                                                    
                                                                                                    
                                                                                                    
                                                                                                    
                                                                                                    
                                                                                                    
                                                                                                    
                                                                                                    
                                                                                                    
                                                                                                    
                           
<?xpacket end="w"?></metadata>
<defs>
    <style>
      .cls-1 {
        fill: #fff;
        fill-rule: evenodd;
      }
    </style>
  </defs>
  <path id="Forma_1" data-name="Forma 1" class="cls-1" d="M459.285,1700.21h-99.57a3.193,3.193,0,0,0-3.189,3.19v58.87a3.193,3.193,0,0,0,3.189,3.19h99.57a3.193,3.193,0,0,0,3.189-3.19V1703.4A3.193,3.193,0,0,0,459.285,1700.21Zm0.428,62.06a0.428,0.428,0,0,1-.428.43h-99.57a0.428,0.428,0,0,1-.428-0.43V1703.4a0.426,0.426,0,0,1,.428-0.42h99.57a0.426,0.426,0,0,1,.428.42v58.87h0Zm12.216,5.27h-3.242v-65.65A7.9,7.9,0,0,0,460.8,1694H358.2a7.9,7.9,0,0,0-7.888,7.89v65.65h-3.243a2.066,2.066,0,0,0-2.071,2.07v5.69a6.712,6.712,0,0,0,6.7,6.7H467.3a6.712,6.712,0,0,0,6.7-6.7v-5.69A2.066,2.066,0,0,0,471.929,1767.54Zm-117.474-65.65a3.751,3.751,0,0,1,3.746-3.75H460.8a3.751,3.751,0,0,1,3.746,3.75v65.65H354.455v-65.65Zm48.971,69.79h12.148v1.08a0.877,0.877,0,0,1-.879.88H404.3a0.878,0.878,0,0,1-.879-0.88v-1.08h0Zm66.432,3.62a2.564,2.564,0,0,1-2.56,2.56H351.7a2.564,2.564,0,0,1-2.56-2.56v-3.62h51.522v1.08a3.643,3.643,0,0,0,3.641,3.64H414.7a3.643,3.643,0,0,0,3.641-3.64v-1.08h51.522v3.62h0Z" transform="translate(-345 -1694)"/>
</svg>
