<svg xmlns="http://www.w3.org/2000/svg" width="52" height="65" viewBox="0 0 52 65">
  <metadata><?xpacket begin="﻿" id="W5M0MpCehiHzreSzNTczkc9d"?>
<x:xmpmeta xmlns:x="adobe:ns:meta/" x:xmptk="Adobe XMP Core 5.6-c138 79.159824, 2016/09/14-01:09:01        ">
   <rdf:RDF xmlns:rdf="http://www.w3.org/1999/02/22-rdf-syntax-ns#">
      <rdf:Description rdf:about=""/>
   </rdf:RDF>
</x:xmpmeta>
                                                                                                    
                                                                                                    
                                                                                                    
                                                                                                    
                                                                                                    
                                                                                                    
                                                                                                    
                                                                                                    
                                                                                                    
                                                                                                    
                                                                                                    
                                                                                                    
                                                                                                    
                                                                                                    
                                                                                                    
                                                                                                    
                                                                                                    
                                                                                                    
                                                                                                    
                                                                                                    
                           
<?xpacket end="w"?></metadata>
<defs>
    <style>
      .cls-1 {
        fill: #dd1d18;
        fill-rule: evenodd;
      }
    </style>
  </defs>
  <path id="Shape_1-2" data-name="Shape 1-2" class="cls-1" d="M941.8,1065.21h2.473v1.88H941.8v-1.88Zm-15,0H925.9a2.571,2.571,0,0,0-.157,5.14l0.12-1.87a0.7,0.7,0,0,1,.034-1.4l0.908,0.01h11.042v-1.88H926.807Zm34.714,40.77V1113h-5.152v1.87h7.069v-8.89h-1.917Zm0-3.98h1.916v1.79h-1.916V1102Zm-29.947-20.68H960.09v1.88H931.575v-1.88Zm0-4.54h13.77v1.88h-13.77v-1.88Zm20.512,0h7.682v1.88h-7.682v-1.88Zm-20.512,9.08H960.09v1.88H931.575v-1.88Zm0,4.54H960.09v1.88H931.575v-1.88Zm35.141-28.37V1062H925.908a5.764,5.764,0,0,0-1.81,11.28v44.8h15.269V1127l5.977-2.29,5.978,2.29v-8.92h15.394v-6.61h5.161v-42.51a5.689,5.689,0,0,0,.123-1.18A5.843,5.843,0,0,0,966.716,1062.03Zm-44.8,5.75a3.959,3.959,0,0,1,3.989-3.91l0.9,0.01h34.939a5.678,5.678,0,0,0,0,7.81H925.908A3.954,3.954,0,0,1,921.916,1067.78Zm17.77,42.99a1.5,1.5,0,0,1-.459-1.08,1.517,1.517,0,0,1,.46-1.09c0.054-.05.119-0.1,0.195-0.16a6.357,6.357,0,0,0,2.185,2.14,1.606,1.606,0,0,1-.164.19A1.59,1.59,0,0,1,939.686,1110.77Zm5.658-9.91a4.366,4.366,0,1,1-4.46,4.37A4.42,4.42,0,0,1,945.344,1100.86Zm-1.567-1.92a1.568,1.568,0,0,1,3.135,0,1.371,1.371,0,0,1-.022.23,6.725,6.725,0,0,0-3.091,0A1.371,1.371,0,0,1,943.777,1098.94Zm4.852,0.94a1.533,1.533,0,0,1,.157-0.18,1.589,1.589,0,0,1,2.216,0,1.494,1.494,0,0,1,.46,1.08,1.517,1.517,0,0,1-.46,1.09,1.56,1.56,0,0,1-.189.15A6.346,6.346,0,0,0,948.629,1099.88Zm-1.717,11.65a1.568,1.568,0,0,1-3.135,0,1.5,1.5,0,0,1,.023-0.25,6.369,6.369,0,0,0,3.088,0A1.406,1.406,0,0,1,946.912,1111.53Zm-7.036-9.51a1.5,1.5,0,0,1-.19-0.15,1.52,1.52,0,0,1-.459-1.09,1.5,1.5,0,0,1,.459-1.08,1.59,1.59,0,0,1,2.217,0,1.533,1.533,0,0,1,.157.18A6.337,6.337,0,0,0,939.876,1102.02Zm9.529,22.23-3.1-1.19v-3.4h-1.917v3.4l-3.1,1.19v-11.19a3.023,3.023,0,0,1,4.061,1.88,3.023,3.023,0,0,1,4.061-1.88v11.19h0Zm1.6-13.48a1.589,1.589,0,0,1-2.216,0,1.606,1.606,0,0,1-.164-0.19,6.357,6.357,0,0,0,2.185-2.14c0.076,0.06.141,0.11,0.2,0.16a1.52,1.52,0,0,1,.459,1.09A1.5,1.5,0,0,1,951,1110.77Zm13.8,5.44H951.322v-3.41a3.692,3.692,0,0,0,1.035-.7,3.367,3.367,0,0,0,.758-3.72,3.384,3.384,0,0,0,0-6.3,3.282,3.282,0,0,0,.263-1.3,3.344,3.344,0,0,0-1.021-2.41,3.548,3.548,0,0,0-3.795-.74,3.516,3.516,0,0,0-6.436,0,3.547,3.547,0,0,0-3.794.74,3.344,3.344,0,0,0-1.021,2.41,3.265,3.265,0,0,0,.263,1.3,3.384,3.384,0,0,0,0,6.3,3.367,3.367,0,0,0,.758,3.72,3.678,3.678,0,0,0,1.035.7v3.41H926.015v-42.65H964.8v42.65Zm-13.268-12.49a2.334,2.334,0,0,1,.247-0.02,1.535,1.535,0,1,1,0,3.07,2.408,2.408,0,0,1-.25-0.02A6.12,6.12,0,0,0,951.532,1103.72Zm-12.372,3.02a1.177,1.177,0,0,1-.25.03,1.535,1.535,0,1,1,0-3.07,2.355,2.355,0,0,1,.247.02,6.1,6.1,0,0,0-.189,1.51A6.008,6.008,0,0,0,939.16,1106.74Zm30.8,2.85h-3.245v-36.06a6.009,6.009,0,0,0,3.245-1.38v37.44Zm-3.867-37.9a3.906,3.906,0,1,1,3.99-3.91A3.953,3.953,0,0,1,966.094,1071.69Z" transform="translate(-920 -1062)"/>
</svg>
