<svg xmlns="http://www.w3.org/2000/svg" width="61" height="61" viewBox="0 0 61 61">
  <metadata><?xpacket begin="﻿" id="W5M0MpCehiHzreSzNTczkc9d"?>
<x:xmpmeta xmlns:x="adobe:ns:meta/" x:xmptk="Adobe XMP Core 5.6-c138 79.159824, 2016/09/14-01:09:01        ">
   <rdf:RDF xmlns:rdf="http://www.w3.org/1999/02/22-rdf-syntax-ns#">
      <rdf:Description rdf:about=""/>
   </rdf:RDF>
</x:xmpmeta>
                                                                                                    
                                                                                                    
                                                                                                    
                                                                                                    
                                                                                                    
                                                                                                    
                                                                                                    
                                                                                                    
                                                                                                    
                                                                                                    
                                                                                                    
                                                                                                    
                                                                                                    
                                                                                                    
                                                                                                    
                                                                                                    
                                                                                                    
                                                                                                    
                                                                                                    
                                                                                                    
                           
<?xpacket end="w"?></metadata>
<defs>
    <style>
      .cls-1 {
        fill: #dd1d18;
        fill-rule: evenodd;
      }
    </style>
  </defs>
  <path id="Shape_1-1" data-name="Shape 1-1" class="cls-1" d="M641.249,1065.68h10.622a0.965,0.965,0,0,0,0-1.93H641.249A0.965,0.965,0,0,0,641.249,1065.68Zm0,4.25h21.244a0.965,0.965,0,0,0,0-1.93H641.249A0.965,0.965,0,0,0,641.249,1069.93Zm0,13.24h10.622a0.96,0.96,0,1,0,0-1.92H641.249A0.96,0.96,0,1,0,641.249,1083.17Zm0,4.25h21.01a0.96,0.96,0,1,0,0-1.92h-21.01A0.96,0.96,0,1,0,641.249,1087.42Zm0,13.25h10.622a0.965,0.965,0,0,0,0-1.93H641.249A0.965,0.965,0,0,0,641.249,1100.67Zm20.859,2.32H641.249a0.965,0.965,0,0,0,0,1.93h20.859A0.965,0.965,0,0,0,662.108,1102.99Zm19.326,4.24-5.595-2.24v-1.23a6.629,6.629,0,0,0,3.2-4,3.4,3.4,0,0,0,2-6.15v-2.56a8.641,8.641,0,0,0-8.633-8.63h-0.639a8.829,8.829,0,0,0-2.071.25v-5.21a0.964,0.964,0,0,0-.963-0.97h-2.86a0.965,0.965,0,0,0,0,1.93h1.9v4.99a8.625,8.625,0,0,0-4.6,6.84H626.926v-11.83h35.717a0.965,0.965,0,0,0,0-1.93h-36.68a0.964,0.964,0,0,0-.963.97v13.75a0.962,0.962,0,0,0,.963.96h37.165v1.43a3.946,3.946,0,0,0-.444.39H625.963a0.962,0.962,0,0,0-.963.96v13.76a0.962,0.962,0,0,0,.963.96h33.5a7.629,7.629,0,0,0-1.423,4.58v4.79a0.962,0.962,0,0,0,.964.96h3.638a0.965,0.965,0,0,0,0-1.93h-2.675v-3.82a5.311,5.311,0,0,1,3.28-5.2c0.015-.01.03-0.01,0.045-0.02l5.272-2.06c0.024,0.03.049,0.05,0.078,0.08l2.765,2.69a0.949,0.949,0,0,0,.672.28H672.1a0.971,0.971,0,0,0,.679-0.3l2.705-2.8,5.262,2.11a0.093,0.093,0,0,1,.046.02,5.3,5.3,0,0,1,3.287,5.2v3.82H665.725a0.965,0.965,0,0,0,0,1.93h19.312a0.97,0.97,0,0,0,.963-0.97v-4.78A7.3,7.3,0,0,0,681.434,1107.23Zm-2.147-12.33a1.479,1.479,0,0,1,0,2.91v-2.91Zm-14.233-3.85a6.714,6.714,0,0,1,6.707-6.7H672.4a6.714,6.714,0,0,1,6.707,6.7v1.58a0.042,0.042,0,0,1,0-.01l-0.027-.03a0.138,0.138,0,0,0-.029-0.04,0.16,0.16,0,0,1-.034-0.04,0.053,0.053,0,0,1-.028-0.02c-0.013-.01-0.026-0.03-0.04-0.04s-0.02-.01-0.03-0.02-0.029-.03-0.044-0.04a0.059,0.059,0,0,1-.033-0.02,0.09,0.09,0,0,0-.045-0.02l-0.041-.03a0.078,0.078,0,0,1-.041-0.02,0.117,0.117,0,0,1-.052-0.02,0.05,0.05,0,0,1-.036-0.01c-0.019-.01-0.039-0.01-0.059-0.02h-0.027c-2.1-.48-2.752-3.19-2.758-3.21a0.951,0.951,0,0,0-.746-0.73,0.963,0.963,0,0,0-.974.37c-2.534,3.51-8.111,3.54-8.188,3.54h0a0.334,0.334,0,0,0-.1.01h-0.03a0.15,0.15,0,0,1-.065.01,0.063,0.063,0,0,1-.041.01c-0.017.01-.034,0.01-0.051,0.02s-0.031.01-.046,0.01-0.029.01-.042,0.02-0.035.01-.052,0.02-0.022.01-.032,0.02l-0.051.03c-0.009.01-.019,0.01-0.029,0.02l-0.045.03c-0.01.01-.02,0.01-0.029,0.02s-0.026.03-.039,0.04-0.02.01-.029,0.02a0.16,0.16,0,0,1-.034.04l-0.029.03c-0.01.01-.019,0.03-0.028,0.04a0.12,0.12,0,0,0-.027.04,0.031,0.031,0,0,0-.015.02v-1.62h0Zm-0.15,3.85v2.92A1.477,1.477,0,0,1,664.9,1094.9Zm3.447,10.08-5.74,2.25a5.243,5.243,0,0,0-1.09.53,0.855,0.855,0,0,0-.162-0.02H626.926v-11.83h34.825a3.578,3.578,0,0,0-.029.45,3.4,3.4,0,0,0,3.406,3.4h0.025a6.626,6.626,0,0,0,3.2,4v1.22h0Zm5.561,0.67v0.12l-1.854,1.92-1.78-1.73v-1.52a6.861,6.861,0,0,0,1.208.11h1.219a6.85,6.85,0,0,0,1.207-.11v1.21Zm-1.207-3.02h-1.219a4.663,4.663,0,0,1-4.656-4.66v-3.87a13.271,13.271,0,0,0,7.676-3.03,5.766,5.766,0,0,0,2.854,2.82v4.08A4.662,4.662,0,0,1,672.705,1102.63Zm-37.865-38.02a0.96,0.96,0,1,0,0-1.92h-4.858a0.962,0.962,0,0,0-.964.96v6.38a0.965,0.965,0,0,0,.964.97h6.7a0.964,0.964,0,0,0,.963-0.97v-1.72a0.964,0.964,0,0,0-1.927,0v0.76h-4.77v-4.46h3.895Zm3.721-1.66a0.955,0.955,0,0,0-1.361.04l-3.2,3.39-0.989-1.07a0.962,0.962,0,1,0-1.419,1.3l1.689,1.84a0.945,0.945,0,0,0,.7.31h0.006a0.974,0.974,0,0,0,.7-0.3l3.909-4.15A0.961,0.961,0,0,0,638.561,1062.95Zm-3.721,19.16a0.965,0.965,0,0,0,0-1.93h-4.858a0.962,0.962,0,0,0-.964.96v6.39a0.962,0.962,0,0,0,.964.96h6.7a0.962,0.962,0,0,0,.963-0.96v-1.73a0.964,0.964,0,0,0-1.927,0v0.76h-4.77v-4.45h3.895Zm3.721-1.67a0.964,0.964,0,0,0-1.361.04l-3.2,3.4-0.989-1.08a0.962,0.962,0,1,0-1.419,1.3l1.69,1.84a0.943,0.943,0,0,0,.7.31h0.006a0.974,0.974,0,0,0,.7-0.3l3.909-4.15A0.962,0.962,0,0,0,638.561,1080.44Zm-1.882,21.89a0.971,0.971,0,0,0-.964.97v0.76h-4.77v-4.46h3.895a0.965,0.965,0,0,0,0-1.93h-4.858a0.965,0.965,0,0,0-.964.97v6.38a0.962,0.962,0,0,0,.964.96h6.7a0.962,0.962,0,0,0,.963-0.96v-1.72A0.971,0.971,0,0,0,636.679,1102.33Zm0.521-4.35-3.2,3.39-0.989-1.08a0.964,0.964,0,0,0-1.36-.06,0.974,0.974,0,0,0-.059,1.37l1.69,1.84a0.981,0.981,0,0,0,.7.31h0.006a0.945,0.945,0,0,0,.7-0.31l3.909-4.14A0.962,0.962,0,1,0,637.2,1097.98Zm-11.237-23.3h42.764a0.962,0.962,0,0,0,.964-0.96v-13.76a0.962,0.962,0,0,0-.964-0.96h-2.86a0.965,0.965,0,0,0,0,1.93h1.9v11.83H626.926v-11.83h35.717a0.965,0.965,0,0,0,0-1.93h-36.68a0.962,0.962,0,0,0-.963.96v13.76A0.962,0.962,0,0,0,625.963,1074.68Z" transform="translate(-625 -1059)"/>
</svg>
