<svg xmlns="http://www.w3.org/2000/svg" width="63" height="60" viewBox="0 0 63 60">
  <metadata><?xpacket begin="﻿" id="W5M0MpCehiHzreSzNTczkc9d"?>
<x:xmpmeta xmlns:x="adobe:ns:meta/" x:xmptk="Adobe XMP Core 5.6-c138 79.159824, 2016/09/14-01:09:01        ">
   <rdf:RDF xmlns:rdf="http://www.w3.org/1999/02/22-rdf-syntax-ns#">
      <rdf:Description rdf:about=""/>
   </rdf:RDF>
</x:xmpmeta>
                                                                                                    
                                                                                                    
                                                                                                    
                                                                                                    
                                                                                                    
                                                                                                    
                                                                                                    
                                                                                                    
                                                                                                    
                                                                                                    
                                                                                                    
                                                                                                    
                                                                                                    
                                                                                                    
                                                                                                    
                                                                                                    
                                                                                                    
                                                                                                    
                                                                                                    
                                                                                                    
                           
<?xpacket end="w"?></metadata>
<defs>
    <style>
      .cls-1 {
        fill: #dd1d18;
        fill-rule: evenodd;
      }
    </style>
  </defs>
  <path id="Shape_1-3" data-name="Shape 1-3" class="cls-1" d="M1258.86,1098.76a8.414,8.414,0,0,0,4.02-7.18v-6.43a8.408,8.408,0,0,0-7.07-8.31v-6.21a0.926,0.926,0,0,0-.92-0.93h-9.86v-3.71a5.979,5.979,0,0,0-5.95-5.99h-14.35a5.979,5.979,0,0,0-5.95,5.99v3.71h-9.86a0.926,0.926,0,0,0-.92.93v32.85a0.918,0.918,0,0,0,.92.92h8.11a0.925,0.925,0,0,0,0-1.85h-7.19v-18.68a11.17,11.17,0,0,0,7.09,4.83v1.01a2.945,2.945,0,1,0,5.89,0v-0.78h7.1a0.925,0.925,0,0,0,0-1.85h-7.1v-2.27a0.924,0.924,0,0,0-.92-0.92h-4.05a0.918,0.918,0,0,0-.92.92v2a9.388,9.388,0,0,1-7.09-9.1v-6.16h44.13v5.21c-0.06.01-.11,0.01-0.16,0.02-0.07,0-.13.01-0.19,0.01l-0.23.03-0.18.03c-0.08.01-.15,0.03-0.23,0.04-0.06.01-.12,0.02-0.17,0.03l-0.24.06a1.244,1.244,0,0,0-.16.04,2.172,2.172,0,0,0-.24.07,0.833,0.833,0,0,0-.15.04l-0.27.09a0.76,0.76,0,0,0-.11.04c-0.25.09-.49,0.2-0.73,0.31-0.03.01-.05,0.03-0.08,0.04-0.09.05-.19,0.09-0.28,0.14a1.054,1.054,0,0,1-.11.07c-0.08.04-.15,0.09-0.23,0.13-0.04.03-.08,0.05-0.12,0.08-0.07.05-.15,0.09-0.21,0.14a1.463,1.463,0,0,0-.13.09,2.426,2.426,0,0,0-.2.14l-0.12.09c-0.07.05-.13,0.1-0.19,0.15a1.2,1.2,0,0,0-.12.11l-0.18.15a4.477,4.477,0,0,0-.28.27l-0.12.12-0.16.16a1.5,1.5,0,0,1-.11.13c-0.05.06-.1,0.11-0.15,0.17-0.03.04-.07,0.09-0.11,0.14s-0.09.11-.13,0.17l-0.11.14-0.12.18a1.3,1.3,0,0,0-.1.15l-0.12.18-0.09.15c-0.04.07-.08,0.13-0.11,0.19s-0.06.11-.09,0.16c-0.03.07-.07,0.13-0.1,0.2-0.03.05-.05,0.11-0.08,0.16-0.03.07-.06,0.13-0.09,0.2s-0.05.11-.07,0.17-0.05.13-.08,0.2-0.04.12-.06,0.17c-0.03.07-.05,0.14-0.08,0.21a1.209,1.209,0,0,1-.05.18l-0.06.21a1.209,1.209,0,0,0-.05.18c-0.02.07-.03,0.15-0.05,0.22s-0.03.12-.04,0.18a1.572,1.572,0,0,0-.04.23c-0.01.06-.02,0.12-0.03,0.17-0.01.09-.02,0.17-0.03,0.25a1,1,0,0,0-.02.16c-0.01.1-.02,0.19-0.02,0.28a0.708,0.708,0,0,0-.01.14c-0.01.14-.01,0.29-0.01,0.43v1.8a8.058,8.058,0,0,1-1.29.13v-2.27a0.924,0.924,0,0,0-.92-0.92h-4.05a0.918,0.918,0,0,0-.92.92v2.27h-6a0.925,0.925,0,0,0,0,1.85h6v0.78a2.945,2.945,0,1,0,5.89,0v-0.78a11.224,11.224,0,0,0,1.29-.11v2.76c0,0.14,0,.28.01,0.42a0.808,0.808,0,0,0,.01.16,2.275,2.275,0,0,0,.02.26,1.5,1.5,0,0,0,.02.2c0.01,0.07.02,0.14,0.03,0.2,0.01,0.08.02,0.15,0.03,0.22a1.625,1.625,0,0,1,.04.19,1.892,1.892,0,0,0,.05.23,0.749,0.749,0,0,0,.04.16c0.02,0.09.04,0.17,0.06,0.25a0.737,0.737,0,0,1,.04.14l0.09,0.27a0.418,0.418,0,0,0,.04.1c0.03,0.1.07,0.2,0.11,0.3,0.01,0.02.01,0.05,0.02,0.07,0.05,0.11.1,0.22,0.14,0.32,0.01,0.01.01,0.03,0.02,0.04a8.43,8.43,0,0,0,3.24,3.65,17.214,17.214,0,0,0-6.8,3.79H1220.1a0.925,0.925,0,0,0,0,1.85h21.53a15.467,15.467,0,0,0-3.59,9.78v4.89a0.92,0.92,0,0,0,.92.93h7.01a0.925,0.925,0,0,0,0-1.85h-6.09v-3.97a13.719,13.719,0,0,1,4.42-9.95,0.6,0.6,0,0,1,.08-0.08c0.11-.11.23-0.21,0.34-0.31a0.038,0.038,0,0,0,.02-0.02q0.345-.3.69-0.57a1.47,1.47,0,0,1,.13-0.1c0.06-.05.12-0.09,0.19-0.14s0.12-.09.18-0.14a0.555,0.555,0,0,0,.08-0.06,15.463,15.463,0,0,1,4.26-2.13l1.49,2.92-1.99,8.71a0.93,0.93,0,0,0,.27.89l3.86,3.55a0.931,0.931,0,0,0,.62.24,0.912,0.912,0,0,0,.62-0.24l3.86-3.55a0.93,0.93,0,0,0,.27-0.89l-1.99-8.71,1.49-2.92a15.6,15.6,0,0,1,5.98,3.55,13.747,13.747,0,0,1,4.41,9.95v3.97h-20.12a0.925,0.925,0,0,0,0,1.85h21.04a0.92,0.92,0,0,0,.92-0.93v-4.89C1271,1107.03,1265.77,1100.73,1258.86,1098.76Zm-40.09-10.84v-2.18h2.21v3.97a1.105,1.105,0,1,1-2.21,0v-1.79h0Zm21.13-18.22h-15.99v-3.05a1.528,1.528,0,0,1,1.52-1.53h12.95a1.528,1.528,0,0,1,1.52,1.53v3.05h0Zm3.29,0h-1.45v-3.05a3.378,3.378,0,0,0-3.36-3.38h-12.95a3.372,3.372,0,0,0-3.36,3.38v3.05h-1.46v-3.71a4.138,4.138,0,0,1,4.12-4.14h14.35a4.129,4.129,0,0,1,4.11,4.14v3.71Zm-0.15,18.3v1.71a1.105,1.105,0,1,1-2.21,0v-3.97h2.21V1088h0Zm4.97-2.86a6.542,6.542,0,0,1,6.18-6.54c0.11,0,.22-0.01.33-0.01s0.21,0.01.31,0.01h0.03a6.54,6.54,0,0,1,6.17,6.54v2.21c-2.96-.56-4.16-3.59-4.22-3.73a0.908,0.908,0,0,0-.79-0.59,0.935,0.935,0,0,0-.88.47c-0.08.16-2,3.53-7.13,3.9v-2.26h0Zm9.35,27.06-2.84,2.61-2.84-2.61,1.79-7.8h2.11Zm-5.26-11.98c0.08-.02.16-0.03,0.24-0.05a1.114,1.114,0,0,1,.17-0.02c0.1-.02.21-0.04,0.31-0.05,0.13-.02.26-0.03,0.39-0.05,0.05,0,.11-0.01.16-0.01a0.076,0.076,0,0,0,.04-0.01l0.41-.03c0.05,0,.11-0.01.16-0.01h0c0.11,0,.22-0.01.33-0.01h0.42c0.11,0,.22.01,0.33,0.01a0.41,0.41,0,0,1,.11.01l0.48,0.03a1.1,1.1,0,0,0,.18.02c0.14,0.02.27,0.03,0.4,0.05,0.1,0.02.2,0.03,0.3,0.05a1.114,1.114,0,0,1,.17.02c0.08,0.02.16,0.03,0.24,0.05l-1.19,2.33h-2.45Zm2.8-2.1h-0.05a0.148,0.148,0,0,0-.07.01h-0.02c-0.08,0-.15-0.01-0.23-0.01h-0.02c-0.07,0-.15.01-0.22,0.01a6.6,6.6,0,0,1-6.28-6.22v-2.65a11.072,11.072,0,0,0,7.81-3.59,7.393,7.393,0,0,0,5.22,3.55v2.36A6.542,6.542,0,0,1,1254.9,1098.12Z" transform="translate(-1208 -1060)"/>
</svg>
