<svg xmlns="http://www.w3.org/2000/svg" width="62" height="62" viewBox="0 0 62 62">
  <metadata><?xpacket begin="﻿" id="W5M0MpCehiHzreSzNTczkc9d"?>
<x:xmpmeta xmlns:x="adobe:ns:meta/" x:xmptk="Adobe XMP Core 5.6-c138 79.159824, 2016/09/14-01:09:01        ">
   <rdf:RDF xmlns:rdf="http://www.w3.org/1999/02/22-rdf-syntax-ns#">
      <rdf:Description rdf:about=""/>
   </rdf:RDF>
</x:xmpmeta>
                                                                                                    
                                                                                                    
                                                                                                    
                                                                                                    
                                                                                                    
                                                                                                    
                                                                                                    
                                                                                                    
                                                                                                    
                                                                                                    
                                                                                                    
                                                                                                    
                                                                                                    
                                                                                                    
                                                                                                    
                                                                                                    
                                                                                                    
                                                                                                    
                                                                                                    
                                                                                                    
                           
<?xpacket end="w"?></metadata>
<defs>
    <style>
      .cls-1 {
        fill: #dd1d18;
        fill-rule: evenodd;
      }
    </style>
  </defs>
  <path class="cls-1" d="M384.319,1090.69a8.077,8.077,0,0,0-7.461-5.01,7.919,7.919,0,0,0-3.533.82v-2.77a11.466,11.466,0,0,0-5.217-9.58s-1.2-1.83-1.237-1.88c0,0,.373-0.36.439-0.43a9.875,9.875,0,0,0,2.482-5.54,5.535,5.535,0,0,0-.046-1.83,3.716,3.716,0,0,0-.326-0.94,2.855,2.855,0,0,0-1.4-1.33,7.456,7.456,0,0,0-3.175-2.59,7.31,7.31,0,0,0-8.755,2.26,10.591,10.591,0,0,1-3.5,2.69l-1.882.84,1.9,0.8c0.612,0.26,1.211.48,1.794,0.67a7.529,7.529,0,0,0,2.6,5.39l-1.237,1.88a11.463,11.463,0,0,0-5.219,9.59v4.03a8.057,8.057,0,0,0-12.861,2.93c-4.655,1.52-7.681,3.59-7.681,6.19v4.57c0,1.83,1.523,3.5,4.453,4.91a12.187,12.187,0,0,0-1.541,5.95V1121h56.175v-8.69a12.187,12.187,0,0,0-1.541-5.95c2.931-1.41,4.454-3.08,4.454-4.91v-4.57C392,1094.28,388.974,1092.21,384.319,1090.69Zm0.547,2.09c3.885,1.44,5.346,3.01,5.346,4.1,0,1.27-1.947,3.16-7.328,4.77a11.6,11.6,0,0,0-1.972-.9A8.06,8.06,0,0,0,384.866,1092.78Zm-8.008-5.31a6.3,6.3,0,1,1-6.281,6.29A6.291,6.291,0,0,1,376.858,1087.47Zm-9-11.3a9.669,9.669,0,0,1,3.676,7.56v3.96a6.736,6.736,0,0,0-.492.48c-0.784-.08-1.575-0.15-2.372-0.2v-3.9h-1.788v3.78c-1.088-.06-2.182-0.1-3.277-0.13l0.862-.84v-6.87Zm-5.927-.74-1.239-1.42a8.419,8.419,0,0,0,1.239.1,7.289,7.289,0,0,0,1.24-.1Zm0.747,5.14v5.55l-0.747.73-0.747-.73v-5.55a0.459,0.459,0,0,0,.118.01C361.645,1080.58,362.092,1080.57,362.68,1080.57Zm-1.839-3.67-0.706,1.24-2.787-3.16,0.785-1.19Zm4.892-3.11,0.785,1.19-2.787,3.16-0.706-1.24Zm-8.239-10.82a5.585,5.585,0,0,1,6.667-1.71,5.936,5.936,0,0,1,2.574,2.22l0.2,0.28,0.323,0.06a1.085,1.085,0,0,1,.592.58,3.17,3.17,0,0,1,.141,1.84,5.63,5.63,0,0,0-1-1.77l-0.516-.54-0.622.41a10.845,10.845,0,0,1-3.5,1.29,14.684,14.684,0,0,1-7.295-.43A10.972,10.972,0,0,0,357.494,1062.97Zm-1.256,4.38a15.174,15.174,0,0,0,9.823-1.08,15.384,15.384,0,0,1,.953,2.99A5.748,5.748,0,0,1,356.238,1067.35Zm-3.908,16.38a9.638,9.638,0,0,1,3.674-7.56l3.394,3.84v6.87l0.831,0.81c-1.081.01-2.165,0.03-3.246,0.07v-3.69h-1.789v3.78c-0.961.05-1.917,0.11-2.864,0.19v-4.31h0Zm8.67,5.75c3.032,0,5.992.12,8.806,0.36a8.083,8.083,0,0,0,3,10.91,12.245,12.245,0,0,0-4.995,3.33c-2.206.14-4.486,0.21-6.809,0.21s-4.6-.07-6.809-0.21a12.245,12.245,0,0,0-4.995-3.33,8.083,8.083,0,0,0,3-10.91C355.008,1089.6,357.969,1089.48,361,1089.48Zm-15.858-2.01a6.3,6.3,0,1,1-6.281,6.29A6.292,6.292,0,0,1,345.142,1087.47Zm-8.008,5.31a8.06,8.06,0,0,0,3.954,7.97,11.6,11.6,0,0,0-1.972.9c-5.381-1.61-7.328-3.5-7.328-4.77C331.788,1095.79,333.249,1094.22,337.134,1092.78Zm-5.346,8.67v-1.31a17.083,17.083,0,0,0,5.478,2.8,12.348,12.348,0,0,0-1.817,1.91C332.818,1103.62,331.788,1102.37,331.788,1101.45Zm23.8,17.76h-3.236v-6.54h-1.788v6.54H339.725v-6.54h-1.789v6.54H334.7v-6.9a10.441,10.441,0,1,1,20.882,0v6.9Zm9.046-6.9v6.9h-7.258v-6.9a12.262,12.262,0,0,0-.121-1.72q1.853,0.06,3.75.06t3.75-.06A12.262,12.262,0,0,0,364.629,1112.31Zm0.518-3.53c-1.363.05-2.748,0.08-4.147,0.08s-2.784-.03-4.147-0.08a12.136,12.136,0,0,0-1.266-2.84c1.8,0.09,3.612.14,5.413,0.14s3.614-.05,5.412-0.14A12.174,12.174,0,0,0,365.147,1108.78Zm18.916,10.43v-6.54h-1.788v6.54H371.442v-6.54h-1.789v6.54h-3.235v-6.9a10.441,10.441,0,1,1,20.881,0v6.9h-3.236Zm6.149-17.76h0c0,0.92-1.03,2.17-3.661,3.4a12.4,12.4,0,0,0-1.817-1.91,17.083,17.083,0,0,0,5.478-2.8v1.31h0Zm-6.989-22.61h1.789v1.98h-1.789v-1.98Zm-2.608-9.91H382.4v1.98h-1.788v-1.98Zm5.913-6.16h1.789v1.98h-1.789v-1.98Zm-13.583,9.87h1.788v1.98h-1.788v-1.98Zm1.278-12.7h1.788v1.98h-1.788v-1.98Zm-37.265,18.9h1.789v1.98h-1.789v-1.98Zm2.61-9.91h1.789v1.98h-1.789v-1.98Zm-5.914-6.16h1.789v1.98h-1.789v-1.98Zm13.584,9.87h1.789v1.98h-1.789v-1.98Zm-1.279-12.7h1.789v1.98h-1.789v-1.98Z" transform="translate(-330 -1059)"/>
</svg>
