<svg xmlns="http://www.w3.org/2000/svg" width="95" height="94" viewBox="0 0 95 94">
  <metadata><?xpacket begin="﻿" id="W5M0MpCehiHzreSzNTczkc9d"?>
<x:xmpmeta xmlns:x="adobe:ns:meta/" x:xmptk="Adobe XMP Core 5.6-c138 79.159824, 2016/09/14-01:09:01        ">
   <rdf:RDF xmlns:rdf="http://www.w3.org/1999/02/22-rdf-syntax-ns#">
      <rdf:Description rdf:about=""/>
   </rdf:RDF>
</x:xmpmeta>
                                                                                                    
                                                                                                    
                                                                                                    
                                                                                                    
                                                                                                    
                                                                                                    
                                                                                                    
                                                                                                    
                                                                                                    
                                                                                                    
                                                                                                    
                                                                                                    
                                                                                                    
                                                                                                    
                                                                                                    
                                                                                                    
                                                                                                    
                                                                                                    
                                                                                                    
                                                                                                    
                           
<?xpacket end="w"?></metadata>
<defs>
    <style>
      .cls-1 {
        fill: #fff;
        fill-rule: evenodd;
      }
    </style>
  </defs>
  <path id="talent2" class="cls-1" d="M831.439,1716.74l-17.725-12.85a1.465,1.465,0,0,0-1.723,2.37l17.724,12.85A1.465,1.465,0,0,0,831.439,1716.74Zm-43.658-7.03a1.458,1.458,0,0,0-1.678-1.21l-21.634,3.42a1.464,1.464,0,0,0,.228,2.91,0.915,0.915,0,0,0,.232-0.02l21.634-3.42A1.469,1.469,0,0,0,787.781,1709.71Zm58.609,2.43-32.918-23.86a1.421,1.421,0,0,0-1.092-.26,1.474,1.474,0,0,0-.957.58l-14.355,19.74-1.977-12.44a1.466,1.466,0,0,0-1.678-1.21l-40.177,6.36a1.47,1.47,0,0,0-1.219,1.68l7.847,49.36a1.467,1.467,0,0,0,.586.95,1.488,1.488,0,0,0,.862.28,0.9,0.9,0,0,0,.23-0.02l9.232-1.46v15.71a1.47,1.47,0,0,0,1.467,1.47h40.68a1.47,1.47,0,0,0,1.467-1.47v-4.13a19.136,19.136,0,0,0,2.839-1.99l3.655,3.64-1.175,1.18a1.461,1.461,0,0,0,0,2.07l13.276,13.25a1.465,1.465,0,0,0,2.074,0l4.426-4.42a1.44,1.44,0,0,0,.43-1.03,1.481,1.481,0,0,0-.43-1.04l-13.276-13.25a1.467,1.467,0,0,0-2.075,0l-1.176,1.17-3.654-3.64a18.505,18.505,0,0,0,4.473-12.11c0-.48-0.02-0.97-0.058-1.45l23-31.62A1.457,1.457,0,0,0,846.39,1712.14Zm-21.221,52.8,11.2,11.18-2.351,2.35-11.2-11.19Zm-54.395-47.37v6l-4.343.69a1.464,1.464,0,0,0,.228,2.91,0.919,0.919,0,0,0,.232-0.02l3.883-.61v9.68l-2.382.38a1.464,1.464,0,0,0,.228,2.91,0.915,0.915,0,0,0,.232-0.02l1.922-.3v9.69l-8.243,1.3-7.387-46.47,37.28-5.9,2.206,13.88-3.216,4.42H772.241A1.461,1.461,0,0,0,770.774,1717.57Zm40.68,48.52H773.708v-47.05h37.746v10.67a18.68,18.68,0,0,0-6.357-1.11c-0.409,0-.817.02-1.223,0.05a1.3,1.3,0,0,0-.341-0.05h-21.9a1.465,1.465,0,1,0,0,2.93h13.418a18.6,18.6,0,0,0-4.265,3.75,18.406,18.406,0,0,0-3.317,5.82h-5.835a1.465,1.465,0,1,0,0,2.93H786.7a18.653,18.653,0,0,0-.28,3.22,18.406,18.406,0,0,0,1.109,6.34h-5.9a1.465,1.465,0,1,0,0,2.93h7.265a18.746,18.746,0,0,0,22.56,8.27v1.3h0Zm4.776-7.73h0a15.759,15.759,0,0,1-3.977,2.89,15.782,15.782,0,0,1-21.183-6.86h0a15.526,15.526,0,0,1-1.715-7.14,15.746,15.746,0,0,1,31.395-1.71h0a16.061,16.061,0,0,1,.093,1.71A15.591,15.591,0,0,1,816.23,1758.36Zm6.745-16.53a18.535,18.535,0,0,0-8.587-10.75v-7.64l7.973,5.78a1.465,1.465,0,0,0,1.724-2.37l-9.7-7.03v-2.25a1.468,1.468,0,0,0-1.467-1.46h-3.655L806.36,1714a1.466,1.466,0,0,0-2,2.11h-9.321l2.322-3.19h0l15.574-21.41,30.544,22.13Zm-17.877-6.98a12.4,12.4,0,1,0,12.419,12.4A12.422,12.422,0,0,0,805.1,1734.85Zm0,21.87a9.47,9.47,0,1,1,9.485-9.47A9.49,9.49,0,0,1,805.1,1756.72Zm4.166-9.73a1.473,1.473,0,0,0-2.075,0l-3.911,3.91a1.461,1.461,0,0,0,0,2.07,1.467,1.467,0,0,0,2.075,0l3.911-3.91A1.461,1.461,0,0,0,809.264,1746.99Zm-1.564-6.24a1.455,1.455,0,0,0-2.075,0l-4.3,4.29a1.465,1.465,0,0,0,1.038,2.5,1.447,1.447,0,0,0,1.037-.43l4.3-4.29A1.463,1.463,0,0,0,807.7,1740.75Z" transform="translate(-752 -1688)"/>
</svg>
