<svg id="talent3" xmlns="http://www.w3.org/2000/svg" width="129" height="88" viewBox="0 0 129 88">
  <metadata><?xpacket begin="﻿" id="W5M0MpCehiHzreSzNTczkc9d"?>
<x:xmpmeta xmlns:x="adobe:ns:meta/" x:xmptk="Adobe XMP Core 5.6-c138 79.159824, 2016/09/14-01:09:01        ">
   <rdf:RDF xmlns:rdf="http://www.w3.org/1999/02/22-rdf-syntax-ns#">
      <rdf:Description rdf:about=""/>
   </rdf:RDF>
</x:xmpmeta>
                                                                                                    
                                                                                                    
                                                                                                    
                                                                                                    
                                                                                                    
                                                                                                    
                                                                                                    
                                                                                                    
                                                                                                    
                                                                                                    
                                                                                                    
                                                                                                    
                                                                                                    
                                                                                                    
                                                                                                    
                                                                                                    
                                                                                                    
                                                                                                    
                                                                                                    
                                                                                                    
                           
<?xpacket end="w"?></metadata>
<defs>
    <style>
      .cls-1 {
        fill: #fff;
        fill-rule: evenodd;
      }
    </style>
  </defs>
  <path class="cls-1" d="M425.939,1731.61a2.172,2.172,0,0,0-2.126-1.86H411.924a1.954,1.954,0,0,0-1.96,1.95v2.82a1.963,1.963,0,0,0,1.96,1.96h5.87a0.43,0.43,0,0,1,.315.09,0.153,0.153,0,0,1-.01.06,8.906,8.906,0,0,1-3.167,3.74h0a8.86,8.86,0,0,1-13.21-4.2h0a8.747,8.747,0,0,1,.011-6.37h0a8.846,8.846,0,0,1,13.229-4.14h0.008l0.045,0.03s0.008,0.01.012,0.01a2.321,2.321,0,0,0,1.245.36,2.007,2.007,0,0,0,1.478-.62l2.322-2.48a1.7,1.7,0,0,0-.288-2.62l-0.034-.03a16.008,16.008,0,0,0-23.886,5.19,0.016,0.016,0,0,1,0,.01,16.008,16.008,0,0,0,.016,15.02h0a16,16,0,0,0,24.517,4.63s0,0,0-.01A15.957,15.957,0,0,0,426,1733,11.922,11.922,0,0,0,425.939,1731.61ZM410,1718.31a14.548,14.548,0,0,1,8.932,3.02s0.071,0.06.1,0.08a0.458,0.458,0,0,1,.219.31,0.45,0.45,0,0,1-.134.35l-2.321,2.47a0.7,0.7,0,0,1-.525.22,1.086,1.086,0,0,1-.544-0.16l-0.035-.03a10.168,10.168,0,0,0-14.825,3.95l-3.589-2.87A14.653,14.653,0,0,1,410,1718.31ZM395.306,1733a14.709,14.709,0,0,1,1.36-6.17l3.685,2.95a10.037,10.037,0,0,0-.009,6.41l-3.666,3A14.7,14.7,0,0,1,395.306,1733ZM410,1747.69a14.687,14.687,0,0,1-12.708-7.31l3.565-2.92a10.152,10.152,0,0,0,14.395,4.25l3.682,2.95A14.7,14.7,0,0,1,410,1747.69Zm9.952-3.89-3.585-2.87a10.139,10.139,0,0,0,2.934-3.79l0.014-.03a1.369,1.369,0,0,0-.131-1.28,1.672,1.672,0,0,0-1.39-.66h-5.87a0.651,0.651,0,0,1-.654-0.65v-2.82a0.651,0.651,0,0,1,.654-0.65h11.889a0.886,0.886,0,0,1,.831.73,11.062,11.062,0,0,1,.05,1.22A14.672,14.672,0,0,1,419.952,1743.8Z" transform="translate(-345 -1694)"/>
  <path id="Forma_1" data-name="Forma 1" class="cls-1" d="M459.285,1700.21h-99.57a3.193,3.193,0,0,0-3.189,3.19v58.87a3.193,3.193,0,0,0,3.189,3.19h99.57a3.193,3.193,0,0,0,3.189-3.19V1703.4A3.193,3.193,0,0,0,459.285,1700.21Zm0.428,62.06a0.428,0.428,0,0,1-.428.43h-99.57a0.428,0.428,0,0,1-.428-0.43V1703.4a0.426,0.426,0,0,1,.428-0.42h99.57a0.426,0.426,0,0,1,.428.42v58.87h0Zm12.216,5.27h-3.242v-65.65A7.9,7.9,0,0,0,460.8,1694H358.2a7.9,7.9,0,0,0-7.888,7.89v65.65h-3.243a2.066,2.066,0,0,0-2.071,2.07v5.69a6.712,6.712,0,0,0,6.7,6.7H467.3a6.712,6.712,0,0,0,6.7-6.7v-5.69A2.066,2.066,0,0,0,471.929,1767.54Zm-117.474-65.65a3.751,3.751,0,0,1,3.746-3.75H460.8a3.751,3.751,0,0,1,3.746,3.75v65.65H354.455v-65.65Zm48.971,69.79h12.148v1.08a0.877,0.877,0,0,1-.879.88H404.3a0.878,0.878,0,0,1-.879-0.88v-1.08h0Zm66.432,3.62a2.564,2.564,0,0,1-2.56,2.56H351.7a2.564,2.564,0,0,1-2.56-2.56v-3.62h51.522v1.08a3.643,3.643,0,0,0,3.641,3.64H414.7a3.643,3.643,0,0,0,3.641-3.64v-1.08h51.522v3.62h0Z" transform="translate(-345 -1694)"/>
</svg>
