<svg xmlns="http://www.w3.org/2000/svg" width="83" height="83" viewBox="0 0 83 83">
  <metadata><?xpacket begin="﻿" id="W5M0MpCehiHzreSzNTczkc9d"?>
<x:xmpmeta xmlns:x="adobe:ns:meta/" x:xmptk="Adobe XMP Core 5.6-c138 79.159824, 2016/09/14-01:09:01        ">
   <rdf:RDF xmlns:rdf="http://www.w3.org/1999/02/22-rdf-syntax-ns#">
      <rdf:Description rdf:about=""/>
   </rdf:RDF>
</x:xmpmeta>
                                                                                                    
                                                                                                    
                                                                                                    
                                                                                                    
                                                                                                    
                                                                                                    
                                                                                                    
                                                                                                    
                                                                                                    
                                                                                                    
                                                                                                    
                                                                                                    
                                                                                                    
                                                                                                    
                                                                                                    
                                                                                                    
                                                                                                    
                                                                                                    
                                                                                                    
                                                                                                    
                           
<?xpacket end="w"?></metadata>
<defs>
    <style>
      .cls-1 {
        fill: #fff;
        fill-rule: evenodd;
      }
    </style>
  </defs>
  <path id="talent1" class="cls-1" d="M1165.79,1729.57a8.89,8.89,0,1,0-8.9-8.89A8.9,8.9,0,0,0,1165.79,1729.57Zm0-14.82a5.93,5.93,0,1,1-5.93,5.93A5.928,5.928,0,0,1,1165.79,1714.75Zm47.42,14.82a8.89,8.89,0,1,0-8.89-8.89A8.9,8.9,0,0,0,1213.21,1729.57Zm0-14.82a5.93,5.93,0,1,1-5.92,5.93A5.936,5.936,0,0,1,1213.21,1714.75Zm14.83,17.79v19.26a4.46,4.46,0,0,1-4.45,4.45v-16.3a7.42,7.42,0,0,0-7.41-7.41h-7.41a1.477,1.477,0,0,0-1.48,1.48v8.89h-11.86a1.477,1.477,0,0,0-1.48,1.48v4.45h-8.9v-4.45a1.477,1.477,0,0,0-1.48-1.48h-11.86v-8.89a1.477,1.477,0,0,0-1.48-1.48h-7.41a7.42,7.42,0,0,0-7.41,7.41v16.3a4.46,4.46,0,0,1-4.45-4.45v-19.26H1148v19.26a7.422,7.422,0,0,0,4.45,6.79V1777h2.96v-17.79h14.82v16.31a1.483,1.483,0,0,0,1.48,1.48h7.42v-25.2h20.74V1777h7.42a1.483,1.483,0,0,0,1.48-1.48v-16.31h14.82V1777h2.96v-18.41a7.422,7.422,0,0,0,4.45-6.79v-19.26h-2.96Zm-50.4,16.3h-11.85v-8.89h-2.97v10.37a1.483,1.483,0,0,0,1.48,1.48h10.38a1.485,1.485,0,0,1,1.48,1.49v20.75h-2.96v-16.31a1.485,1.485,0,0,0-1.49-1.48h-13.34v-16.3a4.453,4.453,0,0,1,4.45-4.45h5.93v8.89a1.485,1.485,0,0,0,1.48,1.49h11.86v2.96h-4.45Zm29.65,7.41a1.485,1.485,0,0,0-1.49,1.48v16.31h-2.96v-20.75a1.485,1.485,0,0,1,1.48-1.49h10.38a1.483,1.483,0,0,0,1.48-1.48v-10.37h-2.97v8.89h-16.3v-2.96h11.86a1.485,1.485,0,0,0,1.48-1.49v-8.89h5.93a4.453,4.453,0,0,1,4.45,4.45v16.3h-13.34Zm-31.13-47.43v4.45a1.475,1.475,0,0,0,1.01,1.4,1.6,1.6,0,0,0,.47.08,1.492,1.492,0,0,0,1.19-.59l4-5.34h11.12a4.443,4.443,0,0,0,4.44-4.44v-5.93a4.451,4.451,0,0,0-4.44-4.45h-17.79a4.46,4.46,0,0,0-4.45,4.45v5.93A4.451,4.451,0,0,0,1176.16,1708.82Zm-1.48-10.37a1.485,1.485,0,0,1,1.48-1.49h17.79a1.492,1.492,0,0,1,1.48,1.49v5.93a1.49,1.49,0,0,1-1.48,1.48h-11.86a1.492,1.492,0,0,0-1.19.59l-1.77,2.37v-1.48a1.485,1.485,0,0,0-1.49-1.48h-1.48a1.483,1.483,0,0,1-1.48-1.48v-5.93Zm2.96,1.48h14.82v2.96h-14.82v-2.96Zm10.38,31.12h8.89v2.97h-8.89v-2.97Zm-1.48-5.92a4.445,4.445,0,0,0-4.45,4.44v5.93a4.453,4.453,0,0,0,4.45,4.45h11.85a4.46,4.46,0,0,0,4.45-4.45v-1.03l2.71-4.08a1.46,1.46,0,0,0,.08-1.52,1.487,1.487,0,0,0-1.31-.78h-1.73a4.454,4.454,0,0,0-4.2-2.96h-11.85Zm13.33,4.44a1.485,1.485,0,0,0,1.49,1.48h0.19l-1.43,2.15a1.493,1.493,0,0,0-.25.82v1.48a1.477,1.477,0,0,1-1.48,1.48h-11.85a1.485,1.485,0,0,1-1.49-1.48v-5.93a1.485,1.485,0,0,1,1.49-1.48h11.85A1.477,1.477,0,0,1,1199.87,1729.57Zm-17.78-11.86h2.96v2.97h-2.96v-2.97Zm5.93,0h2.96v2.97h-2.96v-2.97Zm5.93,0h2.96v2.97h-2.96v-2.97Z" transform="translate(-1148 -1694)"/>
</svg>
